%TF.GenerationSoftware,KiCad,Pcbnew,9.0.7*%
%TF.CreationDate,2026-01-25T12:57:44+01:00*%
%TF.ProjectId,DiyIrTower,44697949-7254-46f7-9765-722e6b696361,1.0*%
%TF.SameCoordinates,Original*%
%TF.FileFunction,Legend,Bot*%
%TF.FilePolarity,Positive*%
%FSLAX46Y46*%
G04 Gerber Fmt 4.6, Leading zero omitted, Abs format (unit mm)*
G04 Created by KiCad (PCBNEW 9.0.7) date 2026-01-25 12:57:44*
%MOMM*%
%LPD*%
G01*
G04 APERTURE LIST*
%ADD10C,0.150000*%
%ADD11C,0.010000*%
%ADD12C,0.120000*%
G04 APERTURE END LIST*
D10*
X104833333Y-130954819D02*
X104833333Y-131669104D01*
X104833333Y-131669104D02*
X104880952Y-131811961D01*
X104880952Y-131811961D02*
X104976190Y-131907200D01*
X104976190Y-131907200D02*
X105119047Y-131954819D01*
X105119047Y-131954819D02*
X105214285Y-131954819D01*
X104357142Y-131954819D02*
X104357142Y-130954819D01*
X104357142Y-130954819D02*
X103976190Y-130954819D01*
X103976190Y-130954819D02*
X103880952Y-131002438D01*
X103880952Y-131002438D02*
X103833333Y-131050057D01*
X103833333Y-131050057D02*
X103785714Y-131145295D01*
X103785714Y-131145295D02*
X103785714Y-131288152D01*
X103785714Y-131288152D02*
X103833333Y-131383390D01*
X103833333Y-131383390D02*
X103880952Y-131431009D01*
X103880952Y-131431009D02*
X103976190Y-131478628D01*
X103976190Y-131478628D02*
X104357142Y-131478628D01*
X102833333Y-131954819D02*
X103404761Y-131954819D01*
X103119047Y-131954819D02*
X103119047Y-130954819D01*
X103119047Y-130954819D02*
X103214285Y-131097676D01*
X103214285Y-131097676D02*
X103309523Y-131192914D01*
X103309523Y-131192914D02*
X103404761Y-131240533D01*
D11*
%TO.C,REF\u002A\u002A*%
X92555406Y-115274949D02*
X92581127Y-115290647D01*
X92607778Y-115312227D01*
X92607778Y-115959684D01*
X92581127Y-115981264D01*
X92549767Y-115998739D01*
X92513966Y-115999575D01*
X92482528Y-115979082D01*
X92478652Y-115974416D01*
X92473186Y-115964949D01*
X92468979Y-115951267D01*
X92465867Y-115930748D01*
X92463687Y-115900768D01*
X92462276Y-115858704D01*
X92461471Y-115801932D01*
X92461107Y-115727830D01*
X92461022Y-115633773D01*
X92461022Y-115312227D01*
X92487673Y-115290647D01*
X92511386Y-115275877D01*
X92534400Y-115269067D01*
X92555406Y-115274949D01*
G36*
X92555406Y-115274949D02*
G01*
X92581127Y-115290647D01*
X92607778Y-115312227D01*
X92607778Y-115959684D01*
X92581127Y-115981264D01*
X92549767Y-115998739D01*
X92513966Y-115999575D01*
X92482528Y-115979082D01*
X92478652Y-115974416D01*
X92473186Y-115964949D01*
X92468979Y-115951267D01*
X92465867Y-115930748D01*
X92463687Y-115900768D01*
X92462276Y-115858704D01*
X92461471Y-115801932D01*
X92461107Y-115727830D01*
X92461022Y-115633773D01*
X92461022Y-115312227D01*
X92487673Y-115290647D01*
X92511386Y-115275877D01*
X92534400Y-115269067D01*
X92555406Y-115274949D01*
G37*
X99686137Y-115273463D02*
X99720291Y-115296776D01*
X99748000Y-115324485D01*
X99748000Y-115637537D01*
X99747959Y-115721567D01*
X99747701Y-115795789D01*
X99747030Y-115852541D01*
X99745752Y-115894512D01*
X99743673Y-115924389D01*
X99740599Y-115944861D01*
X99736334Y-115958614D01*
X99730684Y-115968337D01*
X99723455Y-115976717D01*
X99691991Y-115998181D01*
X99656826Y-115999947D01*
X99623822Y-115980267D01*
X99618516Y-115974398D01*
X99613066Y-115965314D01*
X99608900Y-115951973D01*
X99605846Y-115931757D01*
X99603732Y-115902049D01*
X99602386Y-115860232D01*
X99601638Y-115803689D01*
X99601314Y-115729802D01*
X99601245Y-115635956D01*
X99601284Y-115560294D01*
X99601539Y-115482385D01*
X99602183Y-115422375D01*
X99603387Y-115377648D01*
X99605324Y-115345585D01*
X99608164Y-115323571D01*
X99612079Y-115308987D01*
X99617242Y-115299218D01*
X99623822Y-115291645D01*
X99653006Y-115272623D01*
X99686137Y-115273463D01*
G36*
X99686137Y-115273463D02*
G01*
X99720291Y-115296776D01*
X99748000Y-115324485D01*
X99748000Y-115637537D01*
X99747959Y-115721567D01*
X99747701Y-115795789D01*
X99747030Y-115852541D01*
X99745752Y-115894512D01*
X99743673Y-115924389D01*
X99740599Y-115944861D01*
X99736334Y-115958614D01*
X99730684Y-115968337D01*
X99723455Y-115976717D01*
X99691991Y-115998181D01*
X99656826Y-115999947D01*
X99623822Y-115980267D01*
X99618516Y-115974398D01*
X99613066Y-115965314D01*
X99608900Y-115951973D01*
X99605846Y-115931757D01*
X99603732Y-115902049D01*
X99602386Y-115860232D01*
X99601638Y-115803689D01*
X99601314Y-115729802D01*
X99601245Y-115635956D01*
X99601284Y-115560294D01*
X99601539Y-115482385D01*
X99602183Y-115422375D01*
X99603387Y-115377648D01*
X99605324Y-115345585D01*
X99608164Y-115323571D01*
X99612079Y-115308987D01*
X99617242Y-115299218D01*
X99623822Y-115291645D01*
X99653006Y-115272623D01*
X99686137Y-115273463D01*
G37*
X99154562Y-110032850D02*
X99237313Y-110060053D01*
X99312406Y-110105484D01*
X99384298Y-110171302D01*
X99422846Y-110215567D01*
X99462256Y-110273961D01*
X99487446Y-110334586D01*
X99500861Y-110403865D01*
X99504948Y-110488222D01*
X99504669Y-110534307D01*
X99502460Y-110575450D01*
X99496894Y-110607582D01*
X99486586Y-110638122D01*
X99470148Y-110674489D01*
X99456200Y-110701728D01*
X99397665Y-110787429D01*
X99325619Y-110856617D01*
X99241947Y-110907741D01*
X99148531Y-110939250D01*
X99115434Y-110946225D01*
X99074960Y-110953094D01*
X99041999Y-110954919D01*
X99007698Y-110951947D01*
X98963200Y-110944426D01*
X98911934Y-110932002D01*
X98821434Y-110894112D01*
X98742345Y-110839836D01*
X98676528Y-110771770D01*
X98625840Y-110692511D01*
X98592140Y-110604654D01*
X98577286Y-110510795D01*
X98583136Y-110413530D01*
X98609399Y-110317220D01*
X98654418Y-110228494D01*
X98715373Y-110153419D01*
X98790184Y-110093641D01*
X98876768Y-110050809D01*
X98973043Y-110026571D01*
X99076928Y-110022576D01*
X99154562Y-110032850D01*
G36*
X99154562Y-110032850D02*
G01*
X99237313Y-110060053D01*
X99312406Y-110105484D01*
X99384298Y-110171302D01*
X99422846Y-110215567D01*
X99462256Y-110273961D01*
X99487446Y-110334586D01*
X99500861Y-110403865D01*
X99504948Y-110488222D01*
X99504669Y-110534307D01*
X99502460Y-110575450D01*
X99496894Y-110607582D01*
X99486586Y-110638122D01*
X99470148Y-110674489D01*
X99456200Y-110701728D01*
X99397665Y-110787429D01*
X99325619Y-110856617D01*
X99241947Y-110907741D01*
X99148531Y-110939250D01*
X99115434Y-110946225D01*
X99074960Y-110953094D01*
X99041999Y-110954919D01*
X99007698Y-110951947D01*
X98963200Y-110944426D01*
X98911934Y-110932002D01*
X98821434Y-110894112D01*
X98742345Y-110839836D01*
X98676528Y-110771770D01*
X98625840Y-110692511D01*
X98592140Y-110604654D01*
X98577286Y-110510795D01*
X98583136Y-110413530D01*
X98609399Y-110317220D01*
X98654418Y-110228494D01*
X98715373Y-110153419D01*
X98790184Y-110093641D01*
X98876768Y-110050809D01*
X98973043Y-110026571D01*
X99076928Y-110022576D01*
X99154562Y-110032850D01*
G37*
X91855767Y-115269068D02*
X91949890Y-115269158D01*
X92024405Y-115269498D01*
X92081811Y-115270239D01*
X92124611Y-115271535D01*
X92155304Y-115273537D01*
X92176391Y-115276396D01*
X92190373Y-115280266D01*
X92199750Y-115285298D01*
X92207022Y-115291645D01*
X92225828Y-115324362D01*
X92227275Y-115361939D01*
X92210917Y-115395178D01*
X92209557Y-115396631D01*
X92198354Y-115404992D01*
X92181252Y-115410547D01*
X92154082Y-115413840D01*
X92112678Y-115415418D01*
X92052873Y-115415822D01*
X91913511Y-115415822D01*
X91913511Y-115679589D01*
X91913436Y-115755417D01*
X91913028Y-115822083D01*
X91912046Y-115871867D01*
X91910250Y-115907784D01*
X91907399Y-115932850D01*
X91903253Y-115950081D01*
X91897571Y-115962492D01*
X91890114Y-115973100D01*
X91887824Y-115975906D01*
X91856646Y-115998548D01*
X91822266Y-116000112D01*
X91789334Y-115980267D01*
X91782355Y-115972191D01*
X91776883Y-115961593D01*
X91772863Y-115945749D01*
X91770072Y-115921773D01*
X91768288Y-115886774D01*
X91767289Y-115837864D01*
X91766852Y-115772154D01*
X91766756Y-115686756D01*
X91766756Y-115415822D01*
X91620820Y-115415822D01*
X91609720Y-115415821D01*
X91553202Y-115415596D01*
X91514358Y-115414457D01*
X91488965Y-115411657D01*
X91472804Y-115406450D01*
X91461652Y-115398089D01*
X91451289Y-115385826D01*
X91435441Y-115355138D01*
X91438543Y-115321358D01*
X91464187Y-115288822D01*
X91469129Y-115285105D01*
X91479338Y-115280269D01*
X91494764Y-115276506D01*
X91517886Y-115273683D01*
X91551183Y-115271670D01*
X91597137Y-115270333D01*
X91658228Y-115269542D01*
X91736935Y-115269163D01*
X91835740Y-115269067D01*
X91855767Y-115269068D01*
G36*
X91855767Y-115269068D02*
G01*
X91949890Y-115269158D01*
X92024405Y-115269498D01*
X92081811Y-115270239D01*
X92124611Y-115271535D01*
X92155304Y-115273537D01*
X92176391Y-115276396D01*
X92190373Y-115280266D01*
X92199750Y-115285298D01*
X92207022Y-115291645D01*
X92225828Y-115324362D01*
X92227275Y-115361939D01*
X92210917Y-115395178D01*
X92209557Y-115396631D01*
X92198354Y-115404992D01*
X92181252Y-115410547D01*
X92154082Y-115413840D01*
X92112678Y-115415418D01*
X92052873Y-115415822D01*
X91913511Y-115415822D01*
X91913511Y-115679589D01*
X91913436Y-115755417D01*
X91913028Y-115822083D01*
X91912046Y-115871867D01*
X91910250Y-115907784D01*
X91907399Y-115932850D01*
X91903253Y-115950081D01*
X91897571Y-115962492D01*
X91890114Y-115973100D01*
X91887824Y-115975906D01*
X91856646Y-115998548D01*
X91822266Y-116000112D01*
X91789334Y-115980267D01*
X91782355Y-115972191D01*
X91776883Y-115961593D01*
X91772863Y-115945749D01*
X91770072Y-115921773D01*
X91768288Y-115886774D01*
X91767289Y-115837864D01*
X91766852Y-115772154D01*
X91766756Y-115686756D01*
X91766756Y-115415822D01*
X91620820Y-115415822D01*
X91609720Y-115415821D01*
X91553202Y-115415596D01*
X91514358Y-115414457D01*
X91488965Y-115411657D01*
X91472804Y-115406450D01*
X91461652Y-115398089D01*
X91451289Y-115385826D01*
X91435441Y-115355138D01*
X91438543Y-115321358D01*
X91464187Y-115288822D01*
X91469129Y-115285105D01*
X91479338Y-115280269D01*
X91494764Y-115276506D01*
X91517886Y-115273683D01*
X91551183Y-115271670D01*
X91597137Y-115270333D01*
X91658228Y-115269542D01*
X91736935Y-115269163D01*
X91835740Y-115269067D01*
X91855767Y-115269068D01*
G37*
X91179734Y-115291645D02*
X91185366Y-115297835D01*
X91190456Y-115306041D01*
X91194543Y-115317817D01*
X91197721Y-115335276D01*
X91200087Y-115360530D01*
X91201738Y-115395690D01*
X91202769Y-115442869D01*
X91203277Y-115504177D01*
X91203359Y-115581727D01*
X91203109Y-115677631D01*
X91202625Y-115794000D01*
X91202557Y-115808175D01*
X91201971Y-115869937D01*
X91200648Y-115913620D01*
X91198103Y-115943001D01*
X91193848Y-115961855D01*
X91187396Y-115973959D01*
X91178262Y-115983089D01*
X91144804Y-116000506D01*
X91109856Y-115997604D01*
X91078953Y-115973100D01*
X91069944Y-115959897D01*
X91062492Y-115941361D01*
X91058124Y-115915333D01*
X91056069Y-115876787D01*
X91055556Y-115820700D01*
X91055556Y-115698045D01*
X90558845Y-115698045D01*
X90558845Y-115832871D01*
X90558772Y-115868662D01*
X90558009Y-115914992D01*
X90555833Y-115945526D01*
X90551536Y-115964557D01*
X90544412Y-115976374D01*
X90533755Y-115985271D01*
X90501504Y-116000341D01*
X90466217Y-115997673D01*
X90435486Y-115973100D01*
X90430831Y-115966845D01*
X90424895Y-115956321D01*
X90420364Y-115942391D01*
X90417048Y-115922317D01*
X90414759Y-115893360D01*
X90413308Y-115852780D01*
X90412505Y-115797840D01*
X90412162Y-115725799D01*
X90412089Y-115633920D01*
X90412089Y-115324485D01*
X90439798Y-115296776D01*
X90471177Y-115274533D01*
X90504406Y-115271844D01*
X90536267Y-115291645D01*
X90544553Y-115301415D01*
X90551965Y-115317307D01*
X90556302Y-115341275D01*
X90558338Y-115378148D01*
X90558845Y-115432756D01*
X90558845Y-115551289D01*
X91055556Y-115551289D01*
X91055556Y-115435776D01*
X91055994Y-115384078D01*
X91057958Y-115349554D01*
X91062474Y-115326978D01*
X91070567Y-115311126D01*
X91083265Y-115296776D01*
X91114643Y-115274533D01*
X91147872Y-115271844D01*
X91179734Y-115291645D01*
G36*
X91179734Y-115291645D02*
G01*
X91185366Y-115297835D01*
X91190456Y-115306041D01*
X91194543Y-115317817D01*
X91197721Y-115335276D01*
X91200087Y-115360530D01*
X91201738Y-115395690D01*
X91202769Y-115442869D01*
X91203277Y-115504177D01*
X91203359Y-115581727D01*
X91203109Y-115677631D01*
X91202625Y-115794000D01*
X91202557Y-115808175D01*
X91201971Y-115869937D01*
X91200648Y-115913620D01*
X91198103Y-115943001D01*
X91193848Y-115961855D01*
X91187396Y-115973959D01*
X91178262Y-115983089D01*
X91144804Y-116000506D01*
X91109856Y-115997604D01*
X91078953Y-115973100D01*
X91069944Y-115959897D01*
X91062492Y-115941361D01*
X91058124Y-115915333D01*
X91056069Y-115876787D01*
X91055556Y-115820700D01*
X91055556Y-115698045D01*
X90558845Y-115698045D01*
X90558845Y-115832871D01*
X90558772Y-115868662D01*
X90558009Y-115914992D01*
X90555833Y-115945526D01*
X90551536Y-115964557D01*
X90544412Y-115976374D01*
X90533755Y-115985271D01*
X90501504Y-116000341D01*
X90466217Y-115997673D01*
X90435486Y-115973100D01*
X90430831Y-115966845D01*
X90424895Y-115956321D01*
X90420364Y-115942391D01*
X90417048Y-115922317D01*
X90414759Y-115893360D01*
X90413308Y-115852780D01*
X90412505Y-115797840D01*
X90412162Y-115725799D01*
X90412089Y-115633920D01*
X90412089Y-115324485D01*
X90439798Y-115296776D01*
X90471177Y-115274533D01*
X90504406Y-115271844D01*
X90536267Y-115291645D01*
X90544553Y-115301415D01*
X90551965Y-115317307D01*
X90556302Y-115341275D01*
X90558338Y-115378148D01*
X90558845Y-115432756D01*
X90558845Y-115551289D01*
X91055556Y-115551289D01*
X91055556Y-115435776D01*
X91055994Y-115384078D01*
X91057958Y-115349554D01*
X91062474Y-115326978D01*
X91070567Y-115311126D01*
X91083265Y-115296776D01*
X91114643Y-115274533D01*
X91147872Y-115271844D01*
X91179734Y-115291645D01*
G37*
X95885133Y-115880396D02*
X95883163Y-115913175D01*
X95880235Y-115936095D01*
X95876158Y-115951897D01*
X95870743Y-115963319D01*
X95863803Y-115973100D01*
X95840406Y-116002845D01*
X95674714Y-116002251D01*
X95639918Y-116001953D01*
X95541435Y-115998522D01*
X95460473Y-115990839D01*
X95393379Y-115978282D01*
X95336496Y-115960227D01*
X95286169Y-115936052D01*
X95282810Y-115934135D01*
X95224998Y-115897417D01*
X95182644Y-115860451D01*
X95149828Y-115816966D01*
X95120628Y-115760689D01*
X95116346Y-115751073D01*
X95093769Y-115687887D01*
X95088034Y-115642333D01*
X95237279Y-115642333D01*
X95242892Y-115667061D01*
X95248618Y-115682939D01*
X95281548Y-115742847D01*
X95328886Y-115788600D01*
X95392652Y-115821736D01*
X95474861Y-115843790D01*
X95477655Y-115844292D01*
X95523940Y-115850255D01*
X95580336Y-115854483D01*
X95635274Y-115856089D01*
X95729156Y-115856089D01*
X95729156Y-115415822D01*
X95641667Y-115416270D01*
X95574747Y-115418746D01*
X95482349Y-115429998D01*
X95403034Y-115449537D01*
X95341060Y-115476511D01*
X95310120Y-115497240D01*
X95282000Y-115527006D01*
X95258660Y-115569434D01*
X95251533Y-115585400D01*
X95239709Y-115617902D01*
X95237279Y-115642333D01*
X95088034Y-115642333D01*
X95086797Y-115632509D01*
X95095399Y-115577483D01*
X95119541Y-115515351D01*
X95120337Y-115513658D01*
X95160788Y-115444236D01*
X95211473Y-115387638D01*
X95274198Y-115343070D01*
X95350774Y-115309741D01*
X95443009Y-115286861D01*
X95552712Y-115273636D01*
X95681691Y-115269275D01*
X95685263Y-115269270D01*
X95745283Y-115269410D01*
X95787214Y-115270446D01*
X95815328Y-115273040D01*
X95833897Y-115277853D01*
X95847194Y-115285544D01*
X95859491Y-115296776D01*
X95887200Y-115324485D01*
X95887200Y-115633920D01*
X95887175Y-115695526D01*
X95886950Y-115774311D01*
X95886332Y-115835021D01*
X95885775Y-115856089D01*
X95885133Y-115880396D01*
G36*
X95885133Y-115880396D02*
G01*
X95883163Y-115913175D01*
X95880235Y-115936095D01*
X95876158Y-115951897D01*
X95870743Y-115963319D01*
X95863803Y-115973100D01*
X95840406Y-116002845D01*
X95674714Y-116002251D01*
X95639918Y-116001953D01*
X95541435Y-115998522D01*
X95460473Y-115990839D01*
X95393379Y-115978282D01*
X95336496Y-115960227D01*
X95286169Y-115936052D01*
X95282810Y-115934135D01*
X95224998Y-115897417D01*
X95182644Y-115860451D01*
X95149828Y-115816966D01*
X95120628Y-115760689D01*
X95116346Y-115751073D01*
X95093769Y-115687887D01*
X95088034Y-115642333D01*
X95237279Y-115642333D01*
X95242892Y-115667061D01*
X95248618Y-115682939D01*
X95281548Y-115742847D01*
X95328886Y-115788600D01*
X95392652Y-115821736D01*
X95474861Y-115843790D01*
X95477655Y-115844292D01*
X95523940Y-115850255D01*
X95580336Y-115854483D01*
X95635274Y-115856089D01*
X95729156Y-115856089D01*
X95729156Y-115415822D01*
X95641667Y-115416270D01*
X95574747Y-115418746D01*
X95482349Y-115429998D01*
X95403034Y-115449537D01*
X95341060Y-115476511D01*
X95310120Y-115497240D01*
X95282000Y-115527006D01*
X95258660Y-115569434D01*
X95251533Y-115585400D01*
X95239709Y-115617902D01*
X95237279Y-115642333D01*
X95088034Y-115642333D01*
X95086797Y-115632509D01*
X95095399Y-115577483D01*
X95119541Y-115515351D01*
X95120337Y-115513658D01*
X95160788Y-115444236D01*
X95211473Y-115387638D01*
X95274198Y-115343070D01*
X95350774Y-115309741D01*
X95443009Y-115286861D01*
X95552712Y-115273636D01*
X95681691Y-115269275D01*
X95685263Y-115269270D01*
X95745283Y-115269410D01*
X95787214Y-115270446D01*
X95815328Y-115273040D01*
X95833897Y-115277853D01*
X95847194Y-115285544D01*
X95859491Y-115296776D01*
X95887200Y-115324485D01*
X95887200Y-115633920D01*
X95887175Y-115695526D01*
X95886950Y-115774311D01*
X95886332Y-115835021D01*
X95885775Y-115856089D01*
X95885133Y-115880396D01*
G37*
X102976817Y-115454427D02*
X102976870Y-115535041D01*
X102976622Y-115635956D01*
X102976583Y-115711617D01*
X102976328Y-115789526D01*
X102975684Y-115849536D01*
X102974480Y-115894264D01*
X102972543Y-115926326D01*
X102969703Y-115948340D01*
X102965788Y-115962924D01*
X102960626Y-115972694D01*
X102954045Y-115980267D01*
X102947077Y-115986501D01*
X102934079Y-115993801D01*
X102914931Y-115998554D01*
X102885528Y-116001292D01*
X102841762Y-116002545D01*
X102779528Y-116002845D01*
X102730582Y-116002469D01*
X102623722Y-115998041D01*
X102534494Y-115987953D01*
X102459696Y-115971365D01*
X102396125Y-115947435D01*
X102340579Y-115915321D01*
X102289854Y-115874182D01*
X102283866Y-115868330D01*
X102246999Y-115819821D01*
X102215899Y-115759013D01*
X102194417Y-115694769D01*
X102189136Y-115656026D01*
X102336353Y-115656026D01*
X102354635Y-115706961D01*
X102384305Y-115752878D01*
X102431002Y-115795287D01*
X102492392Y-115825090D01*
X102571538Y-115844226D01*
X102573028Y-115844464D01*
X102621999Y-115850256D01*
X102680693Y-115854396D01*
X102736734Y-115856004D01*
X102829867Y-115856089D01*
X102829867Y-115415822D01*
X102753667Y-115415808D01*
X102750639Y-115415817D01*
X102699519Y-115417782D01*
X102639416Y-115422507D01*
X102582708Y-115429035D01*
X102532750Y-115438331D01*
X102457998Y-115464600D01*
X102400489Y-115503899D01*
X102358988Y-115556933D01*
X102337771Y-115608200D01*
X102336353Y-115656026D01*
X102189136Y-115656026D01*
X102186400Y-115635956D01*
X102187679Y-115614739D01*
X102199991Y-115557323D01*
X102222520Y-115497413D01*
X102251750Y-115443363D01*
X102284167Y-115403532D01*
X102303708Y-115386510D01*
X102358420Y-115347322D01*
X102418723Y-115317193D01*
X102487919Y-115295232D01*
X102569311Y-115280550D01*
X102666200Y-115272259D01*
X102781889Y-115269467D01*
X102821371Y-115269066D01*
X102867082Y-115268653D01*
X102902883Y-115270457D01*
X102929974Y-115276739D01*
X102949556Y-115289759D01*
X102962830Y-115311778D01*
X102970998Y-115345055D01*
X102975260Y-115391851D01*
X102975857Y-115415822D01*
X102976817Y-115454427D01*
G36*
X102976817Y-115454427D02*
G01*
X102976870Y-115535041D01*
X102976622Y-115635956D01*
X102976583Y-115711617D01*
X102976328Y-115789526D01*
X102975684Y-115849536D01*
X102974480Y-115894264D01*
X102972543Y-115926326D01*
X102969703Y-115948340D01*
X102965788Y-115962924D01*
X102960626Y-115972694D01*
X102954045Y-115980267D01*
X102947077Y-115986501D01*
X102934079Y-115993801D01*
X102914931Y-115998554D01*
X102885528Y-116001292D01*
X102841762Y-116002545D01*
X102779528Y-116002845D01*
X102730582Y-116002469D01*
X102623722Y-115998041D01*
X102534494Y-115987953D01*
X102459696Y-115971365D01*
X102396125Y-115947435D01*
X102340579Y-115915321D01*
X102289854Y-115874182D01*
X102283866Y-115868330D01*
X102246999Y-115819821D01*
X102215899Y-115759013D01*
X102194417Y-115694769D01*
X102189136Y-115656026D01*
X102336353Y-115656026D01*
X102354635Y-115706961D01*
X102384305Y-115752878D01*
X102431002Y-115795287D01*
X102492392Y-115825090D01*
X102571538Y-115844226D01*
X102573028Y-115844464D01*
X102621999Y-115850256D01*
X102680693Y-115854396D01*
X102736734Y-115856004D01*
X102829867Y-115856089D01*
X102829867Y-115415822D01*
X102753667Y-115415808D01*
X102750639Y-115415817D01*
X102699519Y-115417782D01*
X102639416Y-115422507D01*
X102582708Y-115429035D01*
X102532750Y-115438331D01*
X102457998Y-115464600D01*
X102400489Y-115503899D01*
X102358988Y-115556933D01*
X102337771Y-115608200D01*
X102336353Y-115656026D01*
X102189136Y-115656026D01*
X102186400Y-115635956D01*
X102187679Y-115614739D01*
X102199991Y-115557323D01*
X102222520Y-115497413D01*
X102251750Y-115443363D01*
X102284167Y-115403532D01*
X102303708Y-115386510D01*
X102358420Y-115347322D01*
X102418723Y-115317193D01*
X102487919Y-115295232D01*
X102569311Y-115280550D01*
X102666200Y-115272259D01*
X102781889Y-115269467D01*
X102821371Y-115269066D01*
X102867082Y-115268653D01*
X102902883Y-115270457D01*
X102929974Y-115276739D01*
X102949556Y-115289759D01*
X102962830Y-115311778D01*
X102970998Y-115345055D01*
X102975260Y-115391851D01*
X102975857Y-115415822D01*
X102976817Y-115454427D01*
G37*
X98031893Y-115267892D02*
X98043301Y-115274029D01*
X98053850Y-115284691D01*
X98065136Y-115298811D01*
X98069589Y-115304772D01*
X98075588Y-115315268D01*
X98080167Y-115329093D01*
X98083519Y-115348998D01*
X98085833Y-115377732D01*
X98087301Y-115418045D01*
X98088113Y-115472687D01*
X98088460Y-115544407D01*
X98088534Y-115635956D01*
X98088511Y-115694486D01*
X98088292Y-115773573D01*
X98087683Y-115834516D01*
X98086492Y-115880062D01*
X98084529Y-115912963D01*
X98081603Y-115935968D01*
X98077523Y-115951826D01*
X98072097Y-115963286D01*
X98065136Y-115973100D01*
X98034708Y-115997493D01*
X97999765Y-116000372D01*
X97962784Y-115981282D01*
X97958600Y-115977807D01*
X97950424Y-115969279D01*
X97944364Y-115957728D01*
X97939981Y-115939896D01*
X97936839Y-115912524D01*
X97934502Y-115872354D01*
X97932531Y-115816128D01*
X97930489Y-115740589D01*
X97924845Y-115521458D01*
X97659556Y-115762099D01*
X97585722Y-115828875D01*
X97520542Y-115886991D01*
X97468348Y-115931949D01*
X97427273Y-115964871D01*
X97395455Y-115986879D01*
X97371026Y-115999094D01*
X97352124Y-116002639D01*
X97336883Y-115998636D01*
X97323439Y-115988207D01*
X97309927Y-115972474D01*
X97303682Y-115963991D01*
X97298050Y-115953413D01*
X97293839Y-115939255D01*
X97290887Y-115918803D01*
X97289032Y-115889342D01*
X97288113Y-115848161D01*
X97287968Y-115792544D01*
X97288435Y-115719779D01*
X97289352Y-115627151D01*
X97292667Y-115312199D01*
X97319318Y-115290633D01*
X97345383Y-115274441D01*
X97378241Y-115271670D01*
X97412772Y-115290623D01*
X97417084Y-115294208D01*
X97425216Y-115302737D01*
X97431245Y-115314329D01*
X97435606Y-115332235D01*
X97438734Y-115359706D01*
X97441063Y-115399994D01*
X97443029Y-115456351D01*
X97445067Y-115532029D01*
X97450711Y-115751878D01*
X97631334Y-115588084D01*
X97718072Y-115509451D01*
X97793843Y-115441058D01*
X97855980Y-115385708D01*
X97906078Y-115342338D01*
X97945735Y-115309881D01*
X97976548Y-115287273D01*
X98000114Y-115273448D01*
X98018030Y-115267343D01*
X98031893Y-115267892D01*
G36*
X98031893Y-115267892D02*
G01*
X98043301Y-115274029D01*
X98053850Y-115284691D01*
X98065136Y-115298811D01*
X98069589Y-115304772D01*
X98075588Y-115315268D01*
X98080167Y-115329093D01*
X98083519Y-115348998D01*
X98085833Y-115377732D01*
X98087301Y-115418045D01*
X98088113Y-115472687D01*
X98088460Y-115544407D01*
X98088534Y-115635956D01*
X98088511Y-115694486D01*
X98088292Y-115773573D01*
X98087683Y-115834516D01*
X98086492Y-115880062D01*
X98084529Y-115912963D01*
X98081603Y-115935968D01*
X98077523Y-115951826D01*
X98072097Y-115963286D01*
X98065136Y-115973100D01*
X98034708Y-115997493D01*
X97999765Y-116000372D01*
X97962784Y-115981282D01*
X97958600Y-115977807D01*
X97950424Y-115969279D01*
X97944364Y-115957728D01*
X97939981Y-115939896D01*
X97936839Y-115912524D01*
X97934502Y-115872354D01*
X97932531Y-115816128D01*
X97930489Y-115740589D01*
X97924845Y-115521458D01*
X97659556Y-115762099D01*
X97585722Y-115828875D01*
X97520542Y-115886991D01*
X97468348Y-115931949D01*
X97427273Y-115964871D01*
X97395455Y-115986879D01*
X97371026Y-115999094D01*
X97352124Y-116002639D01*
X97336883Y-115998636D01*
X97323439Y-115988207D01*
X97309927Y-115972474D01*
X97303682Y-115963991D01*
X97298050Y-115953413D01*
X97293839Y-115939255D01*
X97290887Y-115918803D01*
X97289032Y-115889342D01*
X97288113Y-115848161D01*
X97287968Y-115792544D01*
X97288435Y-115719779D01*
X97289352Y-115627151D01*
X97292667Y-115312199D01*
X97319318Y-115290633D01*
X97345383Y-115274441D01*
X97378241Y-115271670D01*
X97412772Y-115290623D01*
X97417084Y-115294208D01*
X97425216Y-115302737D01*
X97431245Y-115314329D01*
X97435606Y-115332235D01*
X97438734Y-115359706D01*
X97441063Y-115399994D01*
X97443029Y-115456351D01*
X97445067Y-115532029D01*
X97450711Y-115751878D01*
X97631334Y-115588084D01*
X97718072Y-115509451D01*
X97793843Y-115441058D01*
X97855980Y-115385708D01*
X97906078Y-115342338D01*
X97945735Y-115309881D01*
X97976548Y-115287273D01*
X98000114Y-115273448D01*
X98018030Y-115267343D01*
X98031893Y-115267892D01*
G37*
X98829150Y-115274179D02*
X98935157Y-115290494D01*
X99028969Y-115318545D01*
X99107765Y-115357452D01*
X99168719Y-115406334D01*
X99194789Y-115439195D01*
X99224297Y-115488394D01*
X99249568Y-115542252D01*
X99267218Y-115593419D01*
X99273858Y-115634544D01*
X99272298Y-115654259D01*
X99259357Y-115705592D01*
X99236194Y-115762118D01*
X99206302Y-115816035D01*
X99173173Y-115859539D01*
X99162977Y-115869887D01*
X99095892Y-115921662D01*
X99015766Y-115961554D01*
X98929556Y-115985956D01*
X98874592Y-115994068D01*
X98781139Y-116000673D01*
X98691358Y-115998586D01*
X98608869Y-115988340D01*
X98537286Y-115970470D01*
X98480228Y-115945508D01*
X98441311Y-115913988D01*
X98439936Y-115912012D01*
X98432848Y-115886786D01*
X98428609Y-115839535D01*
X98427200Y-115770071D01*
X98428060Y-115707838D01*
X98432780Y-115660456D01*
X98444470Y-115628353D01*
X98466239Y-115608800D01*
X98501198Y-115599070D01*
X98552456Y-115596433D01*
X98623123Y-115598161D01*
X98671743Y-115601173D01*
X98721939Y-115609366D01*
X98754433Y-115623419D01*
X98771892Y-115644654D01*
X98776983Y-115674394D01*
X98776877Y-115678936D01*
X98768175Y-115713730D01*
X98744165Y-115737147D01*
X98702900Y-115750347D01*
X98642431Y-115754489D01*
X98573956Y-115754489D01*
X98573956Y-115792841D01*
X98574006Y-115801976D01*
X98576227Y-115819227D01*
X98585494Y-115829521D01*
X98606875Y-115836459D01*
X98645436Y-115843641D01*
X98650910Y-115844575D01*
X98747860Y-115854478D01*
X98837852Y-115851559D01*
X98918760Y-115836829D01*
X98988459Y-115811299D01*
X99044824Y-115775978D01*
X99085729Y-115731879D01*
X99109051Y-115680012D01*
X99112663Y-115621388D01*
X99107145Y-115592494D01*
X99080461Y-115536604D01*
X99034273Y-115490945D01*
X98969291Y-115456108D01*
X98886229Y-115432690D01*
X98861555Y-115428241D01*
X98772226Y-115417742D01*
X98692419Y-115418971D01*
X98614326Y-115431906D01*
X98579183Y-115438696D01*
X98533745Y-115439713D01*
X98502430Y-115427182D01*
X98482277Y-115400395D01*
X98475893Y-115372148D01*
X98485379Y-115340924D01*
X98494708Y-115327499D01*
X98528943Y-115303967D01*
X98581565Y-115286095D01*
X98650081Y-115274599D01*
X98732000Y-115270192D01*
X98829150Y-115274179D01*
G36*
X98829150Y-115274179D02*
G01*
X98935157Y-115290494D01*
X99028969Y-115318545D01*
X99107765Y-115357452D01*
X99168719Y-115406334D01*
X99194789Y-115439195D01*
X99224297Y-115488394D01*
X99249568Y-115542252D01*
X99267218Y-115593419D01*
X99273858Y-115634544D01*
X99272298Y-115654259D01*
X99259357Y-115705592D01*
X99236194Y-115762118D01*
X99206302Y-115816035D01*
X99173173Y-115859539D01*
X99162977Y-115869887D01*
X99095892Y-115921662D01*
X99015766Y-115961554D01*
X98929556Y-115985956D01*
X98874592Y-115994068D01*
X98781139Y-116000673D01*
X98691358Y-115998586D01*
X98608869Y-115988340D01*
X98537286Y-115970470D01*
X98480228Y-115945508D01*
X98441311Y-115913988D01*
X98439936Y-115912012D01*
X98432848Y-115886786D01*
X98428609Y-115839535D01*
X98427200Y-115770071D01*
X98428060Y-115707838D01*
X98432780Y-115660456D01*
X98444470Y-115628353D01*
X98466239Y-115608800D01*
X98501198Y-115599070D01*
X98552456Y-115596433D01*
X98623123Y-115598161D01*
X98671743Y-115601173D01*
X98721939Y-115609366D01*
X98754433Y-115623419D01*
X98771892Y-115644654D01*
X98776983Y-115674394D01*
X98776877Y-115678936D01*
X98768175Y-115713730D01*
X98744165Y-115737147D01*
X98702900Y-115750347D01*
X98642431Y-115754489D01*
X98573956Y-115754489D01*
X98573956Y-115792841D01*
X98574006Y-115801976D01*
X98576227Y-115819227D01*
X98585494Y-115829521D01*
X98606875Y-115836459D01*
X98645436Y-115843641D01*
X98650910Y-115844575D01*
X98747860Y-115854478D01*
X98837852Y-115851559D01*
X98918760Y-115836829D01*
X98988459Y-115811299D01*
X99044824Y-115775978D01*
X99085729Y-115731879D01*
X99109051Y-115680012D01*
X99112663Y-115621388D01*
X99107145Y-115592494D01*
X99080461Y-115536604D01*
X99034273Y-115490945D01*
X98969291Y-115456108D01*
X98886229Y-115432690D01*
X98861555Y-115428241D01*
X98772226Y-115417742D01*
X98692419Y-115418971D01*
X98614326Y-115431906D01*
X98579183Y-115438696D01*
X98533745Y-115439713D01*
X98502430Y-115427182D01*
X98482277Y-115400395D01*
X98475893Y-115372148D01*
X98485379Y-115340924D01*
X98494708Y-115327499D01*
X98528943Y-115303967D01*
X98581565Y-115286095D01*
X98650081Y-115274599D01*
X98732000Y-115270192D01*
X98829150Y-115274179D01*
G37*
X96879803Y-115298811D02*
X96884752Y-115305495D01*
X96890596Y-115316066D01*
X96895057Y-115330153D01*
X96898321Y-115350478D01*
X96900574Y-115379765D01*
X96902002Y-115420737D01*
X96902792Y-115476117D01*
X96903129Y-115548628D01*
X96903200Y-115640994D01*
X96903171Y-115706911D01*
X96902939Y-115785228D01*
X96902319Y-115845496D01*
X96901126Y-115890393D01*
X96899179Y-115922602D01*
X96896294Y-115944800D01*
X96892288Y-115959669D01*
X96886979Y-115969889D01*
X96880183Y-115978138D01*
X96875668Y-115982795D01*
X96867438Y-115989282D01*
X96856078Y-115994194D01*
X96838810Y-115997749D01*
X96812855Y-116000167D01*
X96775436Y-116001667D01*
X96723773Y-116002467D01*
X96655089Y-116002787D01*
X96566606Y-116002845D01*
X96546931Y-116002838D01*
X96459906Y-116002572D01*
X96392254Y-116001806D01*
X96341299Y-116000392D01*
X96304367Y-115998180D01*
X96278783Y-115995022D01*
X96261871Y-115990769D01*
X96250957Y-115985271D01*
X96240464Y-115975285D01*
X96227203Y-115944168D01*
X96228386Y-115908280D01*
X96244550Y-115876733D01*
X96246739Y-115874457D01*
X96255427Y-115868189D01*
X96268769Y-115863523D01*
X96289752Y-115860227D01*
X96321363Y-115858068D01*
X96366590Y-115856814D01*
X96428420Y-115856231D01*
X96509839Y-115856089D01*
X96756445Y-115856089D01*
X96756445Y-115698045D01*
X96594006Y-115698045D01*
X96558338Y-115697964D01*
X96502568Y-115697167D01*
X96463430Y-115695162D01*
X96436976Y-115691521D01*
X96419259Y-115685812D01*
X96406329Y-115677607D01*
X96402686Y-115674423D01*
X96384278Y-115643448D01*
X96383644Y-115607112D01*
X96401183Y-115573493D01*
X96401245Y-115573424D01*
X96410916Y-115564798D01*
X96424209Y-115558742D01*
X96444917Y-115554811D01*
X96476828Y-115552556D01*
X96523734Y-115551531D01*
X96589424Y-115551289D01*
X96757571Y-115551289D01*
X96754186Y-115486378D01*
X96750800Y-115421467D01*
X96508723Y-115418414D01*
X96483707Y-115418086D01*
X96402087Y-115416606D01*
X96339768Y-115414222D01*
X96294154Y-115410227D01*
X96262652Y-115403913D01*
X96242667Y-115394574D01*
X96231604Y-115381503D01*
X96226869Y-115363992D01*
X96225867Y-115341335D01*
X96225873Y-115338970D01*
X96227027Y-115318939D01*
X96231824Y-115303146D01*
X96242632Y-115291090D01*
X96261817Y-115282267D01*
X96291745Y-115276175D01*
X96334783Y-115272311D01*
X96393299Y-115270174D01*
X96469657Y-115269260D01*
X96566226Y-115269067D01*
X96856406Y-115269067D01*
X96879803Y-115298811D01*
G36*
X96879803Y-115298811D02*
G01*
X96884752Y-115305495D01*
X96890596Y-115316066D01*
X96895057Y-115330153D01*
X96898321Y-115350478D01*
X96900574Y-115379765D01*
X96902002Y-115420737D01*
X96902792Y-115476117D01*
X96903129Y-115548628D01*
X96903200Y-115640994D01*
X96903171Y-115706911D01*
X96902939Y-115785228D01*
X96902319Y-115845496D01*
X96901126Y-115890393D01*
X96899179Y-115922602D01*
X96896294Y-115944800D01*
X96892288Y-115959669D01*
X96886979Y-115969889D01*
X96880183Y-115978138D01*
X96875668Y-115982795D01*
X96867438Y-115989282D01*
X96856078Y-115994194D01*
X96838810Y-115997749D01*
X96812855Y-116000167D01*
X96775436Y-116001667D01*
X96723773Y-116002467D01*
X96655089Y-116002787D01*
X96566606Y-116002845D01*
X96546931Y-116002838D01*
X96459906Y-116002572D01*
X96392254Y-116001806D01*
X96341299Y-116000392D01*
X96304367Y-115998180D01*
X96278783Y-115995022D01*
X96261871Y-115990769D01*
X96250957Y-115985271D01*
X96240464Y-115975285D01*
X96227203Y-115944168D01*
X96228386Y-115908280D01*
X96244550Y-115876733D01*
X96246739Y-115874457D01*
X96255427Y-115868189D01*
X96268769Y-115863523D01*
X96289752Y-115860227D01*
X96321363Y-115858068D01*
X96366590Y-115856814D01*
X96428420Y-115856231D01*
X96509839Y-115856089D01*
X96756445Y-115856089D01*
X96756445Y-115698045D01*
X96594006Y-115698045D01*
X96558338Y-115697964D01*
X96502568Y-115697167D01*
X96463430Y-115695162D01*
X96436976Y-115691521D01*
X96419259Y-115685812D01*
X96406329Y-115677607D01*
X96402686Y-115674423D01*
X96384278Y-115643448D01*
X96383644Y-115607112D01*
X96401183Y-115573493D01*
X96401245Y-115573424D01*
X96410916Y-115564798D01*
X96424209Y-115558742D01*
X96444917Y-115554811D01*
X96476828Y-115552556D01*
X96523734Y-115551531D01*
X96589424Y-115551289D01*
X96757571Y-115551289D01*
X96754186Y-115486378D01*
X96750800Y-115421467D01*
X96508723Y-115418414D01*
X96483707Y-115418086D01*
X96402087Y-115416606D01*
X96339768Y-115414222D01*
X96294154Y-115410227D01*
X96262652Y-115403913D01*
X96242667Y-115394574D01*
X96231604Y-115381503D01*
X96226869Y-115363992D01*
X96225867Y-115341335D01*
X96225873Y-115338970D01*
X96227027Y-115318939D01*
X96231824Y-115303146D01*
X96242632Y-115291090D01*
X96261817Y-115282267D01*
X96291745Y-115276175D01*
X96334783Y-115272311D01*
X96393299Y-115270174D01*
X96469657Y-115269260D01*
X96566226Y-115269067D01*
X96856406Y-115269067D01*
X96879803Y-115298811D01*
G37*
X101556734Y-115269083D02*
X101633831Y-115269275D01*
X101692777Y-115269860D01*
X101736364Y-115271051D01*
X101767383Y-115273064D01*
X101788625Y-115276112D01*
X101802882Y-115280409D01*
X101812945Y-115286172D01*
X101821606Y-115293612D01*
X101823391Y-115295293D01*
X101830635Y-115302832D01*
X101836277Y-115311850D01*
X101840517Y-115324984D01*
X101843556Y-115344872D01*
X101845594Y-115374151D01*
X101846830Y-115415458D01*
X101847465Y-115471431D01*
X101847700Y-115544707D01*
X101847734Y-115637923D01*
X101847697Y-115710713D01*
X101847448Y-115788889D01*
X101846812Y-115849103D01*
X101845615Y-115893982D01*
X101843684Y-115926152D01*
X101840846Y-115948239D01*
X101836927Y-115962870D01*
X101831755Y-115972670D01*
X101825156Y-115980267D01*
X101821822Y-115983444D01*
X101813300Y-115989554D01*
X101801298Y-115994229D01*
X101783087Y-115997659D01*
X101755940Y-116000036D01*
X101717129Y-116001552D01*
X101663924Y-116002398D01*
X101593598Y-116002765D01*
X101503422Y-116002845D01*
X101461314Y-116002833D01*
X101380167Y-116002651D01*
X101317675Y-116002098D01*
X101271109Y-116000982D01*
X101237741Y-115999113D01*
X101214844Y-115996298D01*
X101199688Y-115992346D01*
X101189546Y-115987066D01*
X101181689Y-115980267D01*
X101166963Y-115958667D01*
X101159111Y-115929467D01*
X101164610Y-115905560D01*
X101181689Y-115878667D01*
X101186668Y-115874059D01*
X101196443Y-115867772D01*
X101210559Y-115863146D01*
X101232054Y-115859930D01*
X101263968Y-115857870D01*
X101309342Y-115856712D01*
X101371213Y-115856202D01*
X101452622Y-115856089D01*
X101700978Y-115856089D01*
X101700978Y-115698045D01*
X101539801Y-115698045D01*
X101503983Y-115697899D01*
X101438359Y-115696176D01*
X101391118Y-115691741D01*
X101359383Y-115683637D01*
X101340277Y-115670906D01*
X101330923Y-115652592D01*
X101328445Y-115627738D01*
X101329242Y-115607482D01*
X101334494Y-115585656D01*
X101347288Y-115570304D01*
X101370628Y-115560309D01*
X101407517Y-115554553D01*
X101460959Y-115551919D01*
X101533958Y-115551289D01*
X101702105Y-115551289D01*
X101698719Y-115486378D01*
X101695334Y-115421467D01*
X101447617Y-115418418D01*
X101385026Y-115417539D01*
X101316565Y-115416095D01*
X101265661Y-115414164D01*
X101229408Y-115411514D01*
X101204901Y-115407910D01*
X101189235Y-115403121D01*
X101179506Y-115396913D01*
X101173491Y-115390510D01*
X101160482Y-115358828D01*
X101164043Y-115323142D01*
X101183818Y-115292084D01*
X101187069Y-115289161D01*
X101196049Y-115282810D01*
X101208153Y-115277957D01*
X101226159Y-115274403D01*
X101252847Y-115271946D01*
X101290997Y-115270385D01*
X101343386Y-115269518D01*
X101412794Y-115269146D01*
X101502001Y-115269067D01*
X101556734Y-115269083D01*
G36*
X101556734Y-115269083D02*
G01*
X101633831Y-115269275D01*
X101692777Y-115269860D01*
X101736364Y-115271051D01*
X101767383Y-115273064D01*
X101788625Y-115276112D01*
X101802882Y-115280409D01*
X101812945Y-115286172D01*
X101821606Y-115293612D01*
X101823391Y-115295293D01*
X101830635Y-115302832D01*
X101836277Y-115311850D01*
X101840517Y-115324984D01*
X101843556Y-115344872D01*
X101845594Y-115374151D01*
X101846830Y-115415458D01*
X101847465Y-115471431D01*
X101847700Y-115544707D01*
X101847734Y-115637923D01*
X101847697Y-115710713D01*
X101847448Y-115788889D01*
X101846812Y-115849103D01*
X101845615Y-115893982D01*
X101843684Y-115926152D01*
X101840846Y-115948239D01*
X101836927Y-115962870D01*
X101831755Y-115972670D01*
X101825156Y-115980267D01*
X101821822Y-115983444D01*
X101813300Y-115989554D01*
X101801298Y-115994229D01*
X101783087Y-115997659D01*
X101755940Y-116000036D01*
X101717129Y-116001552D01*
X101663924Y-116002398D01*
X101593598Y-116002765D01*
X101503422Y-116002845D01*
X101461314Y-116002833D01*
X101380167Y-116002651D01*
X101317675Y-116002098D01*
X101271109Y-116000982D01*
X101237741Y-115999113D01*
X101214844Y-115996298D01*
X101199688Y-115992346D01*
X101189546Y-115987066D01*
X101181689Y-115980267D01*
X101166963Y-115958667D01*
X101159111Y-115929467D01*
X101164610Y-115905560D01*
X101181689Y-115878667D01*
X101186668Y-115874059D01*
X101196443Y-115867772D01*
X101210559Y-115863146D01*
X101232054Y-115859930D01*
X101263968Y-115857870D01*
X101309342Y-115856712D01*
X101371213Y-115856202D01*
X101452622Y-115856089D01*
X101700978Y-115856089D01*
X101700978Y-115698045D01*
X101539801Y-115698045D01*
X101503983Y-115697899D01*
X101438359Y-115696176D01*
X101391118Y-115691741D01*
X101359383Y-115683637D01*
X101340277Y-115670906D01*
X101330923Y-115652592D01*
X101328445Y-115627738D01*
X101329242Y-115607482D01*
X101334494Y-115585656D01*
X101347288Y-115570304D01*
X101370628Y-115560309D01*
X101407517Y-115554553D01*
X101460959Y-115551919D01*
X101533958Y-115551289D01*
X101702105Y-115551289D01*
X101698719Y-115486378D01*
X101695334Y-115421467D01*
X101447617Y-115418418D01*
X101385026Y-115417539D01*
X101316565Y-115416095D01*
X101265661Y-115414164D01*
X101229408Y-115411514D01*
X101204901Y-115407910D01*
X101189235Y-115403121D01*
X101179506Y-115396913D01*
X101173491Y-115390510D01*
X101160482Y-115358828D01*
X101164043Y-115323142D01*
X101183818Y-115292084D01*
X101187069Y-115289161D01*
X101196049Y-115282810D01*
X101208153Y-115277957D01*
X101226159Y-115274403D01*
X101252847Y-115271946D01*
X101290997Y-115270385D01*
X101343386Y-115269518D01*
X101412794Y-115269146D01*
X101502001Y-115269067D01*
X101556734Y-115269083D01*
G37*
X92989702Y-115278478D02*
X93007663Y-115296989D01*
X93028263Y-115328071D01*
X93053095Y-115373756D01*
X93083750Y-115436078D01*
X93121820Y-115517071D01*
X93136454Y-115548454D01*
X93166203Y-115611638D01*
X93192297Y-115666244D01*
X93213292Y-115709290D01*
X93227739Y-115737793D01*
X93234191Y-115748770D01*
X93235550Y-115748189D01*
X93245542Y-115734242D01*
X93262833Y-115704704D01*
X93285430Y-115663087D01*
X93311338Y-115612903D01*
X93327311Y-115581414D01*
X93356261Y-115526061D01*
X93378749Y-115487044D01*
X93396965Y-115461566D01*
X93413096Y-115446831D01*
X93429330Y-115440042D01*
X93447857Y-115438400D01*
X93458360Y-115438875D01*
X93474476Y-115443082D01*
X93489790Y-115453946D01*
X93506388Y-115474219D01*
X93526357Y-115506654D01*
X93551783Y-115554004D01*
X93584752Y-115619022D01*
X93594485Y-115638277D01*
X93618943Y-115684946D01*
X93639178Y-115721109D01*
X93653311Y-115743497D01*
X93659460Y-115748845D01*
X93660827Y-115745573D01*
X93670202Y-115724664D01*
X93687062Y-115687725D01*
X93709979Y-115637874D01*
X93737520Y-115578226D01*
X93768255Y-115511898D01*
X93794970Y-115454677D01*
X93824593Y-115392688D01*
X93847664Y-115346949D01*
X93865643Y-115314908D01*
X93879990Y-115294014D01*
X93892166Y-115281718D01*
X93903632Y-115275466D01*
X93913042Y-115272574D01*
X93938147Y-115272425D01*
X93965290Y-115287768D01*
X93966590Y-115288753D01*
X93988674Y-115311388D01*
X93999723Y-115333613D01*
X93999769Y-115334253D01*
X93995228Y-115351915D01*
X93982364Y-115386481D01*
X93962605Y-115434826D01*
X93937381Y-115493825D01*
X93908119Y-115560355D01*
X93876250Y-115631291D01*
X93843201Y-115703507D01*
X93810401Y-115773880D01*
X93779280Y-115839285D01*
X93751265Y-115896597D01*
X93727786Y-115942692D01*
X93710272Y-115974446D01*
X93700151Y-115988733D01*
X93665743Y-116002102D01*
X93624046Y-115995741D01*
X93618681Y-115991044D01*
X93602852Y-115968893D01*
X93580650Y-115932132D01*
X93554233Y-115884415D01*
X93525760Y-115829393D01*
X93445986Y-115670150D01*
X93372799Y-115816742D01*
X93363103Y-115836032D01*
X93336125Y-115888380D01*
X93312096Y-115933170D01*
X93293332Y-115966154D01*
X93282146Y-115983089D01*
X93281000Y-115984332D01*
X93252879Y-115999619D01*
X93217817Y-116001302D01*
X93186776Y-115988733D01*
X93184350Y-115985884D01*
X93172090Y-115965259D01*
X93152352Y-115927708D01*
X93126448Y-115875880D01*
X93095685Y-115812423D01*
X93061375Y-115739985D01*
X93024825Y-115661216D01*
X93004585Y-115617093D01*
X92967812Y-115536365D01*
X92939355Y-115472687D01*
X92918331Y-115423752D01*
X92903854Y-115387257D01*
X92895039Y-115360895D01*
X92891004Y-115342361D01*
X92890862Y-115329352D01*
X92893730Y-115319561D01*
X92908387Y-115298678D01*
X92934990Y-115278377D01*
X92935745Y-115278035D01*
X92955335Y-115271034D01*
X92972790Y-115270504D01*
X92989702Y-115278478D01*
G36*
X92989702Y-115278478D02*
G01*
X93007663Y-115296989D01*
X93028263Y-115328071D01*
X93053095Y-115373756D01*
X93083750Y-115436078D01*
X93121820Y-115517071D01*
X93136454Y-115548454D01*
X93166203Y-115611638D01*
X93192297Y-115666244D01*
X93213292Y-115709290D01*
X93227739Y-115737793D01*
X93234191Y-115748770D01*
X93235550Y-115748189D01*
X93245542Y-115734242D01*
X93262833Y-115704704D01*
X93285430Y-115663087D01*
X93311338Y-115612903D01*
X93327311Y-115581414D01*
X93356261Y-115526061D01*
X93378749Y-115487044D01*
X93396965Y-115461566D01*
X93413096Y-115446831D01*
X93429330Y-115440042D01*
X93447857Y-115438400D01*
X93458360Y-115438875D01*
X93474476Y-115443082D01*
X93489790Y-115453946D01*
X93506388Y-115474219D01*
X93526357Y-115506654D01*
X93551783Y-115554004D01*
X93584752Y-115619022D01*
X93594485Y-115638277D01*
X93618943Y-115684946D01*
X93639178Y-115721109D01*
X93653311Y-115743497D01*
X93659460Y-115748845D01*
X93660827Y-115745573D01*
X93670202Y-115724664D01*
X93687062Y-115687725D01*
X93709979Y-115637874D01*
X93737520Y-115578226D01*
X93768255Y-115511898D01*
X93794970Y-115454677D01*
X93824593Y-115392688D01*
X93847664Y-115346949D01*
X93865643Y-115314908D01*
X93879990Y-115294014D01*
X93892166Y-115281718D01*
X93903632Y-115275466D01*
X93913042Y-115272574D01*
X93938147Y-115272425D01*
X93965290Y-115287768D01*
X93966590Y-115288753D01*
X93988674Y-115311388D01*
X93999723Y-115333613D01*
X93999769Y-115334253D01*
X93995228Y-115351915D01*
X93982364Y-115386481D01*
X93962605Y-115434826D01*
X93937381Y-115493825D01*
X93908119Y-115560355D01*
X93876250Y-115631291D01*
X93843201Y-115703507D01*
X93810401Y-115773880D01*
X93779280Y-115839285D01*
X93751265Y-115896597D01*
X93727786Y-115942692D01*
X93710272Y-115974446D01*
X93700151Y-115988733D01*
X93665743Y-116002102D01*
X93624046Y-115995741D01*
X93618681Y-115991044D01*
X93602852Y-115968893D01*
X93580650Y-115932132D01*
X93554233Y-115884415D01*
X93525760Y-115829393D01*
X93445986Y-115670150D01*
X93372799Y-115816742D01*
X93363103Y-115836032D01*
X93336125Y-115888380D01*
X93312096Y-115933170D01*
X93293332Y-115966154D01*
X93282146Y-115983089D01*
X93281000Y-115984332D01*
X93252879Y-115999619D01*
X93217817Y-116001302D01*
X93186776Y-115988733D01*
X93184350Y-115985884D01*
X93172090Y-115965259D01*
X93152352Y-115927708D01*
X93126448Y-115875880D01*
X93095685Y-115812423D01*
X93061375Y-115739985D01*
X93024825Y-115661216D01*
X93004585Y-115617093D01*
X92967812Y-115536365D01*
X92939355Y-115472687D01*
X92918331Y-115423752D01*
X92903854Y-115387257D01*
X92895039Y-115360895D01*
X92891004Y-115342361D01*
X92890862Y-115329352D01*
X92893730Y-115319561D01*
X92908387Y-115298678D01*
X92934990Y-115278377D01*
X92935745Y-115278035D01*
X92955335Y-115271034D01*
X92972790Y-115270504D01*
X92989702Y-115278478D01*
G37*
X100540853Y-115269936D02*
X100607100Y-115275366D01*
X100662400Y-115284964D01*
X100713283Y-115299825D01*
X100784595Y-115332958D01*
X100835752Y-115375640D01*
X100866575Y-115427705D01*
X100876889Y-115488983D01*
X100875952Y-115520232D01*
X100870160Y-115545029D01*
X100855353Y-115566699D01*
X100827380Y-115594049D01*
X100819402Y-115601378D01*
X100795692Y-115622281D01*
X100773298Y-115639251D01*
X100749265Y-115653205D01*
X100720637Y-115665056D01*
X100684460Y-115675720D01*
X100637780Y-115686111D01*
X100577641Y-115697146D01*
X100501090Y-115709738D01*
X100405171Y-115724804D01*
X100386808Y-115727838D01*
X100324478Y-115741458D01*
X100279260Y-115757192D01*
X100252976Y-115774263D01*
X100247447Y-115791897D01*
X100250068Y-115796168D01*
X100268000Y-115811233D01*
X100296126Y-115827867D01*
X100308926Y-115833857D01*
X100330224Y-115841050D01*
X100356610Y-115845827D01*
X100392454Y-115848646D01*
X100442128Y-115849964D01*
X100510000Y-115850237D01*
X100527785Y-115850164D01*
X100595406Y-115849053D01*
X100660345Y-115846828D01*
X100715970Y-115843762D01*
X100755651Y-115840127D01*
X100791162Y-115836059D01*
X100820415Y-115835276D01*
X100839315Y-115839876D01*
X100854429Y-115850551D01*
X100858085Y-115854144D01*
X100874427Y-115885918D01*
X100873107Y-115921572D01*
X100854150Y-115952190D01*
X100833780Y-115963796D01*
X100797796Y-115976491D01*
X100755372Y-115986541D01*
X100751922Y-115987140D01*
X100709252Y-115992356D01*
X100651866Y-115996730D01*
X100586849Y-115999818D01*
X100521289Y-116001177D01*
X100505057Y-116001218D01*
X100406744Y-115998741D01*
X100326692Y-115990735D01*
X100261513Y-115976203D01*
X100207817Y-115954149D01*
X100162216Y-115923576D01*
X100121323Y-115883486D01*
X100101202Y-115857259D01*
X100089576Y-115827712D01*
X100086667Y-115787995D01*
X100086808Y-115776026D01*
X100090681Y-115743345D01*
X100103065Y-115716819D01*
X100128230Y-115685971D01*
X100149442Y-115663831D01*
X100175838Y-115641285D01*
X100205555Y-115622917D01*
X100241785Y-115607661D01*
X100287717Y-115594449D01*
X100346544Y-115582214D01*
X100421456Y-115569889D01*
X100515645Y-115556406D01*
X100560957Y-115549396D01*
X100628911Y-115534837D01*
X100678047Y-115518337D01*
X100707614Y-115500439D01*
X100716864Y-115481685D01*
X100705048Y-115462615D01*
X100671416Y-115443771D01*
X100668370Y-115442557D01*
X100622011Y-115430479D01*
X100559361Y-115422279D01*
X100485927Y-115418119D01*
X100407217Y-115418161D01*
X100328739Y-115422569D01*
X100256000Y-115431505D01*
X100252073Y-115432154D01*
X100203257Y-115439861D01*
X100171005Y-115443473D01*
X100150008Y-115442876D01*
X100134954Y-115437954D01*
X100120534Y-115428596D01*
X100119364Y-115427725D01*
X100094847Y-115397351D01*
X100090054Y-115361850D01*
X100105860Y-115327269D01*
X100110406Y-115322813D01*
X100140020Y-115307673D01*
X100187002Y-115294550D01*
X100247306Y-115283750D01*
X100316888Y-115275581D01*
X100391703Y-115270351D01*
X100467706Y-115268367D01*
X100540853Y-115269936D01*
G36*
X100540853Y-115269936D02*
G01*
X100607100Y-115275366D01*
X100662400Y-115284964D01*
X100713283Y-115299825D01*
X100784595Y-115332958D01*
X100835752Y-115375640D01*
X100866575Y-115427705D01*
X100876889Y-115488983D01*
X100875952Y-115520232D01*
X100870160Y-115545029D01*
X100855353Y-115566699D01*
X100827380Y-115594049D01*
X100819402Y-115601378D01*
X100795692Y-115622281D01*
X100773298Y-115639251D01*
X100749265Y-115653205D01*
X100720637Y-115665056D01*
X100684460Y-115675720D01*
X100637780Y-115686111D01*
X100577641Y-115697146D01*
X100501090Y-115709738D01*
X100405171Y-115724804D01*
X100386808Y-115727838D01*
X100324478Y-115741458D01*
X100279260Y-115757192D01*
X100252976Y-115774263D01*
X100247447Y-115791897D01*
X100250068Y-115796168D01*
X100268000Y-115811233D01*
X100296126Y-115827867D01*
X100308926Y-115833857D01*
X100330224Y-115841050D01*
X100356610Y-115845827D01*
X100392454Y-115848646D01*
X100442128Y-115849964D01*
X100510000Y-115850237D01*
X100527785Y-115850164D01*
X100595406Y-115849053D01*
X100660345Y-115846828D01*
X100715970Y-115843762D01*
X100755651Y-115840127D01*
X100791162Y-115836059D01*
X100820415Y-115835276D01*
X100839315Y-115839876D01*
X100854429Y-115850551D01*
X100858085Y-115854144D01*
X100874427Y-115885918D01*
X100873107Y-115921572D01*
X100854150Y-115952190D01*
X100833780Y-115963796D01*
X100797796Y-115976491D01*
X100755372Y-115986541D01*
X100751922Y-115987140D01*
X100709252Y-115992356D01*
X100651866Y-115996730D01*
X100586849Y-115999818D01*
X100521289Y-116001177D01*
X100505057Y-116001218D01*
X100406744Y-115998741D01*
X100326692Y-115990735D01*
X100261513Y-115976203D01*
X100207817Y-115954149D01*
X100162216Y-115923576D01*
X100121323Y-115883486D01*
X100101202Y-115857259D01*
X100089576Y-115827712D01*
X100086667Y-115787995D01*
X100086808Y-115776026D01*
X100090681Y-115743345D01*
X100103065Y-115716819D01*
X100128230Y-115685971D01*
X100149442Y-115663831D01*
X100175838Y-115641285D01*
X100205555Y-115622917D01*
X100241785Y-115607661D01*
X100287717Y-115594449D01*
X100346544Y-115582214D01*
X100421456Y-115569889D01*
X100515645Y-115556406D01*
X100560957Y-115549396D01*
X100628911Y-115534837D01*
X100678047Y-115518337D01*
X100707614Y-115500439D01*
X100716864Y-115481685D01*
X100705048Y-115462615D01*
X100671416Y-115443771D01*
X100668370Y-115442557D01*
X100622011Y-115430479D01*
X100559361Y-115422279D01*
X100485927Y-115418119D01*
X100407217Y-115418161D01*
X100328739Y-115422569D01*
X100256000Y-115431505D01*
X100252073Y-115432154D01*
X100203257Y-115439861D01*
X100171005Y-115443473D01*
X100150008Y-115442876D01*
X100134954Y-115437954D01*
X100120534Y-115428596D01*
X100119364Y-115427725D01*
X100094847Y-115397351D01*
X100090054Y-115361850D01*
X100105860Y-115327269D01*
X100110406Y-115322813D01*
X100140020Y-115307673D01*
X100187002Y-115294550D01*
X100247306Y-115283750D01*
X100316888Y-115275581D01*
X100391703Y-115270351D01*
X100467706Y-115268367D01*
X100540853Y-115269936D01*
G37*
X96688711Y-110962033D02*
X96784268Y-110979523D01*
X96948558Y-111024564D01*
X97102589Y-111087656D01*
X97248509Y-111169915D01*
X97388466Y-111272457D01*
X97524608Y-111396399D01*
X97568473Y-111441661D01*
X97680758Y-111573865D01*
X97773972Y-111711832D01*
X97850719Y-111859750D01*
X97913603Y-112021803D01*
X97917420Y-112033391D01*
X97967507Y-112219392D01*
X98000899Y-112415521D01*
X98017584Y-112617568D01*
X98017551Y-112821325D01*
X98000791Y-113022581D01*
X97967292Y-113217128D01*
X97917044Y-113400756D01*
X97873190Y-113518053D01*
X97795348Y-113680951D01*
X97701828Y-113834866D01*
X97594822Y-113976671D01*
X97476519Y-114103239D01*
X97349111Y-114211441D01*
X97271606Y-114264120D01*
X97144725Y-114333750D01*
X97007243Y-114392468D01*
X96865716Y-114437587D01*
X96726702Y-114466422D01*
X96712597Y-114468106D01*
X96669153Y-114471434D01*
X96611723Y-114474275D01*
X96546122Y-114476373D01*
X96478167Y-114477468D01*
X96351378Y-114475140D01*
X96203673Y-114462136D01*
X96065779Y-114437133D01*
X95932014Y-114399318D01*
X95908562Y-114390889D01*
X95860612Y-114371408D01*
X95804140Y-114346473D01*
X95742379Y-114317722D01*
X95678563Y-114286790D01*
X95615926Y-114255315D01*
X95557703Y-114224934D01*
X95507127Y-114197283D01*
X95467433Y-114173999D01*
X95441854Y-114156718D01*
X95433625Y-114147079D01*
X95435076Y-114143984D01*
X95446250Y-114124079D01*
X95467134Y-114088420D01*
X95496265Y-114039459D01*
X95532181Y-113979646D01*
X95573420Y-113911433D01*
X95618517Y-113837271D01*
X95799785Y-113540008D01*
X95846315Y-113584539D01*
X95937723Y-113662865D01*
X96051334Y-113737439D01*
X96169122Y-113791474D01*
X96289559Y-113824290D01*
X96411117Y-113835211D01*
X96452585Y-113833868D01*
X96570080Y-113815612D01*
X96680089Y-113776617D01*
X96781430Y-113717670D01*
X96872921Y-113639557D01*
X96953380Y-113543064D01*
X97021627Y-113428978D01*
X97037908Y-113394724D01*
X97083982Y-113271240D01*
X97119106Y-113132918D01*
X97143197Y-112983561D01*
X97156173Y-112826973D01*
X97157949Y-112666956D01*
X97148443Y-112507314D01*
X97127572Y-112351850D01*
X97095252Y-112204366D01*
X97051399Y-112068667D01*
X97013982Y-111982076D01*
X96949185Y-111868688D01*
X96873772Y-111775070D01*
X96787418Y-111700959D01*
X96689795Y-111646094D01*
X96580577Y-111610212D01*
X96459439Y-111593051D01*
X96390038Y-111591880D01*
X96267168Y-111606141D01*
X96151664Y-111641241D01*
X96044953Y-111696682D01*
X95948464Y-111771964D01*
X95932720Y-111786440D01*
X95902150Y-111812962D01*
X95879809Y-111830138D01*
X95869691Y-111834787D01*
X95867706Y-111832597D01*
X95853241Y-111813721D01*
X95829400Y-111780397D01*
X95798029Y-111735380D01*
X95760974Y-111681425D01*
X95720083Y-111621285D01*
X95677202Y-111557718D01*
X95634178Y-111493476D01*
X95592857Y-111431315D01*
X95555086Y-111373991D01*
X95522712Y-111324257D01*
X95497582Y-111284868D01*
X95481542Y-111258580D01*
X95476439Y-111248147D01*
X95481050Y-111243941D01*
X95500267Y-111238933D01*
X95509838Y-111236386D01*
X95537809Y-111225249D01*
X95579448Y-111206802D01*
X95630995Y-111182725D01*
X95688690Y-111154699D01*
X95699957Y-111149154D01*
X95877687Y-111069889D01*
X96047490Y-111010385D01*
X96211430Y-110970245D01*
X96371571Y-110949071D01*
X96529977Y-110946466D01*
X96688711Y-110962033D01*
G36*
X96688711Y-110962033D02*
G01*
X96784268Y-110979523D01*
X96948558Y-111024564D01*
X97102589Y-111087656D01*
X97248509Y-111169915D01*
X97388466Y-111272457D01*
X97524608Y-111396399D01*
X97568473Y-111441661D01*
X97680758Y-111573865D01*
X97773972Y-111711832D01*
X97850719Y-111859750D01*
X97913603Y-112021803D01*
X97917420Y-112033391D01*
X97967507Y-112219392D01*
X98000899Y-112415521D01*
X98017584Y-112617568D01*
X98017551Y-112821325D01*
X98000791Y-113022581D01*
X97967292Y-113217128D01*
X97917044Y-113400756D01*
X97873190Y-113518053D01*
X97795348Y-113680951D01*
X97701828Y-113834866D01*
X97594822Y-113976671D01*
X97476519Y-114103239D01*
X97349111Y-114211441D01*
X97271606Y-114264120D01*
X97144725Y-114333750D01*
X97007243Y-114392468D01*
X96865716Y-114437587D01*
X96726702Y-114466422D01*
X96712597Y-114468106D01*
X96669153Y-114471434D01*
X96611723Y-114474275D01*
X96546122Y-114476373D01*
X96478167Y-114477468D01*
X96351378Y-114475140D01*
X96203673Y-114462136D01*
X96065779Y-114437133D01*
X95932014Y-114399318D01*
X95908562Y-114390889D01*
X95860612Y-114371408D01*
X95804140Y-114346473D01*
X95742379Y-114317722D01*
X95678563Y-114286790D01*
X95615926Y-114255315D01*
X95557703Y-114224934D01*
X95507127Y-114197283D01*
X95467433Y-114173999D01*
X95441854Y-114156718D01*
X95433625Y-114147079D01*
X95435076Y-114143984D01*
X95446250Y-114124079D01*
X95467134Y-114088420D01*
X95496265Y-114039459D01*
X95532181Y-113979646D01*
X95573420Y-113911433D01*
X95618517Y-113837271D01*
X95799785Y-113540008D01*
X95846315Y-113584539D01*
X95937723Y-113662865D01*
X96051334Y-113737439D01*
X96169122Y-113791474D01*
X96289559Y-113824290D01*
X96411117Y-113835211D01*
X96452585Y-113833868D01*
X96570080Y-113815612D01*
X96680089Y-113776617D01*
X96781430Y-113717670D01*
X96872921Y-113639557D01*
X96953380Y-113543064D01*
X97021627Y-113428978D01*
X97037908Y-113394724D01*
X97083982Y-113271240D01*
X97119106Y-113132918D01*
X97143197Y-112983561D01*
X97156173Y-112826973D01*
X97157949Y-112666956D01*
X97148443Y-112507314D01*
X97127572Y-112351850D01*
X97095252Y-112204366D01*
X97051399Y-112068667D01*
X97013982Y-111982076D01*
X96949185Y-111868688D01*
X96873772Y-111775070D01*
X96787418Y-111700959D01*
X96689795Y-111646094D01*
X96580577Y-111610212D01*
X96459439Y-111593051D01*
X96390038Y-111591880D01*
X96267168Y-111606141D01*
X96151664Y-111641241D01*
X96044953Y-111696682D01*
X95948464Y-111771964D01*
X95932720Y-111786440D01*
X95902150Y-111812962D01*
X95879809Y-111830138D01*
X95869691Y-111834787D01*
X95867706Y-111832597D01*
X95853241Y-111813721D01*
X95829400Y-111780397D01*
X95798029Y-111735380D01*
X95760974Y-111681425D01*
X95720083Y-111621285D01*
X95677202Y-111557718D01*
X95634178Y-111493476D01*
X95592857Y-111431315D01*
X95555086Y-111373991D01*
X95522712Y-111324257D01*
X95497582Y-111284868D01*
X95481542Y-111258580D01*
X95476439Y-111248147D01*
X95481050Y-111243941D01*
X95500267Y-111238933D01*
X95509838Y-111236386D01*
X95537809Y-111225249D01*
X95579448Y-111206802D01*
X95630995Y-111182725D01*
X95688690Y-111154699D01*
X95699957Y-111149154D01*
X95877687Y-111069889D01*
X96047490Y-111010385D01*
X96211430Y-110970245D01*
X96371571Y-110949071D01*
X96529977Y-110946466D01*
X96688711Y-110962033D01*
G37*
X92885994Y-113242711D02*
X92885268Y-113320158D01*
X92876689Y-113471594D01*
X92857833Y-113608283D01*
X92827837Y-113734276D01*
X92785836Y-113853625D01*
X92730969Y-113970381D01*
X92664167Y-114081179D01*
X92573363Y-114194739D01*
X92469708Y-114290211D01*
X92353887Y-114367073D01*
X92226586Y-114424797D01*
X92088489Y-114462858D01*
X92050793Y-114468666D01*
X91971752Y-114474396D01*
X91883629Y-114474583D01*
X91794236Y-114469539D01*
X91711384Y-114459578D01*
X91642887Y-114445012D01*
X91612035Y-114435364D01*
X91534730Y-114405123D01*
X91457679Y-114367617D01*
X91388200Y-114326614D01*
X91333615Y-114285879D01*
X91310916Y-114266505D01*
X91288201Y-114248662D01*
X91276779Y-114241778D01*
X91275537Y-114243424D01*
X91272728Y-114261205D01*
X91270776Y-114294370D01*
X91270045Y-114337733D01*
X91270045Y-114433689D01*
X90411896Y-114433689D01*
X90446161Y-114372974D01*
X90451355Y-114363868D01*
X90459715Y-114349249D01*
X90467288Y-114335173D01*
X90474112Y-114320540D01*
X90480227Y-114304249D01*
X90485673Y-114285198D01*
X90490487Y-114262286D01*
X90494708Y-114234413D01*
X90498377Y-114200478D01*
X90501531Y-114159379D01*
X90504211Y-114110015D01*
X90506454Y-114051286D01*
X90508299Y-113982090D01*
X90509787Y-113901326D01*
X90510955Y-113807894D01*
X90511844Y-113700692D01*
X90512491Y-113578620D01*
X90512936Y-113440576D01*
X90513218Y-113285459D01*
X90513375Y-113112168D01*
X90513448Y-112919603D01*
X90513474Y-112706662D01*
X90513485Y-112570530D01*
X91315200Y-112570530D01*
X91315200Y-113720721D01*
X91385756Y-113767089D01*
X91426417Y-113790791D01*
X91480546Y-113816639D01*
X91529689Y-113834829D01*
X91593165Y-113850551D01*
X91689331Y-113861541D01*
X91773900Y-113853365D01*
X91847219Y-113825805D01*
X91909637Y-113778642D01*
X91961502Y-113711658D01*
X92003160Y-113624633D01*
X92034962Y-113517350D01*
X92037545Y-113505009D01*
X92046000Y-113443772D01*
X92051663Y-113366692D01*
X92054576Y-113279002D01*
X92054783Y-113185934D01*
X92052330Y-113092720D01*
X92047261Y-113004594D01*
X92039619Y-112926788D01*
X92029448Y-112864533D01*
X92028167Y-112858666D01*
X91999126Y-112748121D01*
X91964610Y-112657575D01*
X91923456Y-112584953D01*
X91874499Y-112528181D01*
X91816574Y-112485184D01*
X91784620Y-112469615D01*
X91711784Y-112450722D01*
X91630443Y-112447465D01*
X91545319Y-112459389D01*
X91461133Y-112486040D01*
X91382608Y-112526962D01*
X91315200Y-112570530D01*
X90513485Y-112570530D01*
X90513493Y-112472245D01*
X90513689Y-110787378D01*
X91419017Y-110787378D01*
X91394585Y-110824067D01*
X91388318Y-110833647D01*
X91362208Y-110879981D01*
X91344469Y-110927102D01*
X91332908Y-110982251D01*
X91325331Y-111052667D01*
X91324839Y-111059650D01*
X91323062Y-111097641D01*
X91321444Y-111151576D01*
X91319999Y-111218703D01*
X91318740Y-111296271D01*
X91317680Y-111381528D01*
X91316829Y-111471724D01*
X91316203Y-111564107D01*
X91315812Y-111655925D01*
X91315670Y-111744427D01*
X91315790Y-111826862D01*
X91316183Y-111900479D01*
X91316862Y-111962526D01*
X91317841Y-112010251D01*
X91319132Y-112040904D01*
X91320747Y-112051733D01*
X91328957Y-112047333D01*
X91350647Y-112032362D01*
X91380014Y-112010448D01*
X91428879Y-111976236D01*
X91517125Y-111929714D01*
X91615916Y-111896046D01*
X91728510Y-111874231D01*
X91858164Y-111863265D01*
X91950670Y-111862219D01*
X92072011Y-111872014D01*
X92182099Y-111896174D01*
X92285389Y-111935785D01*
X92386338Y-111991932D01*
X92431503Y-112022883D01*
X92536911Y-112114115D01*
X92628538Y-112223106D01*
X92706332Y-112349726D01*
X92770241Y-112493845D01*
X92820214Y-112655332D01*
X92856198Y-112834059D01*
X92878143Y-113029895D01*
X92883900Y-113185934D01*
X92885994Y-113242711D01*
G36*
X92885994Y-113242711D02*
G01*
X92885268Y-113320158D01*
X92876689Y-113471594D01*
X92857833Y-113608283D01*
X92827837Y-113734276D01*
X92785836Y-113853625D01*
X92730969Y-113970381D01*
X92664167Y-114081179D01*
X92573363Y-114194739D01*
X92469708Y-114290211D01*
X92353887Y-114367073D01*
X92226586Y-114424797D01*
X92088489Y-114462858D01*
X92050793Y-114468666D01*
X91971752Y-114474396D01*
X91883629Y-114474583D01*
X91794236Y-114469539D01*
X91711384Y-114459578D01*
X91642887Y-114445012D01*
X91612035Y-114435364D01*
X91534730Y-114405123D01*
X91457679Y-114367617D01*
X91388200Y-114326614D01*
X91333615Y-114285879D01*
X91310916Y-114266505D01*
X91288201Y-114248662D01*
X91276779Y-114241778D01*
X91275537Y-114243424D01*
X91272728Y-114261205D01*
X91270776Y-114294370D01*
X91270045Y-114337733D01*
X91270045Y-114433689D01*
X90411896Y-114433689D01*
X90446161Y-114372974D01*
X90451355Y-114363868D01*
X90459715Y-114349249D01*
X90467288Y-114335173D01*
X90474112Y-114320540D01*
X90480227Y-114304249D01*
X90485673Y-114285198D01*
X90490487Y-114262286D01*
X90494708Y-114234413D01*
X90498377Y-114200478D01*
X90501531Y-114159379D01*
X90504211Y-114110015D01*
X90506454Y-114051286D01*
X90508299Y-113982090D01*
X90509787Y-113901326D01*
X90510955Y-113807894D01*
X90511844Y-113700692D01*
X90512491Y-113578620D01*
X90512936Y-113440576D01*
X90513218Y-113285459D01*
X90513375Y-113112168D01*
X90513448Y-112919603D01*
X90513474Y-112706662D01*
X90513485Y-112570530D01*
X91315200Y-112570530D01*
X91315200Y-113720721D01*
X91385756Y-113767089D01*
X91426417Y-113790791D01*
X91480546Y-113816639D01*
X91529689Y-113834829D01*
X91593165Y-113850551D01*
X91689331Y-113861541D01*
X91773900Y-113853365D01*
X91847219Y-113825805D01*
X91909637Y-113778642D01*
X91961502Y-113711658D01*
X92003160Y-113624633D01*
X92034962Y-113517350D01*
X92037545Y-113505009D01*
X92046000Y-113443772D01*
X92051663Y-113366692D01*
X92054576Y-113279002D01*
X92054783Y-113185934D01*
X92052330Y-113092720D01*
X92047261Y-113004594D01*
X92039619Y-112926788D01*
X92029448Y-112864533D01*
X92028167Y-112858666D01*
X91999126Y-112748121D01*
X91964610Y-112657575D01*
X91923456Y-112584953D01*
X91874499Y-112528181D01*
X91816574Y-112485184D01*
X91784620Y-112469615D01*
X91711784Y-112450722D01*
X91630443Y-112447465D01*
X91545319Y-112459389D01*
X91461133Y-112486040D01*
X91382608Y-112526962D01*
X91315200Y-112570530D01*
X90513485Y-112570530D01*
X90513493Y-112472245D01*
X90513689Y-110787378D01*
X91419017Y-110787378D01*
X91394585Y-110824067D01*
X91388318Y-110833647D01*
X91362208Y-110879981D01*
X91344469Y-110927102D01*
X91332908Y-110982251D01*
X91325331Y-111052667D01*
X91324839Y-111059650D01*
X91323062Y-111097641D01*
X91321444Y-111151576D01*
X91319999Y-111218703D01*
X91318740Y-111296271D01*
X91317680Y-111381528D01*
X91316829Y-111471724D01*
X91316203Y-111564107D01*
X91315812Y-111655925D01*
X91315670Y-111744427D01*
X91315790Y-111826862D01*
X91316183Y-111900479D01*
X91316862Y-111962526D01*
X91317841Y-112010251D01*
X91319132Y-112040904D01*
X91320747Y-112051733D01*
X91328957Y-112047333D01*
X91350647Y-112032362D01*
X91380014Y-112010448D01*
X91428879Y-111976236D01*
X91517125Y-111929714D01*
X91615916Y-111896046D01*
X91728510Y-111874231D01*
X91858164Y-111863265D01*
X91950670Y-111862219D01*
X92072011Y-111872014D01*
X92182099Y-111896174D01*
X92285389Y-111935785D01*
X92386338Y-111991932D01*
X92431503Y-112022883D01*
X92536911Y-112114115D01*
X92628538Y-112223106D01*
X92706332Y-112349726D01*
X92770241Y-112493845D01*
X92820214Y-112655332D01*
X92856198Y-112834059D01*
X92878143Y-113029895D01*
X92883900Y-113185934D01*
X92885994Y-113242711D01*
G37*
X95427755Y-113643467D02*
X95427261Y-113677363D01*
X95423632Y-113752202D01*
X95416022Y-113814401D01*
X95403688Y-113870984D01*
X95359313Y-113997076D01*
X95296400Y-114111679D01*
X95216238Y-114212568D01*
X95119740Y-114298924D01*
X95007822Y-114369932D01*
X94881397Y-114424776D01*
X94741378Y-114462638D01*
X94705149Y-114468351D01*
X94626155Y-114474313D01*
X94537841Y-114474646D01*
X94448075Y-114469659D01*
X94364722Y-114459666D01*
X94295651Y-114444978D01*
X94209187Y-114414749D01*
X94099286Y-114360057D01*
X94001956Y-114292543D01*
X93939867Y-114241556D01*
X93936605Y-114337622D01*
X93933343Y-114433689D01*
X93510450Y-114433689D01*
X93499543Y-114433686D01*
X93405056Y-114433380D01*
X93318331Y-114432616D01*
X93241837Y-114431451D01*
X93178043Y-114429942D01*
X93129418Y-114428147D01*
X93098433Y-114426121D01*
X93087556Y-114423922D01*
X93087578Y-114423463D01*
X93094614Y-114407910D01*
X93110434Y-114385071D01*
X93114734Y-114379638D01*
X93125777Y-114365606D01*
X93135311Y-114352186D01*
X93143461Y-114337722D01*
X93150352Y-114320556D01*
X93156111Y-114299034D01*
X93160862Y-114271498D01*
X93164731Y-114236292D01*
X93167844Y-114191760D01*
X93170325Y-114136246D01*
X93172300Y-114068093D01*
X93173894Y-113985645D01*
X93175234Y-113887246D01*
X93176444Y-113771239D01*
X93177649Y-113635968D01*
X93178595Y-113524586D01*
X93979378Y-113524586D01*
X93979378Y-113720462D01*
X94024048Y-113776973D01*
X94036785Y-113792212D01*
X94083604Y-113834844D01*
X94144255Y-113870672D01*
X94154897Y-113875850D01*
X94193676Y-113892745D01*
X94228692Y-113902909D01*
X94268722Y-113908325D01*
X94322541Y-113910978D01*
X94340648Y-113911383D01*
X94416011Y-113908540D01*
X94476743Y-113896620D01*
X94528452Y-113874037D01*
X94576746Y-113839211D01*
X94581803Y-113834798D01*
X94630272Y-113779160D01*
X94658459Y-113715333D01*
X94667752Y-113640282D01*
X94660520Y-113568693D01*
X94635796Y-113505645D01*
X94591249Y-113447758D01*
X94536319Y-113400808D01*
X94463894Y-113360961D01*
X94377340Y-113333263D01*
X94274670Y-113317096D01*
X94153894Y-113311842D01*
X94145007Y-113311857D01*
X94089660Y-113312655D01*
X94042736Y-113314488D01*
X94008953Y-113317111D01*
X93993028Y-113320274D01*
X93988943Y-113326741D01*
X93984572Y-113348875D01*
X93981604Y-113387988D01*
X93979914Y-113445939D01*
X93979378Y-113524586D01*
X93178595Y-113524586D01*
X93178975Y-113479778D01*
X93180228Y-113337012D01*
X93181651Y-113191942D01*
X93183176Y-113066027D01*
X93184933Y-112957436D01*
X93187051Y-112864334D01*
X93189660Y-112784891D01*
X93192890Y-112717273D01*
X93196869Y-112659649D01*
X93201728Y-112610185D01*
X93207597Y-112567050D01*
X93214604Y-112528410D01*
X93222880Y-112492434D01*
X93232554Y-112457289D01*
X93243756Y-112421142D01*
X93256616Y-112382161D01*
X93272090Y-112339091D01*
X93314994Y-112246871D01*
X93368735Y-112167099D01*
X93437576Y-112092965D01*
X93515185Y-112029405D01*
X93619761Y-111967725D01*
X93739244Y-111920202D01*
X93874508Y-111886567D01*
X94026426Y-111866552D01*
X94195872Y-111859889D01*
X94253890Y-111860287D01*
X94319398Y-111862335D01*
X94380693Y-111866704D01*
X94442097Y-111874035D01*
X94507932Y-111884969D01*
X94582520Y-111900147D01*
X94670184Y-111920209D01*
X94775245Y-111945797D01*
X94803806Y-111952820D01*
X94879054Y-111970776D01*
X94949388Y-111986820D01*
X95010567Y-112000028D01*
X95058354Y-112009474D01*
X95088511Y-112014231D01*
X95116783Y-112017910D01*
X95143060Y-112023187D01*
X95153059Y-112027942D01*
X95149952Y-112036781D01*
X95139194Y-112064072D01*
X95121864Y-112106906D01*
X95099126Y-112162425D01*
X95072147Y-112227772D01*
X95042090Y-112300089D01*
X95035493Y-112315879D01*
X94996907Y-112406484D01*
X94965768Y-112476217D01*
X94941917Y-112525405D01*
X94925198Y-112554374D01*
X94915454Y-112563452D01*
X94907766Y-112561405D01*
X94881415Y-112551760D01*
X94842982Y-112536190D01*
X94797822Y-112516815D01*
X94703293Y-112478814D01*
X94566480Y-112437780D01*
X94425289Y-112412612D01*
X94387314Y-112408611D01*
X94284059Y-112406447D01*
X94196952Y-112419622D01*
X94125129Y-112448756D01*
X94067731Y-112494466D01*
X94023896Y-112557372D01*
X93992762Y-112638092D01*
X93973470Y-112737245D01*
X93966050Y-112796224D01*
X94127936Y-112789445D01*
X94254495Y-112787813D01*
X94405951Y-112794194D01*
X94554396Y-112808777D01*
X94690578Y-112830882D01*
X94755245Y-112845821D01*
X94887490Y-112888741D01*
X95009762Y-112945340D01*
X95119685Y-113014017D01*
X95214883Y-113093170D01*
X95292980Y-113181196D01*
X95351599Y-113276493D01*
X95375595Y-113328864D01*
X95401232Y-113399590D01*
X95417478Y-113470812D01*
X95425822Y-113549712D01*
X95427690Y-113640282D01*
X95427755Y-113643467D01*
G36*
X95427755Y-113643467D02*
G01*
X95427261Y-113677363D01*
X95423632Y-113752202D01*
X95416022Y-113814401D01*
X95403688Y-113870984D01*
X95359313Y-113997076D01*
X95296400Y-114111679D01*
X95216238Y-114212568D01*
X95119740Y-114298924D01*
X95007822Y-114369932D01*
X94881397Y-114424776D01*
X94741378Y-114462638D01*
X94705149Y-114468351D01*
X94626155Y-114474313D01*
X94537841Y-114474646D01*
X94448075Y-114469659D01*
X94364722Y-114459666D01*
X94295651Y-114444978D01*
X94209187Y-114414749D01*
X94099286Y-114360057D01*
X94001956Y-114292543D01*
X93939867Y-114241556D01*
X93936605Y-114337622D01*
X93933343Y-114433689D01*
X93510450Y-114433689D01*
X93499543Y-114433686D01*
X93405056Y-114433380D01*
X93318331Y-114432616D01*
X93241837Y-114431451D01*
X93178043Y-114429942D01*
X93129418Y-114428147D01*
X93098433Y-114426121D01*
X93087556Y-114423922D01*
X93087578Y-114423463D01*
X93094614Y-114407910D01*
X93110434Y-114385071D01*
X93114734Y-114379638D01*
X93125777Y-114365606D01*
X93135311Y-114352186D01*
X93143461Y-114337722D01*
X93150352Y-114320556D01*
X93156111Y-114299034D01*
X93160862Y-114271498D01*
X93164731Y-114236292D01*
X93167844Y-114191760D01*
X93170325Y-114136246D01*
X93172300Y-114068093D01*
X93173894Y-113985645D01*
X93175234Y-113887246D01*
X93176444Y-113771239D01*
X93177649Y-113635968D01*
X93178595Y-113524586D01*
X93979378Y-113524586D01*
X93979378Y-113720462D01*
X94024048Y-113776973D01*
X94036785Y-113792212D01*
X94083604Y-113834844D01*
X94144255Y-113870672D01*
X94154897Y-113875850D01*
X94193676Y-113892745D01*
X94228692Y-113902909D01*
X94268722Y-113908325D01*
X94322541Y-113910978D01*
X94340648Y-113911383D01*
X94416011Y-113908540D01*
X94476743Y-113896620D01*
X94528452Y-113874037D01*
X94576746Y-113839211D01*
X94581803Y-113834798D01*
X94630272Y-113779160D01*
X94658459Y-113715333D01*
X94667752Y-113640282D01*
X94660520Y-113568693D01*
X94635796Y-113505645D01*
X94591249Y-113447758D01*
X94536319Y-113400808D01*
X94463894Y-113360961D01*
X94377340Y-113333263D01*
X94274670Y-113317096D01*
X94153894Y-113311842D01*
X94145007Y-113311857D01*
X94089660Y-113312655D01*
X94042736Y-113314488D01*
X94008953Y-113317111D01*
X93993028Y-113320274D01*
X93988943Y-113326741D01*
X93984572Y-113348875D01*
X93981604Y-113387988D01*
X93979914Y-113445939D01*
X93979378Y-113524586D01*
X93178595Y-113524586D01*
X93178975Y-113479778D01*
X93180228Y-113337012D01*
X93181651Y-113191942D01*
X93183176Y-113066027D01*
X93184933Y-112957436D01*
X93187051Y-112864334D01*
X93189660Y-112784891D01*
X93192890Y-112717273D01*
X93196869Y-112659649D01*
X93201728Y-112610185D01*
X93207597Y-112567050D01*
X93214604Y-112528410D01*
X93222880Y-112492434D01*
X93232554Y-112457289D01*
X93243756Y-112421142D01*
X93256616Y-112382161D01*
X93272090Y-112339091D01*
X93314994Y-112246871D01*
X93368735Y-112167099D01*
X93437576Y-112092965D01*
X93515185Y-112029405D01*
X93619761Y-111967725D01*
X93739244Y-111920202D01*
X93874508Y-111886567D01*
X94026426Y-111866552D01*
X94195872Y-111859889D01*
X94253890Y-111860287D01*
X94319398Y-111862335D01*
X94380693Y-111866704D01*
X94442097Y-111874035D01*
X94507932Y-111884969D01*
X94582520Y-111900147D01*
X94670184Y-111920209D01*
X94775245Y-111945797D01*
X94803806Y-111952820D01*
X94879054Y-111970776D01*
X94949388Y-111986820D01*
X95010567Y-112000028D01*
X95058354Y-112009474D01*
X95088511Y-112014231D01*
X95116783Y-112017910D01*
X95143060Y-112023187D01*
X95153059Y-112027942D01*
X95149952Y-112036781D01*
X95139194Y-112064072D01*
X95121864Y-112106906D01*
X95099126Y-112162425D01*
X95072147Y-112227772D01*
X95042090Y-112300089D01*
X95035493Y-112315879D01*
X94996907Y-112406484D01*
X94965768Y-112476217D01*
X94941917Y-112525405D01*
X94925198Y-112554374D01*
X94915454Y-112563452D01*
X94907766Y-112561405D01*
X94881415Y-112551760D01*
X94842982Y-112536190D01*
X94797822Y-112516815D01*
X94703293Y-112478814D01*
X94566480Y-112437780D01*
X94425289Y-112412612D01*
X94387314Y-112408611D01*
X94284059Y-112406447D01*
X94196952Y-112419622D01*
X94125129Y-112448756D01*
X94067731Y-112494466D01*
X94023896Y-112557372D01*
X93992762Y-112638092D01*
X93973470Y-112737245D01*
X93966050Y-112796224D01*
X94127936Y-112789445D01*
X94254495Y-112787813D01*
X94405951Y-112794194D01*
X94554396Y-112808777D01*
X94690578Y-112830882D01*
X94755245Y-112845821D01*
X94887490Y-112888741D01*
X95009762Y-112945340D01*
X95119685Y-113014017D01*
X95214883Y-113093170D01*
X95292980Y-113181196D01*
X95351599Y-113276493D01*
X95375595Y-113328864D01*
X95401232Y-113399590D01*
X95417478Y-113470812D01*
X95425822Y-113549712D01*
X95427690Y-113640282D01*
X95427755Y-113643467D01*
G37*
X102975614Y-111111792D02*
X102976059Y-111243011D01*
X102976362Y-111390216D01*
X102976548Y-111554349D01*
X102976642Y-111736352D01*
X102976671Y-111937165D01*
X102976661Y-112157732D01*
X102976636Y-112398992D01*
X102976622Y-112661889D01*
X102976622Y-112704040D01*
X102976646Y-112964668D01*
X102976685Y-113203796D01*
X102976708Y-113422360D01*
X102976687Y-113621295D01*
X102976593Y-113801535D01*
X102976395Y-113964015D01*
X102976063Y-114109670D01*
X102975569Y-114239434D01*
X102974883Y-114354243D01*
X102973976Y-114455030D01*
X102972817Y-114542730D01*
X102971378Y-114618279D01*
X102969629Y-114682611D01*
X102967540Y-114736661D01*
X102965083Y-114781363D01*
X102962227Y-114817652D01*
X102958943Y-114846463D01*
X102955202Y-114868731D01*
X102950974Y-114885390D01*
X102946229Y-114897375D01*
X102940939Y-114905621D01*
X102935073Y-114911062D01*
X102928602Y-114914634D01*
X102921497Y-114917270D01*
X102913728Y-114919906D01*
X102905266Y-114923477D01*
X102900908Y-114925145D01*
X102892395Y-114927111D01*
X102879694Y-114928911D01*
X102861885Y-114930555D01*
X102838049Y-114932047D01*
X102807266Y-114933397D01*
X102768617Y-114934611D01*
X102721182Y-114935697D01*
X102664043Y-114936661D01*
X102596279Y-114937511D01*
X102516971Y-114938253D01*
X102425199Y-114938897D01*
X102320044Y-114939447D01*
X102200587Y-114939913D01*
X102065908Y-114940300D01*
X101915088Y-114940616D01*
X101747206Y-114940869D01*
X101561345Y-114941066D01*
X101356583Y-114941213D01*
X101132002Y-114941318D01*
X100886682Y-114941389D01*
X100619704Y-114941432D01*
X100581321Y-114941437D01*
X100315922Y-114941480D01*
X100072050Y-114941525D01*
X99848783Y-114941548D01*
X99645196Y-114941524D01*
X99460367Y-114941430D01*
X99293373Y-114941243D01*
X99143290Y-114940939D01*
X99009196Y-114940494D01*
X98890166Y-114939885D01*
X98785279Y-114939089D01*
X98693610Y-114938080D01*
X98614237Y-114936837D01*
X98546237Y-114935335D01*
X98488686Y-114933551D01*
X98440662Y-114931461D01*
X98401240Y-114929042D01*
X98369499Y-114926270D01*
X98344514Y-114923121D01*
X98325364Y-114919572D01*
X98311123Y-114915598D01*
X98300871Y-114911178D01*
X98293682Y-114906286D01*
X98288635Y-114900900D01*
X98284805Y-114894996D01*
X98281271Y-114888549D01*
X98277108Y-114881537D01*
X98276025Y-114879687D01*
X98273813Y-114874180D01*
X98271786Y-114865868D01*
X98269938Y-114853809D01*
X98268261Y-114837063D01*
X98266745Y-114814687D01*
X98265383Y-114785740D01*
X98264167Y-114749280D01*
X98263089Y-114704367D01*
X98262140Y-114650057D01*
X98261312Y-114585410D01*
X98260597Y-114509484D01*
X98259987Y-114421338D01*
X98259942Y-114412493D01*
X98551378Y-114412493D01*
X98555260Y-114413765D01*
X98578520Y-114415791D01*
X98620874Y-114417626D01*
X98680132Y-114419227D01*
X98754107Y-114420549D01*
X98840610Y-114421548D01*
X98937452Y-114422180D01*
X99042445Y-114422400D01*
X99740651Y-114422400D01*
X100895090Y-114422400D01*
X100894456Y-114346200D01*
X100895574Y-114304160D01*
X100901304Y-114268334D01*
X100913890Y-114230772D01*
X100935568Y-114182577D01*
X100938789Y-114175897D01*
X100964188Y-114126359D01*
X100990996Y-114078369D01*
X101013917Y-114041466D01*
X101018485Y-114034834D01*
X101040516Y-114003593D01*
X101072693Y-113958654D01*
X101113457Y-113902147D01*
X101161245Y-113836204D01*
X101214498Y-113762957D01*
X101271655Y-113684536D01*
X101331155Y-113603072D01*
X101391437Y-113520698D01*
X101450940Y-113439544D01*
X101508105Y-113361742D01*
X101561370Y-113289423D01*
X101609174Y-113224718D01*
X101649957Y-113169759D01*
X101682158Y-113126676D01*
X101704216Y-113097602D01*
X101714571Y-113084667D01*
X101719044Y-113080351D01*
X101723236Y-113078312D01*
X101726643Y-113080926D01*
X101729325Y-113089986D01*
X101731341Y-113107285D01*
X101732748Y-113134614D01*
X101733605Y-113173765D01*
X101733970Y-113226533D01*
X101733903Y-113294707D01*
X101733460Y-113380082D01*
X101732702Y-113484449D01*
X101731685Y-113609600D01*
X101731308Y-113654300D01*
X101730169Y-113775395D01*
X101728972Y-113876688D01*
X101727636Y-113960262D01*
X101726077Y-114028204D01*
X101724215Y-114082599D01*
X101721966Y-114125532D01*
X101719248Y-114159089D01*
X101715979Y-114185355D01*
X101712078Y-114206416D01*
X101707461Y-114224357D01*
X101699192Y-114250770D01*
X101675583Y-114312772D01*
X101649685Y-114365573D01*
X101624535Y-114402645D01*
X101623339Y-114404075D01*
X101621168Y-114408424D01*
X101623328Y-114412026D01*
X101631644Y-114414951D01*
X101647940Y-114417269D01*
X101674041Y-114419051D01*
X101711771Y-114420367D01*
X101762956Y-114421286D01*
X101829420Y-114421878D01*
X101912987Y-114422215D01*
X102015483Y-114422365D01*
X102138732Y-114422400D01*
X102670296Y-114422400D01*
X102631523Y-114364783D01*
X102625432Y-114355893D01*
X102614976Y-114341069D01*
X102605579Y-114327422D01*
X102597183Y-114313765D01*
X102589733Y-114298911D01*
X102583173Y-114281670D01*
X102577446Y-114260855D01*
X102572495Y-114235280D01*
X102568266Y-114203755D01*
X102564701Y-114165093D01*
X102561744Y-114118107D01*
X102559340Y-114061608D01*
X102557431Y-113994409D01*
X102555962Y-113915322D01*
X102554876Y-113823160D01*
X102554118Y-113716734D01*
X102553630Y-113594857D01*
X102553358Y-113456341D01*
X102553243Y-113299999D01*
X102553231Y-113124642D01*
X102553265Y-112929082D01*
X102553289Y-112712133D01*
X102553280Y-112589513D01*
X102553243Y-112384447D01*
X102553227Y-112200116D01*
X102553288Y-112035334D01*
X102553484Y-111888916D01*
X102553870Y-111759674D01*
X102554505Y-111646422D01*
X102555444Y-111547975D01*
X102556745Y-111463144D01*
X102558464Y-111390744D01*
X102560659Y-111329589D01*
X102563385Y-111278492D01*
X102566701Y-111236267D01*
X102570662Y-111201727D01*
X102575325Y-111173686D01*
X102580747Y-111150958D01*
X102586986Y-111132356D01*
X102594097Y-111116693D01*
X102602138Y-111102784D01*
X102611166Y-111089441D01*
X102621236Y-111075479D01*
X102632407Y-111059711D01*
X102672197Y-111001867D01*
X101612314Y-111001867D01*
X101650311Y-111064966D01*
X101664993Y-111090005D01*
X101679531Y-111117586D01*
X101691627Y-111145700D01*
X101701532Y-111176551D01*
X101709494Y-111212344D01*
X101715761Y-111255283D01*
X101720582Y-111307574D01*
X101724206Y-111371419D01*
X101726881Y-111449025D01*
X101728857Y-111542594D01*
X101730382Y-111654333D01*
X101731704Y-111786445D01*
X101732613Y-111906434D01*
X101733020Y-112023063D01*
X101732767Y-112118531D01*
X101731857Y-112192556D01*
X101730293Y-112244855D01*
X101728079Y-112275149D01*
X101725220Y-112283156D01*
X101722161Y-112279858D01*
X101704006Y-112258408D01*
X101674275Y-112221889D01*
X101634639Y-112172442D01*
X101586771Y-112112207D01*
X101532343Y-112043327D01*
X101473027Y-111967943D01*
X101410495Y-111888196D01*
X101346421Y-111806228D01*
X101282475Y-111724180D01*
X101220331Y-111644194D01*
X101161661Y-111568411D01*
X101108137Y-111498973D01*
X101061430Y-111438021D01*
X101023214Y-111387696D01*
X100995161Y-111350140D01*
X100978943Y-111327495D01*
X100933635Y-111255212D01*
X100893661Y-111175463D01*
X100872130Y-111107188D01*
X100868827Y-111049844D01*
X100874116Y-111001867D01*
X99742356Y-111002117D01*
X99781867Y-111032722D01*
X99791248Y-111040089D01*
X99854183Y-111094438D01*
X99922997Y-111162259D01*
X99999596Y-111245516D01*
X100085888Y-111346178D01*
X100103052Y-111366847D01*
X100143833Y-111416409D01*
X100193588Y-111477326D01*
X100250955Y-111547898D01*
X100314569Y-111626424D01*
X100383069Y-111711204D01*
X100455090Y-111800537D01*
X100529270Y-111892722D01*
X100544517Y-111911702D01*
X100604246Y-111986060D01*
X100678653Y-112078848D01*
X100751131Y-112169388D01*
X100820314Y-112255978D01*
X100884841Y-112336918D01*
X100943347Y-112410506D01*
X100994470Y-112475044D01*
X101036847Y-112528829D01*
X101069115Y-112570162D01*
X101089910Y-112597342D01*
X101097869Y-112608668D01*
X101096111Y-112612771D01*
X101083230Y-112633334D01*
X101058885Y-112669561D01*
X101024247Y-112719824D01*
X100980486Y-112782492D01*
X100928775Y-112855936D01*
X100870284Y-112938527D01*
X100806184Y-113028636D01*
X100737646Y-113124631D01*
X100665843Y-113224885D01*
X100591944Y-113327768D01*
X100517121Y-113431650D01*
X100442545Y-113534901D01*
X100369387Y-113635892D01*
X100298819Y-113732994D01*
X100232011Y-113824577D01*
X100170135Y-113909011D01*
X100114361Y-113984667D01*
X100065862Y-114049916D01*
X100025807Y-114103128D01*
X99995369Y-114142673D01*
X99974944Y-114168026D01*
X99928899Y-114222295D01*
X99878612Y-114278775D01*
X99831815Y-114328669D01*
X99740651Y-114422400D01*
X99042445Y-114422400D01*
X99111356Y-114422349D01*
X99209607Y-114422091D01*
X99299030Y-114421637D01*
X99377333Y-114421010D01*
X99442223Y-114420235D01*
X99491411Y-114419335D01*
X99522604Y-114418334D01*
X99533511Y-114417257D01*
X99532322Y-114414037D01*
X99522176Y-114396452D01*
X99505040Y-114370158D01*
X99496540Y-114357691D01*
X99487329Y-114343622D01*
X99479233Y-114329351D01*
X99472185Y-114313479D01*
X99466117Y-114294609D01*
X99460961Y-114271341D01*
X99456651Y-114242278D01*
X99453119Y-114206021D01*
X99450297Y-114161170D01*
X99448118Y-114106328D01*
X99446514Y-114040097D01*
X99445419Y-113961077D01*
X99444765Y-113867871D01*
X99444484Y-113759079D01*
X99444509Y-113633303D01*
X99444772Y-113489145D01*
X99445206Y-113325207D01*
X99445745Y-113140089D01*
X99446279Y-112961232D01*
X99446805Y-112802374D01*
X99447350Y-112663316D01*
X99447945Y-112542665D01*
X99448619Y-112439028D01*
X99449403Y-112351011D01*
X99450326Y-112277223D01*
X99451419Y-112216269D01*
X99452712Y-112166757D01*
X99454235Y-112127293D01*
X99456019Y-112096484D01*
X99458092Y-112072938D01*
X99460486Y-112055260D01*
X99463230Y-112042059D01*
X99466356Y-112031940D01*
X99469892Y-112023511D01*
X99473791Y-112015375D01*
X99493438Y-111978544D01*
X99512225Y-111948391D01*
X99513272Y-111946908D01*
X99527602Y-111924659D01*
X99533511Y-111911702D01*
X99532504Y-111911249D01*
X99515305Y-111909803D01*
X99478656Y-111908480D01*
X99424962Y-111907316D01*
X99356630Y-111906347D01*
X99276064Y-111905611D01*
X99185670Y-111905142D01*
X99087853Y-111904978D01*
X98642195Y-111904978D01*
X98639120Y-113081845D01*
X98636045Y-114258711D01*
X98609407Y-114317622D01*
X98597485Y-114342183D01*
X98580246Y-114372434D01*
X98567074Y-114389560D01*
X98559076Y-114397591D01*
X98551378Y-114412493D01*
X98259942Y-114412493D01*
X98259474Y-114320029D01*
X98259050Y-114204617D01*
X98258706Y-114074160D01*
X98258434Y-113927716D01*
X98258227Y-113764344D01*
X98258076Y-113583101D01*
X98257972Y-113383048D01*
X98257908Y-113163241D01*
X98257876Y-112922739D01*
X98257867Y-112660602D01*
X98257867Y-110469031D01*
X98296249Y-110430649D01*
X98323355Y-110406911D01*
X98350253Y-110395111D01*
X98386560Y-110392267D01*
X98438489Y-110392267D01*
X98438489Y-110480206D01*
X98440427Y-110530102D01*
X98459199Y-110640523D01*
X98496217Y-110741987D01*
X98549369Y-110833152D01*
X98616546Y-110912673D01*
X98695638Y-110979205D01*
X98784534Y-111031406D01*
X98881125Y-111067930D01*
X98983300Y-111087434D01*
X99088950Y-111088573D01*
X99195964Y-111070005D01*
X99302232Y-111030384D01*
X99399219Y-110972516D01*
X99484293Y-110897684D01*
X99553015Y-110809615D01*
X99603918Y-110710616D01*
X99635535Y-110602993D01*
X99646400Y-110489054D01*
X99646400Y-110392267D01*
X101266753Y-110392267D01*
X101477897Y-110392280D01*
X101682020Y-110392330D01*
X101865686Y-110392430D01*
X102029991Y-110392592D01*
X102176029Y-110392829D01*
X102304894Y-110393153D01*
X102417683Y-110393575D01*
X102515488Y-110394109D01*
X102599404Y-110394767D01*
X102670527Y-110395561D01*
X102729950Y-110396504D01*
X102778768Y-110397608D01*
X102818077Y-110398884D01*
X102848969Y-110400347D01*
X102872541Y-110402007D01*
X102889886Y-110403878D01*
X102902099Y-110405972D01*
X102910275Y-110408300D01*
X102915508Y-110410876D01*
X102921504Y-110414445D01*
X102928279Y-110417978D01*
X102934478Y-110421488D01*
X102940126Y-110425918D01*
X102945247Y-110432208D01*
X102949869Y-110441301D01*
X102954015Y-110454139D01*
X102957713Y-110471662D01*
X102960987Y-110494813D01*
X102963863Y-110524534D01*
X102966367Y-110561765D01*
X102968524Y-110607449D01*
X102970360Y-110662527D01*
X102971900Y-110727941D01*
X102973170Y-110804633D01*
X102974195Y-110893544D01*
X102975001Y-110995617D01*
X102975034Y-111001867D01*
X102975614Y-111111792D01*
G36*
X102975614Y-111111792D02*
G01*
X102976059Y-111243011D01*
X102976362Y-111390216D01*
X102976548Y-111554349D01*
X102976642Y-111736352D01*
X102976671Y-111937165D01*
X102976661Y-112157732D01*
X102976636Y-112398992D01*
X102976622Y-112661889D01*
X102976622Y-112704040D01*
X102976646Y-112964668D01*
X102976685Y-113203796D01*
X102976708Y-113422360D01*
X102976687Y-113621295D01*
X102976593Y-113801535D01*
X102976395Y-113964015D01*
X102976063Y-114109670D01*
X102975569Y-114239434D01*
X102974883Y-114354243D01*
X102973976Y-114455030D01*
X102972817Y-114542730D01*
X102971378Y-114618279D01*
X102969629Y-114682611D01*
X102967540Y-114736661D01*
X102965083Y-114781363D01*
X102962227Y-114817652D01*
X102958943Y-114846463D01*
X102955202Y-114868731D01*
X102950974Y-114885390D01*
X102946229Y-114897375D01*
X102940939Y-114905621D01*
X102935073Y-114911062D01*
X102928602Y-114914634D01*
X102921497Y-114917270D01*
X102913728Y-114919906D01*
X102905266Y-114923477D01*
X102900908Y-114925145D01*
X102892395Y-114927111D01*
X102879694Y-114928911D01*
X102861885Y-114930555D01*
X102838049Y-114932047D01*
X102807266Y-114933397D01*
X102768617Y-114934611D01*
X102721182Y-114935697D01*
X102664043Y-114936661D01*
X102596279Y-114937511D01*
X102516971Y-114938253D01*
X102425199Y-114938897D01*
X102320044Y-114939447D01*
X102200587Y-114939913D01*
X102065908Y-114940300D01*
X101915088Y-114940616D01*
X101747206Y-114940869D01*
X101561345Y-114941066D01*
X101356583Y-114941213D01*
X101132002Y-114941318D01*
X100886682Y-114941389D01*
X100619704Y-114941432D01*
X100581321Y-114941437D01*
X100315922Y-114941480D01*
X100072050Y-114941525D01*
X99848783Y-114941548D01*
X99645196Y-114941524D01*
X99460367Y-114941430D01*
X99293373Y-114941243D01*
X99143290Y-114940939D01*
X99009196Y-114940494D01*
X98890166Y-114939885D01*
X98785279Y-114939089D01*
X98693610Y-114938080D01*
X98614237Y-114936837D01*
X98546237Y-114935335D01*
X98488686Y-114933551D01*
X98440662Y-114931461D01*
X98401240Y-114929042D01*
X98369499Y-114926270D01*
X98344514Y-114923121D01*
X98325364Y-114919572D01*
X98311123Y-114915598D01*
X98300871Y-114911178D01*
X98293682Y-114906286D01*
X98288635Y-114900900D01*
X98284805Y-114894996D01*
X98281271Y-114888549D01*
X98277108Y-114881537D01*
X98276025Y-114879687D01*
X98273813Y-114874180D01*
X98271786Y-114865868D01*
X98269938Y-114853809D01*
X98268261Y-114837063D01*
X98266745Y-114814687D01*
X98265383Y-114785740D01*
X98264167Y-114749280D01*
X98263089Y-114704367D01*
X98262140Y-114650057D01*
X98261312Y-114585410D01*
X98260597Y-114509484D01*
X98259987Y-114421338D01*
X98259942Y-114412493D01*
X98551378Y-114412493D01*
X98555260Y-114413765D01*
X98578520Y-114415791D01*
X98620874Y-114417626D01*
X98680132Y-114419227D01*
X98754107Y-114420549D01*
X98840610Y-114421548D01*
X98937452Y-114422180D01*
X99042445Y-114422400D01*
X99740651Y-114422400D01*
X100895090Y-114422400D01*
X100894456Y-114346200D01*
X100895574Y-114304160D01*
X100901304Y-114268334D01*
X100913890Y-114230772D01*
X100935568Y-114182577D01*
X100938789Y-114175897D01*
X100964188Y-114126359D01*
X100990996Y-114078369D01*
X101013917Y-114041466D01*
X101018485Y-114034834D01*
X101040516Y-114003593D01*
X101072693Y-113958654D01*
X101113457Y-113902147D01*
X101161245Y-113836204D01*
X101214498Y-113762957D01*
X101271655Y-113684536D01*
X101331155Y-113603072D01*
X101391437Y-113520698D01*
X101450940Y-113439544D01*
X101508105Y-113361742D01*
X101561370Y-113289423D01*
X101609174Y-113224718D01*
X101649957Y-113169759D01*
X101682158Y-113126676D01*
X101704216Y-113097602D01*
X101714571Y-113084667D01*
X101719044Y-113080351D01*
X101723236Y-113078312D01*
X101726643Y-113080926D01*
X101729325Y-113089986D01*
X101731341Y-113107285D01*
X101732748Y-113134614D01*
X101733605Y-113173765D01*
X101733970Y-113226533D01*
X101733903Y-113294707D01*
X101733460Y-113380082D01*
X101732702Y-113484449D01*
X101731685Y-113609600D01*
X101731308Y-113654300D01*
X101730169Y-113775395D01*
X101728972Y-113876688D01*
X101727636Y-113960262D01*
X101726077Y-114028204D01*
X101724215Y-114082599D01*
X101721966Y-114125532D01*
X101719248Y-114159089D01*
X101715979Y-114185355D01*
X101712078Y-114206416D01*
X101707461Y-114224357D01*
X101699192Y-114250770D01*
X101675583Y-114312772D01*
X101649685Y-114365573D01*
X101624535Y-114402645D01*
X101623339Y-114404075D01*
X101621168Y-114408424D01*
X101623328Y-114412026D01*
X101631644Y-114414951D01*
X101647940Y-114417269D01*
X101674041Y-114419051D01*
X101711771Y-114420367D01*
X101762956Y-114421286D01*
X101829420Y-114421878D01*
X101912987Y-114422215D01*
X102015483Y-114422365D01*
X102138732Y-114422400D01*
X102670296Y-114422400D01*
X102631523Y-114364783D01*
X102625432Y-114355893D01*
X102614976Y-114341069D01*
X102605579Y-114327422D01*
X102597183Y-114313765D01*
X102589733Y-114298911D01*
X102583173Y-114281670D01*
X102577446Y-114260855D01*
X102572495Y-114235280D01*
X102568266Y-114203755D01*
X102564701Y-114165093D01*
X102561744Y-114118107D01*
X102559340Y-114061608D01*
X102557431Y-113994409D01*
X102555962Y-113915322D01*
X102554876Y-113823160D01*
X102554118Y-113716734D01*
X102553630Y-113594857D01*
X102553358Y-113456341D01*
X102553243Y-113299999D01*
X102553231Y-113124642D01*
X102553265Y-112929082D01*
X102553289Y-112712133D01*
X102553280Y-112589513D01*
X102553243Y-112384447D01*
X102553227Y-112200116D01*
X102553288Y-112035334D01*
X102553484Y-111888916D01*
X102553870Y-111759674D01*
X102554505Y-111646422D01*
X102555444Y-111547975D01*
X102556745Y-111463144D01*
X102558464Y-111390744D01*
X102560659Y-111329589D01*
X102563385Y-111278492D01*
X102566701Y-111236267D01*
X102570662Y-111201727D01*
X102575325Y-111173686D01*
X102580747Y-111150958D01*
X102586986Y-111132356D01*
X102594097Y-111116693D01*
X102602138Y-111102784D01*
X102611166Y-111089441D01*
X102621236Y-111075479D01*
X102632407Y-111059711D01*
X102672197Y-111001867D01*
X101612314Y-111001867D01*
X101650311Y-111064966D01*
X101664993Y-111090005D01*
X101679531Y-111117586D01*
X101691627Y-111145700D01*
X101701532Y-111176551D01*
X101709494Y-111212344D01*
X101715761Y-111255283D01*
X101720582Y-111307574D01*
X101724206Y-111371419D01*
X101726881Y-111449025D01*
X101728857Y-111542594D01*
X101730382Y-111654333D01*
X101731704Y-111786445D01*
X101732613Y-111906434D01*
X101733020Y-112023063D01*
X101732767Y-112118531D01*
X101731857Y-112192556D01*
X101730293Y-112244855D01*
X101728079Y-112275149D01*
X101725220Y-112283156D01*
X101722161Y-112279858D01*
X101704006Y-112258408D01*
X101674275Y-112221889D01*
X101634639Y-112172442D01*
X101586771Y-112112207D01*
X101532343Y-112043327D01*
X101473027Y-111967943D01*
X101410495Y-111888196D01*
X101346421Y-111806228D01*
X101282475Y-111724180D01*
X101220331Y-111644194D01*
X101161661Y-111568411D01*
X101108137Y-111498973D01*
X101061430Y-111438021D01*
X101023214Y-111387696D01*
X100995161Y-111350140D01*
X100978943Y-111327495D01*
X100933635Y-111255212D01*
X100893661Y-111175463D01*
X100872130Y-111107188D01*
X100868827Y-111049844D01*
X100874116Y-111001867D01*
X99742356Y-111002117D01*
X99781867Y-111032722D01*
X99791248Y-111040089D01*
X99854183Y-111094438D01*
X99922997Y-111162259D01*
X99999596Y-111245516D01*
X100085888Y-111346178D01*
X100103052Y-111366847D01*
X100143833Y-111416409D01*
X100193588Y-111477326D01*
X100250955Y-111547898D01*
X100314569Y-111626424D01*
X100383069Y-111711204D01*
X100455090Y-111800537D01*
X100529270Y-111892722D01*
X100544517Y-111911702D01*
X100604246Y-111986060D01*
X100678653Y-112078848D01*
X100751131Y-112169388D01*
X100820314Y-112255978D01*
X100884841Y-112336918D01*
X100943347Y-112410506D01*
X100994470Y-112475044D01*
X101036847Y-112528829D01*
X101069115Y-112570162D01*
X101089910Y-112597342D01*
X101097869Y-112608668D01*
X101096111Y-112612771D01*
X101083230Y-112633334D01*
X101058885Y-112669561D01*
X101024247Y-112719824D01*
X100980486Y-112782492D01*
X100928775Y-112855936D01*
X100870284Y-112938527D01*
X100806184Y-113028636D01*
X100737646Y-113124631D01*
X100665843Y-113224885D01*
X100591944Y-113327768D01*
X100517121Y-113431650D01*
X100442545Y-113534901D01*
X100369387Y-113635892D01*
X100298819Y-113732994D01*
X100232011Y-113824577D01*
X100170135Y-113909011D01*
X100114361Y-113984667D01*
X100065862Y-114049916D01*
X100025807Y-114103128D01*
X99995369Y-114142673D01*
X99974944Y-114168026D01*
X99928899Y-114222295D01*
X99878612Y-114278775D01*
X99831815Y-114328669D01*
X99740651Y-114422400D01*
X99042445Y-114422400D01*
X99111356Y-114422349D01*
X99209607Y-114422091D01*
X99299030Y-114421637D01*
X99377333Y-114421010D01*
X99442223Y-114420235D01*
X99491411Y-114419335D01*
X99522604Y-114418334D01*
X99533511Y-114417257D01*
X99532322Y-114414037D01*
X99522176Y-114396452D01*
X99505040Y-114370158D01*
X99496540Y-114357691D01*
X99487329Y-114343622D01*
X99479233Y-114329351D01*
X99472185Y-114313479D01*
X99466117Y-114294609D01*
X99460961Y-114271341D01*
X99456651Y-114242278D01*
X99453119Y-114206021D01*
X99450297Y-114161170D01*
X99448118Y-114106328D01*
X99446514Y-114040097D01*
X99445419Y-113961077D01*
X99444765Y-113867871D01*
X99444484Y-113759079D01*
X99444509Y-113633303D01*
X99444772Y-113489145D01*
X99445206Y-113325207D01*
X99445745Y-113140089D01*
X99446279Y-112961232D01*
X99446805Y-112802374D01*
X99447350Y-112663316D01*
X99447945Y-112542665D01*
X99448619Y-112439028D01*
X99449403Y-112351011D01*
X99450326Y-112277223D01*
X99451419Y-112216269D01*
X99452712Y-112166757D01*
X99454235Y-112127293D01*
X99456019Y-112096484D01*
X99458092Y-112072938D01*
X99460486Y-112055260D01*
X99463230Y-112042059D01*
X99466356Y-112031940D01*
X99469892Y-112023511D01*
X99473791Y-112015375D01*
X99493438Y-111978544D01*
X99512225Y-111948391D01*
X99513272Y-111946908D01*
X99527602Y-111924659D01*
X99533511Y-111911702D01*
X99532504Y-111911249D01*
X99515305Y-111909803D01*
X99478656Y-111908480D01*
X99424962Y-111907316D01*
X99356630Y-111906347D01*
X99276064Y-111905611D01*
X99185670Y-111905142D01*
X99087853Y-111904978D01*
X98642195Y-111904978D01*
X98639120Y-113081845D01*
X98636045Y-114258711D01*
X98609407Y-114317622D01*
X98597485Y-114342183D01*
X98580246Y-114372434D01*
X98567074Y-114389560D01*
X98559076Y-114397591D01*
X98551378Y-114412493D01*
X98259942Y-114412493D01*
X98259474Y-114320029D01*
X98259050Y-114204617D01*
X98258706Y-114074160D01*
X98258434Y-113927716D01*
X98258227Y-113764344D01*
X98258076Y-113583101D01*
X98257972Y-113383048D01*
X98257908Y-113163241D01*
X98257876Y-112922739D01*
X98257867Y-112660602D01*
X98257867Y-110469031D01*
X98296249Y-110430649D01*
X98323355Y-110406911D01*
X98350253Y-110395111D01*
X98386560Y-110392267D01*
X98438489Y-110392267D01*
X98438489Y-110480206D01*
X98440427Y-110530102D01*
X98459199Y-110640523D01*
X98496217Y-110741987D01*
X98549369Y-110833152D01*
X98616546Y-110912673D01*
X98695638Y-110979205D01*
X98784534Y-111031406D01*
X98881125Y-111067930D01*
X98983300Y-111087434D01*
X99088950Y-111088573D01*
X99195964Y-111070005D01*
X99302232Y-111030384D01*
X99399219Y-110972516D01*
X99484293Y-110897684D01*
X99553015Y-110809615D01*
X99603918Y-110710616D01*
X99635535Y-110602993D01*
X99646400Y-110489054D01*
X99646400Y-110392267D01*
X101266753Y-110392267D01*
X101477897Y-110392280D01*
X101682020Y-110392330D01*
X101865686Y-110392430D01*
X102029991Y-110392592D01*
X102176029Y-110392829D01*
X102304894Y-110393153D01*
X102417683Y-110393575D01*
X102515488Y-110394109D01*
X102599404Y-110394767D01*
X102670527Y-110395561D01*
X102729950Y-110396504D01*
X102778768Y-110397608D01*
X102818077Y-110398884D01*
X102848969Y-110400347D01*
X102872541Y-110402007D01*
X102889886Y-110403878D01*
X102902099Y-110405972D01*
X102910275Y-110408300D01*
X102915508Y-110410876D01*
X102921504Y-110414445D01*
X102928279Y-110417978D01*
X102934478Y-110421488D01*
X102940126Y-110425918D01*
X102945247Y-110432208D01*
X102949869Y-110441301D01*
X102954015Y-110454139D01*
X102957713Y-110471662D01*
X102960987Y-110494813D01*
X102963863Y-110524534D01*
X102966367Y-110561765D01*
X102968524Y-110607449D01*
X102970360Y-110662527D01*
X102971900Y-110727941D01*
X102973170Y-110804633D01*
X102974195Y-110893544D01*
X102975001Y-110995617D01*
X102975034Y-111001867D01*
X102975614Y-111111792D01*
G37*
X93287128Y-137953945D02*
X93317954Y-137963568D01*
X93355916Y-137979563D01*
X93374296Y-137988159D01*
X93387561Y-137989713D01*
X93390495Y-137977798D01*
X93390498Y-137977461D01*
X93396709Y-137966087D01*
X93418131Y-137960256D01*
X93459653Y-137958614D01*
X93528812Y-137958614D01*
X93528812Y-138562179D01*
X93390495Y-138562179D01*
X93390495Y-138146027D01*
X93356110Y-138114161D01*
X93345368Y-138105104D01*
X93313370Y-138089630D01*
X93273965Y-138089010D01*
X93220312Y-138102664D01*
X93202225Y-138103529D01*
X93181008Y-138090283D01*
X93152768Y-138058800D01*
X93139069Y-138041385D01*
X93122868Y-138016797D01*
X93120371Y-138001145D01*
X93129442Y-137987941D01*
X93157289Y-137971245D01*
X93200540Y-137958030D01*
X93247464Y-137951478D01*
X93287128Y-137953945D01*
G36*
X93287128Y-137953945D02*
G01*
X93317954Y-137963568D01*
X93355916Y-137979563D01*
X93374296Y-137988159D01*
X93387561Y-137989713D01*
X93390495Y-137977798D01*
X93390498Y-137977461D01*
X93396709Y-137966087D01*
X93418131Y-137960256D01*
X93459653Y-137958614D01*
X93528812Y-137958614D01*
X93528812Y-138562179D01*
X93390495Y-138562179D01*
X93390495Y-138146027D01*
X93356110Y-138114161D01*
X93345368Y-138105104D01*
X93313370Y-138089630D01*
X93273965Y-138089010D01*
X93220312Y-138102664D01*
X93202225Y-138103529D01*
X93181008Y-138090283D01*
X93152768Y-138058800D01*
X93139069Y-138041385D01*
X93122868Y-138016797D01*
X93120371Y-138001145D01*
X93129442Y-137987941D01*
X93157289Y-137971245D01*
X93200540Y-137958030D01*
X93247464Y-137951478D01*
X93287128Y-137953945D01*
G37*
X93470265Y-138909965D02*
X93508255Y-138927745D01*
X93541386Y-138953806D01*
X93541386Y-138927745D01*
X93542211Y-138917849D01*
X93549893Y-138907358D01*
X93570667Y-138902725D01*
X93610544Y-138901683D01*
X93679703Y-138901683D01*
X93679703Y-139517822D01*
X93541386Y-139517822D01*
X93541386Y-139317226D01*
X93541369Y-139305710D01*
X93540189Y-139224758D01*
X93537294Y-139158817D01*
X93532888Y-139111258D01*
X93527181Y-139085452D01*
X93521940Y-139075710D01*
X93489676Y-139045156D01*
X93445730Y-139031631D01*
X93397743Y-139037941D01*
X93385973Y-139042217D01*
X93360898Y-139049776D01*
X93343762Y-139047428D01*
X93326518Y-139032064D01*
X93301124Y-139000571D01*
X93259936Y-138948568D01*
X93288886Y-138925125D01*
X93316405Y-138911015D01*
X93364745Y-138901486D01*
X93419230Y-138901174D01*
X93470265Y-138909965D01*
G36*
X93470265Y-138909965D02*
G01*
X93508255Y-138927745D01*
X93541386Y-138953806D01*
X93541386Y-138927745D01*
X93542211Y-138917849D01*
X93549893Y-138907358D01*
X93570667Y-138902725D01*
X93610544Y-138901683D01*
X93679703Y-138901683D01*
X93679703Y-139517822D01*
X93541386Y-139517822D01*
X93541386Y-139317226D01*
X93541369Y-139305710D01*
X93540189Y-139224758D01*
X93537294Y-139158817D01*
X93532888Y-139111258D01*
X93527181Y-139085452D01*
X93521940Y-139075710D01*
X93489676Y-139045156D01*
X93445730Y-139031631D01*
X93397743Y-139037941D01*
X93385973Y-139042217D01*
X93360898Y-139049776D01*
X93343762Y-139047428D01*
X93326518Y-139032064D01*
X93301124Y-139000571D01*
X93259936Y-138948568D01*
X93288886Y-138925125D01*
X93316405Y-138911015D01*
X93364745Y-138901486D01*
X93419230Y-138901174D01*
X93470265Y-138909965D01*
G37*
X96093960Y-139517822D02*
X95968218Y-139517822D01*
X95968218Y-139323740D01*
X95968078Y-139278594D01*
X95966649Y-139203823D01*
X95963029Y-139148467D01*
X95956434Y-139108702D01*
X95946079Y-139080700D01*
X95931178Y-139060635D01*
X95910946Y-139044681D01*
X95888859Y-139032792D01*
X95862705Y-139029421D01*
X95825508Y-139036917D01*
X95813555Y-139040038D01*
X95783718Y-139044735D01*
X95762383Y-139038005D01*
X95737655Y-139017177D01*
X95732963Y-139012647D01*
X95707020Y-138984626D01*
X95690291Y-138961843D01*
X95687996Y-138956355D01*
X95692543Y-138936088D01*
X95715602Y-138919884D01*
X95751995Y-138908513D01*
X95796544Y-138902740D01*
X95844072Y-138903334D01*
X95889400Y-138911063D01*
X95927351Y-138926694D01*
X95939381Y-138933993D01*
X95959632Y-138944676D01*
X95967129Y-138942230D01*
X95968218Y-138926647D01*
X95968473Y-138921053D01*
X95974539Y-138908660D01*
X95993356Y-138903020D01*
X96031089Y-138901683D01*
X96093960Y-138901683D01*
X96093960Y-139517822D01*
G36*
X96093960Y-139517822D02*
G01*
X95968218Y-139517822D01*
X95968218Y-139323740D01*
X95968078Y-139278594D01*
X95966649Y-139203823D01*
X95963029Y-139148467D01*
X95956434Y-139108702D01*
X95946079Y-139080700D01*
X95931178Y-139060635D01*
X95910946Y-139044681D01*
X95888859Y-139032792D01*
X95862705Y-139029421D01*
X95825508Y-139036917D01*
X95813555Y-139040038D01*
X95783718Y-139044735D01*
X95762383Y-139038005D01*
X95737655Y-139017177D01*
X95732963Y-139012647D01*
X95707020Y-138984626D01*
X95690291Y-138961843D01*
X95687996Y-138956355D01*
X95692543Y-138936088D01*
X95715602Y-138919884D01*
X95751995Y-138908513D01*
X95796544Y-138902740D01*
X95844072Y-138903334D01*
X95889400Y-138911063D01*
X95927351Y-138926694D01*
X95939381Y-138933993D01*
X95959632Y-138944676D01*
X95967129Y-138942230D01*
X95968218Y-138926647D01*
X95968473Y-138921053D01*
X95974539Y-138908660D01*
X95993356Y-138903020D01*
X96031089Y-138901683D01*
X96093960Y-138901683D01*
X96093960Y-139517822D01*
G37*
X93780297Y-138154342D02*
X93781357Y-138242394D01*
X93785509Y-138313510D01*
X93793921Y-138365199D01*
X93807757Y-138400360D01*
X93828182Y-138421889D01*
X93856364Y-138432682D01*
X93893465Y-138435636D01*
X93928890Y-138433000D01*
X93957500Y-138422679D01*
X93978296Y-138401772D01*
X93992442Y-138367381D01*
X94001103Y-138316610D01*
X94005445Y-138246563D01*
X94006633Y-138154342D01*
X94006633Y-137958614D01*
X94132376Y-137958614D01*
X94132376Y-138194578D01*
X94132160Y-138257561D01*
X94130484Y-138339007D01*
X94126277Y-138401121D01*
X94118521Y-138447458D01*
X94106196Y-138481573D01*
X94088285Y-138507022D01*
X94063767Y-138527362D01*
X94031623Y-138546147D01*
X93964125Y-138569928D01*
X93893681Y-138571480D01*
X93827264Y-138549580D01*
X93798286Y-138535383D01*
X93783909Y-138533261D01*
X93780297Y-138543293D01*
X93774299Y-138554556D01*
X93752830Y-138560489D01*
X93711138Y-138562179D01*
X93641980Y-138562179D01*
X93641980Y-137958614D01*
X93780297Y-137958614D01*
X93780297Y-138154342D01*
G36*
X93780297Y-138154342D02*
G01*
X93781357Y-138242394D01*
X93785509Y-138313510D01*
X93793921Y-138365199D01*
X93807757Y-138400360D01*
X93828182Y-138421889D01*
X93856364Y-138432682D01*
X93893465Y-138435636D01*
X93928890Y-138433000D01*
X93957500Y-138422679D01*
X93978296Y-138401772D01*
X93992442Y-138367381D01*
X94001103Y-138316610D01*
X94005445Y-138246563D01*
X94006633Y-138154342D01*
X94006633Y-137958614D01*
X94132376Y-137958614D01*
X94132376Y-138194578D01*
X94132160Y-138257561D01*
X94130484Y-138339007D01*
X94126277Y-138401121D01*
X94118521Y-138447458D01*
X94106196Y-138481573D01*
X94088285Y-138507022D01*
X94063767Y-138527362D01*
X94031623Y-138546147D01*
X93964125Y-138569928D01*
X93893681Y-138571480D01*
X93827264Y-138549580D01*
X93798286Y-138535383D01*
X93783909Y-138533261D01*
X93780297Y-138543293D01*
X93774299Y-138554556D01*
X93752830Y-138560489D01*
X93711138Y-138562179D01*
X93641980Y-138562179D01*
X93641980Y-137958614D01*
X93780297Y-137958614D01*
X93780297Y-138154342D01*
G37*
X95882605Y-137957424D02*
X95939926Y-137975434D01*
X95965199Y-137987674D01*
X95977910Y-137988938D01*
X95980792Y-137977798D01*
X95980795Y-137977461D01*
X95987006Y-137966087D01*
X96008428Y-137960256D01*
X96049950Y-137958614D01*
X96119109Y-137958614D01*
X96119109Y-138562179D01*
X95980792Y-138562179D01*
X95980792Y-138354132D01*
X95980697Y-138283879D01*
X95980051Y-138226170D01*
X95978320Y-138185787D01*
X95974974Y-138158615D01*
X95969481Y-138140540D01*
X95961310Y-138127447D01*
X95949928Y-138115221D01*
X95934424Y-138102217D01*
X95889843Y-138084745D01*
X95843047Y-138089873D01*
X95800180Y-138117507D01*
X95787927Y-138130368D01*
X95779132Y-138143384D01*
X95773233Y-138160706D01*
X95769651Y-138186501D01*
X95767809Y-138224939D01*
X95767128Y-138280189D01*
X95767030Y-138356418D01*
X95767030Y-138562179D01*
X95628713Y-138562179D01*
X95628989Y-138338985D01*
X95629008Y-138329044D01*
X95630207Y-138234106D01*
X95633891Y-138160358D01*
X95641006Y-138104214D01*
X95652500Y-138062087D01*
X95669318Y-138030391D01*
X95692409Y-138005541D01*
X95722717Y-137983950D01*
X95754012Y-137969002D01*
X95817037Y-137955421D01*
X95882605Y-137957424D01*
G36*
X95882605Y-137957424D02*
G01*
X95939926Y-137975434D01*
X95965199Y-137987674D01*
X95977910Y-137988938D01*
X95980792Y-137977798D01*
X95980795Y-137977461D01*
X95987006Y-137966087D01*
X96008428Y-137960256D01*
X96049950Y-137958614D01*
X96119109Y-137958614D01*
X96119109Y-138562179D01*
X95980792Y-138562179D01*
X95980792Y-138354132D01*
X95980697Y-138283879D01*
X95980051Y-138226170D01*
X95978320Y-138185787D01*
X95974974Y-138158615D01*
X95969481Y-138140540D01*
X95961310Y-138127447D01*
X95949928Y-138115221D01*
X95934424Y-138102217D01*
X95889843Y-138084745D01*
X95843047Y-138089873D01*
X95800180Y-138117507D01*
X95787927Y-138130368D01*
X95779132Y-138143384D01*
X95773233Y-138160706D01*
X95769651Y-138186501D01*
X95767809Y-138224939D01*
X95767128Y-138280189D01*
X95767030Y-138356418D01*
X95767030Y-138562179D01*
X95628713Y-138562179D01*
X95628989Y-138338985D01*
X95629008Y-138329044D01*
X95630207Y-138234106D01*
X95633891Y-138160358D01*
X95641006Y-138104214D01*
X95652500Y-138062087D01*
X95669318Y-138030391D01*
X95692409Y-138005541D01*
X95722717Y-137983950D01*
X95754012Y-137969002D01*
X95817037Y-137955421D01*
X95882605Y-137957424D01*
G37*
X92933409Y-137961493D02*
X93002021Y-137988224D01*
X93060048Y-138032351D01*
X93102907Y-138092958D01*
X93105801Y-138099137D01*
X93124176Y-138159409D01*
X93133357Y-138231407D01*
X93133285Y-138306369D01*
X93123901Y-138375536D01*
X93105149Y-138430149D01*
X93081995Y-138468212D01*
X93031030Y-138522135D01*
X92967306Y-138556411D01*
X92912785Y-138570272D01*
X92829767Y-138571785D01*
X92750326Y-138550882D01*
X92679879Y-138508464D01*
X92634284Y-138470880D01*
X92675351Y-138428510D01*
X92701296Y-138403409D01*
X92724764Y-138389434D01*
X92746524Y-138392511D01*
X92774356Y-138411287D01*
X92785454Y-138418638D01*
X92832337Y-138433683D01*
X92886224Y-138433673D01*
X92936675Y-138418168D01*
X92955672Y-138405716D01*
X92983537Y-138368946D01*
X92997506Y-138314939D01*
X92998405Y-138241331D01*
X92998403Y-138241289D01*
X92988009Y-138175433D01*
X92965114Y-138129772D01*
X92927439Y-138101528D01*
X92872708Y-138087920D01*
X92838241Y-138086090D01*
X92808126Y-138093584D01*
X92777240Y-138115295D01*
X92737272Y-138148926D01*
X92686656Y-138108250D01*
X92668163Y-138092667D01*
X92645065Y-138070340D01*
X92636039Y-138057183D01*
X92639236Y-138051253D01*
X92657646Y-138033048D01*
X92686973Y-138009895D01*
X92709920Y-137994830D01*
X92782774Y-137963880D01*
X92858799Y-137953073D01*
X92933409Y-137961493D01*
G36*
X92933409Y-137961493D02*
G01*
X93002021Y-137988224D01*
X93060048Y-138032351D01*
X93102907Y-138092958D01*
X93105801Y-138099137D01*
X93124176Y-138159409D01*
X93133357Y-138231407D01*
X93133285Y-138306369D01*
X93123901Y-138375536D01*
X93105149Y-138430149D01*
X93081995Y-138468212D01*
X93031030Y-138522135D01*
X92967306Y-138556411D01*
X92912785Y-138570272D01*
X92829767Y-138571785D01*
X92750326Y-138550882D01*
X92679879Y-138508464D01*
X92634284Y-138470880D01*
X92675351Y-138428510D01*
X92701296Y-138403409D01*
X92724764Y-138389434D01*
X92746524Y-138392511D01*
X92774356Y-138411287D01*
X92785454Y-138418638D01*
X92832337Y-138433683D01*
X92886224Y-138433673D01*
X92936675Y-138418168D01*
X92955672Y-138405716D01*
X92983537Y-138368946D01*
X92997506Y-138314939D01*
X92998405Y-138241331D01*
X92998403Y-138241289D01*
X92988009Y-138175433D01*
X92965114Y-138129772D01*
X92927439Y-138101528D01*
X92872708Y-138087920D01*
X92838241Y-138086090D01*
X92808126Y-138093584D01*
X92777240Y-138115295D01*
X92737272Y-138148926D01*
X92686656Y-138108250D01*
X92668163Y-138092667D01*
X92645065Y-138070340D01*
X92636039Y-138057183D01*
X92639236Y-138051253D01*
X92657646Y-138033048D01*
X92686973Y-138009895D01*
X92709920Y-137994830D01*
X92782774Y-137963880D01*
X92858799Y-137953073D01*
X92933409Y-137961493D01*
G37*
X94732857Y-138303771D02*
X94729349Y-138343565D01*
X94713844Y-138419538D01*
X94686110Y-138477511D01*
X94643898Y-138521300D01*
X94584960Y-138554722D01*
X94562076Y-138562676D01*
X94502812Y-138572601D01*
X94440447Y-138572331D01*
X94387823Y-138561430D01*
X94386789Y-138561034D01*
X94344381Y-138536087D01*
X94301537Y-138497468D01*
X94265986Y-138453306D01*
X94245459Y-138411727D01*
X94239374Y-138381334D01*
X94234164Y-138324429D01*
X94233291Y-138273705D01*
X94359976Y-138273705D01*
X94367549Y-138334545D01*
X94385341Y-138384538D01*
X94412296Y-138417204D01*
X94422513Y-138422812D01*
X94461473Y-138433007D01*
X94506536Y-138435104D01*
X94544448Y-138428020D01*
X94559244Y-138417861D01*
X94580014Y-138382334D01*
X94593083Y-138326732D01*
X94597624Y-138253766D01*
X94597551Y-138232762D01*
X94595974Y-138190203D01*
X94590728Y-138162439D01*
X94579723Y-138141925D01*
X94560868Y-138121112D01*
X94524989Y-138095887D01*
X94478280Y-138085573D01*
X94433151Y-138095396D01*
X94395680Y-138123805D01*
X94371943Y-138169253D01*
X94363675Y-138208497D01*
X94359976Y-138273705D01*
X94233291Y-138273705D01*
X94233049Y-138259621D01*
X94235844Y-138195116D01*
X94242366Y-138139121D01*
X94252432Y-138099842D01*
X94275877Y-138055372D01*
X94325637Y-138000692D01*
X94389238Y-137966055D01*
X94464790Y-137952345D01*
X94550399Y-137960448D01*
X94564644Y-137963899D01*
X94630982Y-137993664D01*
X94680971Y-138042530D01*
X94714612Y-138110501D01*
X94731906Y-138197580D01*
X94732410Y-138253766D01*
X94732857Y-138303771D01*
G36*
X94732857Y-138303771D02*
G01*
X94729349Y-138343565D01*
X94713844Y-138419538D01*
X94686110Y-138477511D01*
X94643898Y-138521300D01*
X94584960Y-138554722D01*
X94562076Y-138562676D01*
X94502812Y-138572601D01*
X94440447Y-138572331D01*
X94387823Y-138561430D01*
X94386789Y-138561034D01*
X94344381Y-138536087D01*
X94301537Y-138497468D01*
X94265986Y-138453306D01*
X94245459Y-138411727D01*
X94239374Y-138381334D01*
X94234164Y-138324429D01*
X94233291Y-138273705D01*
X94359976Y-138273705D01*
X94367549Y-138334545D01*
X94385341Y-138384538D01*
X94412296Y-138417204D01*
X94422513Y-138422812D01*
X94461473Y-138433007D01*
X94506536Y-138435104D01*
X94544448Y-138428020D01*
X94559244Y-138417861D01*
X94580014Y-138382334D01*
X94593083Y-138326732D01*
X94597624Y-138253766D01*
X94597551Y-138232762D01*
X94595974Y-138190203D01*
X94590728Y-138162439D01*
X94579723Y-138141925D01*
X94560868Y-138121112D01*
X94524989Y-138095887D01*
X94478280Y-138085573D01*
X94433151Y-138095396D01*
X94395680Y-138123805D01*
X94371943Y-138169253D01*
X94363675Y-138208497D01*
X94359976Y-138273705D01*
X94233291Y-138273705D01*
X94233049Y-138259621D01*
X94235844Y-138195116D01*
X94242366Y-138139121D01*
X94252432Y-138099842D01*
X94275877Y-138055372D01*
X94325637Y-138000692D01*
X94389238Y-137966055D01*
X94464790Y-137952345D01*
X94550399Y-137960448D01*
X94564644Y-137963899D01*
X94630982Y-137993664D01*
X94680971Y-138042530D01*
X94714612Y-138110501D01*
X94731906Y-138197580D01*
X94732410Y-138253766D01*
X94732857Y-138303771D01*
G37*
X94832997Y-139099130D02*
X94849997Y-139149850D01*
X94870107Y-139205997D01*
X94886899Y-139248532D01*
X94898986Y-139273990D01*
X94904980Y-139278903D01*
X94906426Y-139274630D01*
X94914254Y-139248422D01*
X94926723Y-139204649D01*
X94942447Y-139148211D01*
X94960043Y-139084010D01*
X95007914Y-138907971D01*
X95081007Y-138904152D01*
X95087177Y-138903846D01*
X95126592Y-138903441D01*
X95145533Y-138907487D01*
X95147945Y-138916726D01*
X95144898Y-138925749D01*
X95134874Y-138956632D01*
X95119180Y-139005544D01*
X95098934Y-139068987D01*
X95075256Y-139143462D01*
X95049263Y-139225471D01*
X94956736Y-139517822D01*
X94840993Y-139517822D01*
X94786457Y-139332352D01*
X94776386Y-139298294D01*
X94757775Y-139236378D01*
X94741872Y-139184787D01*
X94730109Y-139148130D01*
X94723918Y-139131018D01*
X94722154Y-139129741D01*
X94713571Y-139140779D01*
X94701316Y-139169969D01*
X94687426Y-139212750D01*
X94686692Y-139215263D01*
X94668096Y-139278400D01*
X94646818Y-139349889D01*
X94627321Y-139414734D01*
X94595705Y-139519122D01*
X94537402Y-139515328D01*
X94479098Y-139511535D01*
X94425098Y-139341782D01*
X94401390Y-139267193D01*
X94374833Y-139183539D01*
X94349404Y-139103342D01*
X94328354Y-139036857D01*
X94285609Y-138901683D01*
X94428612Y-138901683D01*
X94463274Y-139030570D01*
X94472488Y-139064625D01*
X94489915Y-139128115D01*
X94506054Y-139185874D01*
X94518322Y-139228614D01*
X94538709Y-139297773D01*
X94668745Y-138907971D01*
X94718476Y-138904237D01*
X94768206Y-138900504D01*
X94832997Y-139099130D01*
G36*
X94832997Y-139099130D02*
G01*
X94849997Y-139149850D01*
X94870107Y-139205997D01*
X94886899Y-139248532D01*
X94898986Y-139273990D01*
X94904980Y-139278903D01*
X94906426Y-139274630D01*
X94914254Y-139248422D01*
X94926723Y-139204649D01*
X94942447Y-139148211D01*
X94960043Y-139084010D01*
X95007914Y-138907971D01*
X95081007Y-138904152D01*
X95087177Y-138903846D01*
X95126592Y-138903441D01*
X95145533Y-138907487D01*
X95147945Y-138916726D01*
X95144898Y-138925749D01*
X95134874Y-138956632D01*
X95119180Y-139005544D01*
X95098934Y-139068987D01*
X95075256Y-139143462D01*
X95049263Y-139225471D01*
X94956736Y-139517822D01*
X94840993Y-139517822D01*
X94786457Y-139332352D01*
X94776386Y-139298294D01*
X94757775Y-139236378D01*
X94741872Y-139184787D01*
X94730109Y-139148130D01*
X94723918Y-139131018D01*
X94722154Y-139129741D01*
X94713571Y-139140779D01*
X94701316Y-139169969D01*
X94687426Y-139212750D01*
X94686692Y-139215263D01*
X94668096Y-139278400D01*
X94646818Y-139349889D01*
X94627321Y-139414734D01*
X94595705Y-139519122D01*
X94537402Y-139515328D01*
X94479098Y-139511535D01*
X94425098Y-139341782D01*
X94401390Y-139267193D01*
X94374833Y-139183539D01*
X94349404Y-139103342D01*
X94328354Y-139036857D01*
X94285609Y-138901683D01*
X94428612Y-138901683D01*
X94463274Y-139030570D01*
X94472488Y-139064625D01*
X94489915Y-139128115D01*
X94506054Y-139185874D01*
X94518322Y-139228614D01*
X94538709Y-139297773D01*
X94668745Y-138907971D01*
X94718476Y-138904237D01*
X94768206Y-138900504D01*
X94832997Y-139099130D01*
G37*
X95690761Y-139256813D02*
X95689167Y-139310571D01*
X95685962Y-139348018D01*
X95685413Y-139351450D01*
X95663838Y-139412835D01*
X95624438Y-139464877D01*
X95572752Y-139500135D01*
X95517248Y-139514729D01*
X95448977Y-139513597D01*
X95386173Y-139494029D01*
X95369815Y-139485771D01*
X95348779Y-139476923D01*
X95340774Y-139479676D01*
X95339505Y-139494029D01*
X95338922Y-139501186D01*
X95331394Y-139511772D01*
X95310488Y-139516645D01*
X95270346Y-139517822D01*
X95201188Y-139517822D01*
X95201188Y-139215930D01*
X95339505Y-139215930D01*
X95340496Y-139268230D01*
X95344519Y-139303050D01*
X95353108Y-139326905D01*
X95367797Y-139346895D01*
X95406584Y-139376618D01*
X95451974Y-139386582D01*
X95495989Y-139374260D01*
X95533060Y-139339888D01*
X95542859Y-139314735D01*
X95550097Y-139270194D01*
X95553279Y-139216155D01*
X95552277Y-139160728D01*
X95546961Y-139112022D01*
X95537204Y-139078148D01*
X95534087Y-139072593D01*
X95504038Y-139044674D01*
X95463315Y-139032306D01*
X95419579Y-139035183D01*
X95380491Y-139053000D01*
X95353710Y-139085452D01*
X95352603Y-139088181D01*
X95345963Y-139118634D01*
X95341278Y-139164139D01*
X95339505Y-139215930D01*
X95201188Y-139215930D01*
X95201188Y-138662773D01*
X95339505Y-138662773D01*
X95339505Y-138955878D01*
X95365124Y-138932693D01*
X95389792Y-138918282D01*
X95436480Y-138906236D01*
X95491056Y-138902354D01*
X95544354Y-138907120D01*
X95587207Y-138921014D01*
X95617878Y-138940779D01*
X95649471Y-138974449D01*
X95670733Y-139019730D01*
X95683514Y-139080981D01*
X95689664Y-139162563D01*
X95690568Y-139195540D01*
X95690633Y-139216155D01*
X95690761Y-139256813D01*
G36*
X95690761Y-139256813D02*
G01*
X95689167Y-139310571D01*
X95685962Y-139348018D01*
X95685413Y-139351450D01*
X95663838Y-139412835D01*
X95624438Y-139464877D01*
X95572752Y-139500135D01*
X95517248Y-139514729D01*
X95448977Y-139513597D01*
X95386173Y-139494029D01*
X95369815Y-139485771D01*
X95348779Y-139476923D01*
X95340774Y-139479676D01*
X95339505Y-139494029D01*
X95338922Y-139501186D01*
X95331394Y-139511772D01*
X95310488Y-139516645D01*
X95270346Y-139517822D01*
X95201188Y-139517822D01*
X95201188Y-139215930D01*
X95339505Y-139215930D01*
X95340496Y-139268230D01*
X95344519Y-139303050D01*
X95353108Y-139326905D01*
X95367797Y-139346895D01*
X95406584Y-139376618D01*
X95451974Y-139386582D01*
X95495989Y-139374260D01*
X95533060Y-139339888D01*
X95542859Y-139314735D01*
X95550097Y-139270194D01*
X95553279Y-139216155D01*
X95552277Y-139160728D01*
X95546961Y-139112022D01*
X95537204Y-139078148D01*
X95534087Y-139072593D01*
X95504038Y-139044674D01*
X95463315Y-139032306D01*
X95419579Y-139035183D01*
X95380491Y-139053000D01*
X95353710Y-139085452D01*
X95352603Y-139088181D01*
X95345963Y-139118634D01*
X95341278Y-139164139D01*
X95339505Y-139215930D01*
X95201188Y-139215930D01*
X95201188Y-138662773D01*
X95339505Y-138662773D01*
X95339505Y-138955878D01*
X95365124Y-138932693D01*
X95389792Y-138918282D01*
X95436480Y-138906236D01*
X95491056Y-138902354D01*
X95544354Y-138907120D01*
X95587207Y-138921014D01*
X95617878Y-138940779D01*
X95649471Y-138974449D01*
X95670733Y-139019730D01*
X95683514Y-139080981D01*
X95689664Y-139162563D01*
X95690568Y-139195540D01*
X95690633Y-139216155D01*
X95690761Y-139256813D01*
G37*
X97864997Y-138294931D02*
X97863373Y-138334310D01*
X97859688Y-138382332D01*
X97853410Y-138416368D01*
X97843044Y-138443338D01*
X97827092Y-138470158D01*
X97826412Y-138471175D01*
X97787132Y-138514629D01*
X97739072Y-138547772D01*
X97683185Y-138567439D01*
X97609666Y-138573824D01*
X97537609Y-138561268D01*
X97473201Y-138531011D01*
X97422627Y-138484294D01*
X97408108Y-138462221D01*
X97380993Y-138393602D01*
X97367546Y-138308939D01*
X97367776Y-138287523D01*
X97502920Y-138287523D01*
X97503174Y-138327574D01*
X97507421Y-138354313D01*
X97517096Y-138374859D01*
X97533638Y-138396331D01*
X97556593Y-138417639D01*
X97602505Y-138436653D01*
X97651802Y-138433122D01*
X97698917Y-138406694D01*
X97712207Y-138394072D01*
X97726397Y-138372465D01*
X97734266Y-138342094D01*
X97738726Y-138294770D01*
X97739955Y-138259219D01*
X97733224Y-138186620D01*
X97712567Y-138134642D01*
X97677894Y-138102999D01*
X97637249Y-138087847D01*
X97588777Y-138089123D01*
X97543845Y-138114703D01*
X97533103Y-138124442D01*
X97519548Y-138141480D01*
X97511505Y-138163772D01*
X97507043Y-138197947D01*
X97504228Y-138250638D01*
X97502920Y-138287523D01*
X97367776Y-138287523D01*
X97368583Y-138212351D01*
X97369907Y-138198651D01*
X97388374Y-138110908D01*
X97422540Y-138042793D01*
X97472479Y-137994231D01*
X97538261Y-137965148D01*
X97619961Y-137955471D01*
X97650828Y-137956379D01*
X97714128Y-137967493D01*
X97765889Y-137994021D01*
X97814147Y-138039436D01*
X97821865Y-138048551D01*
X97842681Y-138079248D01*
X97856362Y-138114007D01*
X97863948Y-138158056D01*
X97866479Y-138216621D01*
X97865672Y-138259219D01*
X97864997Y-138294931D01*
G36*
X97864997Y-138294931D02*
G01*
X97863373Y-138334310D01*
X97859688Y-138382332D01*
X97853410Y-138416368D01*
X97843044Y-138443338D01*
X97827092Y-138470158D01*
X97826412Y-138471175D01*
X97787132Y-138514629D01*
X97739072Y-138547772D01*
X97683185Y-138567439D01*
X97609666Y-138573824D01*
X97537609Y-138561268D01*
X97473201Y-138531011D01*
X97422627Y-138484294D01*
X97408108Y-138462221D01*
X97380993Y-138393602D01*
X97367546Y-138308939D01*
X97367776Y-138287523D01*
X97502920Y-138287523D01*
X97503174Y-138327574D01*
X97507421Y-138354313D01*
X97517096Y-138374859D01*
X97533638Y-138396331D01*
X97556593Y-138417639D01*
X97602505Y-138436653D01*
X97651802Y-138433122D01*
X97698917Y-138406694D01*
X97712207Y-138394072D01*
X97726397Y-138372465D01*
X97734266Y-138342094D01*
X97738726Y-138294770D01*
X97739955Y-138259219D01*
X97733224Y-138186620D01*
X97712567Y-138134642D01*
X97677894Y-138102999D01*
X97637249Y-138087847D01*
X97588777Y-138089123D01*
X97543845Y-138114703D01*
X97533103Y-138124442D01*
X97519548Y-138141480D01*
X97511505Y-138163772D01*
X97507043Y-138197947D01*
X97504228Y-138250638D01*
X97502920Y-138287523D01*
X97367776Y-138287523D01*
X97368583Y-138212351D01*
X97369907Y-138198651D01*
X97388374Y-138110908D01*
X97422540Y-138042793D01*
X97472479Y-137994231D01*
X97538261Y-137965148D01*
X97619961Y-137955471D01*
X97650828Y-137956379D01*
X97714128Y-137967493D01*
X97765889Y-137994021D01*
X97814147Y-138039436D01*
X97821865Y-138048551D01*
X97842681Y-138079248D01*
X97856362Y-138114007D01*
X97863948Y-138158056D01*
X97866479Y-138216621D01*
X97865672Y-138259219D01*
X97864997Y-138294931D01*
G37*
X92619444Y-138219878D02*
X92617825Y-138316121D01*
X92617615Y-138318014D01*
X92599535Y-138406325D01*
X92566870Y-138474986D01*
X92518601Y-138525506D01*
X92453713Y-138559393D01*
X92441801Y-138563268D01*
X92367971Y-138574688D01*
X92291614Y-138568320D01*
X92220626Y-138545563D01*
X92162904Y-138507819D01*
X92119667Y-138467872D01*
X92165625Y-138431532D01*
X92211583Y-138395193D01*
X92266969Y-138422101D01*
X92331056Y-138443905D01*
X92387632Y-138444558D01*
X92433920Y-138424525D01*
X92467230Y-138384315D01*
X92479171Y-138360222D01*
X92485837Y-138339630D01*
X92481980Y-138325720D01*
X92464675Y-138317181D01*
X92430997Y-138312704D01*
X92378021Y-138310978D01*
X92302822Y-138310693D01*
X92120495Y-138310693D01*
X92120495Y-138223492D01*
X92121857Y-138185210D01*
X92250234Y-138185210D01*
X92256399Y-138192251D01*
X92274654Y-138195916D01*
X92309352Y-138197306D01*
X92364846Y-138197525D01*
X92394603Y-138197176D01*
X92441562Y-138194867D01*
X92473416Y-138190822D01*
X92485148Y-138185542D01*
X92482146Y-138166062D01*
X92460988Y-138128786D01*
X92425731Y-138098164D01*
X92383699Y-138079668D01*
X92342220Y-138078773D01*
X92310997Y-138093604D01*
X92275618Y-138127355D01*
X92253122Y-138169233D01*
X92251805Y-138173690D01*
X92250234Y-138185210D01*
X92121857Y-138185210D01*
X92122136Y-138177371D01*
X92126955Y-138131740D01*
X92133840Y-138100893D01*
X92138859Y-138089117D01*
X92175390Y-138036667D01*
X92228175Y-137992921D01*
X92289904Y-137964279D01*
X92322102Y-137956457D01*
X92398820Y-137952896D01*
X92467179Y-137971009D01*
X92525299Y-138008779D01*
X92571302Y-138064191D01*
X92603310Y-138135229D01*
X92612900Y-138185542D01*
X92619444Y-138219878D01*
G36*
X92619444Y-138219878D02*
G01*
X92617825Y-138316121D01*
X92617615Y-138318014D01*
X92599535Y-138406325D01*
X92566870Y-138474986D01*
X92518601Y-138525506D01*
X92453713Y-138559393D01*
X92441801Y-138563268D01*
X92367971Y-138574688D01*
X92291614Y-138568320D01*
X92220626Y-138545563D01*
X92162904Y-138507819D01*
X92119667Y-138467872D01*
X92165625Y-138431532D01*
X92211583Y-138395193D01*
X92266969Y-138422101D01*
X92331056Y-138443905D01*
X92387632Y-138444558D01*
X92433920Y-138424525D01*
X92467230Y-138384315D01*
X92479171Y-138360222D01*
X92485837Y-138339630D01*
X92481980Y-138325720D01*
X92464675Y-138317181D01*
X92430997Y-138312704D01*
X92378021Y-138310978D01*
X92302822Y-138310693D01*
X92120495Y-138310693D01*
X92120495Y-138223492D01*
X92121857Y-138185210D01*
X92250234Y-138185210D01*
X92256399Y-138192251D01*
X92274654Y-138195916D01*
X92309352Y-138197306D01*
X92364846Y-138197525D01*
X92394603Y-138197176D01*
X92441562Y-138194867D01*
X92473416Y-138190822D01*
X92485148Y-138185542D01*
X92482146Y-138166062D01*
X92460988Y-138128786D01*
X92425731Y-138098164D01*
X92383699Y-138079668D01*
X92342220Y-138078773D01*
X92310997Y-138093604D01*
X92275618Y-138127355D01*
X92253122Y-138169233D01*
X92251805Y-138173690D01*
X92250234Y-138185210D01*
X92121857Y-138185210D01*
X92122136Y-138177371D01*
X92126955Y-138131740D01*
X92133840Y-138100893D01*
X92138859Y-138089117D01*
X92175390Y-138036667D01*
X92228175Y-137992921D01*
X92289904Y-137964279D01*
X92322102Y-137956457D01*
X92398820Y-137952896D01*
X92467179Y-137971009D01*
X92525299Y-138008779D01*
X92571302Y-138064191D01*
X92603310Y-138135229D01*
X92612900Y-138185542D01*
X92619444Y-138219878D01*
G37*
X95098874Y-137958207D02*
X95171495Y-137976408D01*
X95224546Y-138010144D01*
X95258329Y-138059642D01*
X95273147Y-138125126D01*
X95270147Y-138187820D01*
X95248493Y-138240699D01*
X95206967Y-138279796D01*
X95144736Y-138305873D01*
X95060969Y-138319695D01*
X95006540Y-138326940D01*
X94956860Y-138342615D01*
X94931211Y-138365314D01*
X94929662Y-138394998D01*
X94939984Y-138413507D01*
X94971951Y-138435443D01*
X95017395Y-138445818D01*
X95070649Y-138444399D01*
X95126048Y-138430952D01*
X95177928Y-138405243D01*
X95229653Y-138371013D01*
X95275148Y-138417049D01*
X95320643Y-138463084D01*
X95282921Y-138493876D01*
X95268253Y-138504574D01*
X95226983Y-138528880D01*
X95182327Y-138549825D01*
X95146984Y-138561845D01*
X95095234Y-138570552D01*
X95031435Y-138570667D01*
X94953200Y-138561081D01*
X94882722Y-138536783D01*
X94832836Y-138498188D01*
X94803423Y-138445198D01*
X94794365Y-138377718D01*
X94800921Y-138318354D01*
X94821970Y-138269752D01*
X94859864Y-138234946D01*
X94917004Y-138211798D01*
X94995785Y-138198170D01*
X95004834Y-138197183D01*
X95053885Y-138190892D01*
X95093675Y-138184309D01*
X95116312Y-138178708D01*
X95123866Y-138174197D01*
X95136637Y-138150941D01*
X95134563Y-138121171D01*
X95117495Y-138095327D01*
X95108533Y-138089691D01*
X95071188Y-138080660D01*
X95022950Y-138081267D01*
X94972650Y-138090878D01*
X94929115Y-138108858D01*
X94883372Y-138135847D01*
X94847890Y-138094384D01*
X94839280Y-138083850D01*
X94819883Y-138055632D01*
X94811897Y-138036508D01*
X94820283Y-138024781D01*
X94846226Y-138006476D01*
X94883688Y-137986777D01*
X94888966Y-137984370D01*
X94938366Y-137965482D01*
X94985983Y-137956452D01*
X95045072Y-137954639D01*
X95098874Y-137958207D01*
G36*
X95098874Y-137958207D02*
G01*
X95171495Y-137976408D01*
X95224546Y-138010144D01*
X95258329Y-138059642D01*
X95273147Y-138125126D01*
X95270147Y-138187820D01*
X95248493Y-138240699D01*
X95206967Y-138279796D01*
X95144736Y-138305873D01*
X95060969Y-138319695D01*
X95006540Y-138326940D01*
X94956860Y-138342615D01*
X94931211Y-138365314D01*
X94929662Y-138394998D01*
X94939984Y-138413507D01*
X94971951Y-138435443D01*
X95017395Y-138445818D01*
X95070649Y-138444399D01*
X95126048Y-138430952D01*
X95177928Y-138405243D01*
X95229653Y-138371013D01*
X95275148Y-138417049D01*
X95320643Y-138463084D01*
X95282921Y-138493876D01*
X95268253Y-138504574D01*
X95226983Y-138528880D01*
X95182327Y-138549825D01*
X95146984Y-138561845D01*
X95095234Y-138570552D01*
X95031435Y-138570667D01*
X94953200Y-138561081D01*
X94882722Y-138536783D01*
X94832836Y-138498188D01*
X94803423Y-138445198D01*
X94794365Y-138377718D01*
X94800921Y-138318354D01*
X94821970Y-138269752D01*
X94859864Y-138234946D01*
X94917004Y-138211798D01*
X94995785Y-138198170D01*
X95004834Y-138197183D01*
X95053885Y-138190892D01*
X95093675Y-138184309D01*
X95116312Y-138178708D01*
X95123866Y-138174197D01*
X95136637Y-138150941D01*
X95134563Y-138121171D01*
X95117495Y-138095327D01*
X95108533Y-138089691D01*
X95071188Y-138080660D01*
X95022950Y-138081267D01*
X94972650Y-138090878D01*
X94929115Y-138108858D01*
X94883372Y-138135847D01*
X94847890Y-138094384D01*
X94839280Y-138083850D01*
X94819883Y-138055632D01*
X94811897Y-138036508D01*
X94820283Y-138024781D01*
X94846226Y-138006476D01*
X94883688Y-137986777D01*
X94888966Y-137984370D01*
X94938366Y-137965482D01*
X94985983Y-137956452D01*
X95045072Y-137954639D01*
X95098874Y-137958207D01*
G37*
X93264353Y-139209753D02*
X93262718Y-139256692D01*
X93247827Y-139346459D01*
X93217185Y-139417045D01*
X93170524Y-139468952D01*
X93107574Y-139502686D01*
X93087235Y-139508647D01*
X93014612Y-139516971D01*
X92937928Y-139509946D01*
X92868663Y-139488265D01*
X92844262Y-139475959D01*
X92809275Y-139454879D01*
X92788072Y-139437534D01*
X92784942Y-139433571D01*
X92779085Y-139419077D01*
X92787524Y-139403321D01*
X92813221Y-139379460D01*
X92825622Y-139369072D01*
X92850052Y-139350063D01*
X92862861Y-139342293D01*
X92866530Y-139343094D01*
X92887561Y-139351745D01*
X92918960Y-139366931D01*
X92929197Y-139371926D01*
X92989590Y-139390475D01*
X93042057Y-139385694D01*
X93088065Y-139357500D01*
X93093419Y-139352291D01*
X93119013Y-139319659D01*
X93133637Y-139288342D01*
X93141736Y-139253763D01*
X92761782Y-139253763D01*
X92761852Y-139187748D01*
X92761892Y-139181182D01*
X92767022Y-139128218D01*
X92900099Y-139128218D01*
X92901670Y-139139203D01*
X92909738Y-139146773D01*
X92928967Y-139150975D01*
X92964019Y-139152783D01*
X93019554Y-139153169D01*
X93050429Y-139152768D01*
X93096002Y-139150429D01*
X93127348Y-139146465D01*
X93139010Y-139141413D01*
X93129064Y-139099827D01*
X93099947Y-139061013D01*
X93057952Y-139034086D01*
X93009440Y-139024772D01*
X92973723Y-139035272D01*
X92938020Y-139060940D01*
X92910879Y-139094381D01*
X92900099Y-139128218D01*
X92767022Y-139128218D01*
X92769758Y-139099965D01*
X92792655Y-139033895D01*
X92832607Y-138976940D01*
X92856979Y-138952848D01*
X92907315Y-138920597D01*
X92967419Y-138904970D01*
X93043338Y-138903871D01*
X93080010Y-138908179D01*
X93147703Y-138930549D01*
X93199530Y-138971263D01*
X93235945Y-139030949D01*
X93257401Y-139110236D01*
X93259579Y-139141413D01*
X93264353Y-139209753D01*
G36*
X93264353Y-139209753D02*
G01*
X93262718Y-139256692D01*
X93247827Y-139346459D01*
X93217185Y-139417045D01*
X93170524Y-139468952D01*
X93107574Y-139502686D01*
X93087235Y-139508647D01*
X93014612Y-139516971D01*
X92937928Y-139509946D01*
X92868663Y-139488265D01*
X92844262Y-139475959D01*
X92809275Y-139454879D01*
X92788072Y-139437534D01*
X92784942Y-139433571D01*
X92779085Y-139419077D01*
X92787524Y-139403321D01*
X92813221Y-139379460D01*
X92825622Y-139369072D01*
X92850052Y-139350063D01*
X92862861Y-139342293D01*
X92866530Y-139343094D01*
X92887561Y-139351745D01*
X92918960Y-139366931D01*
X92929197Y-139371926D01*
X92989590Y-139390475D01*
X93042057Y-139385694D01*
X93088065Y-139357500D01*
X93093419Y-139352291D01*
X93119013Y-139319659D01*
X93133637Y-139288342D01*
X93141736Y-139253763D01*
X92761782Y-139253763D01*
X92761852Y-139187748D01*
X92761892Y-139181182D01*
X92767022Y-139128218D01*
X92900099Y-139128218D01*
X92901670Y-139139203D01*
X92909738Y-139146773D01*
X92928967Y-139150975D01*
X92964019Y-139152783D01*
X93019554Y-139153169D01*
X93050429Y-139152768D01*
X93096002Y-139150429D01*
X93127348Y-139146465D01*
X93139010Y-139141413D01*
X93129064Y-139099827D01*
X93099947Y-139061013D01*
X93057952Y-139034086D01*
X93009440Y-139024772D01*
X92973723Y-139035272D01*
X92938020Y-139060940D01*
X92910879Y-139094381D01*
X92900099Y-139128218D01*
X92767022Y-139128218D01*
X92769758Y-139099965D01*
X92792655Y-139033895D01*
X92832607Y-138976940D01*
X92856979Y-138952848D01*
X92907315Y-138920597D01*
X92967419Y-138904970D01*
X93043338Y-138903871D01*
X93080010Y-138908179D01*
X93147703Y-138930549D01*
X93199530Y-138971263D01*
X93235945Y-139030949D01*
X93257401Y-139110236D01*
X93259579Y-139141413D01*
X93264353Y-139209753D01*
G37*
X96707022Y-138184861D02*
X96711421Y-138272936D01*
X96710322Y-138311371D01*
X96697926Y-138395367D01*
X96670608Y-138461595D01*
X96626941Y-138512784D01*
X96565495Y-138551663D01*
X96505888Y-138569812D01*
X96431110Y-138573284D01*
X96355664Y-138559930D01*
X96288366Y-138530425D01*
X96263428Y-138514012D01*
X96235951Y-138492973D01*
X96223414Y-138479129D01*
X96224124Y-138473417D01*
X96238158Y-138453955D01*
X96264533Y-138430376D01*
X96310240Y-138395513D01*
X96363799Y-138422262D01*
X96378282Y-138428882D01*
X96420916Y-138443273D01*
X96456649Y-138449010D01*
X96482998Y-138444282D01*
X96524347Y-138421514D01*
X96559104Y-138386170D01*
X96578983Y-138345273D01*
X96587083Y-138310693D01*
X96207129Y-138310693D01*
X96207199Y-138244679D01*
X96207774Y-138223757D01*
X96211972Y-138178862D01*
X96345445Y-138178862D01*
X96345690Y-138181434D01*
X96352604Y-138189443D01*
X96372141Y-138194364D01*
X96408467Y-138196843D01*
X96465748Y-138197525D01*
X96484575Y-138197517D01*
X96533470Y-138197065D01*
X96562863Y-138195113D01*
X96577115Y-138190558D01*
X96580582Y-138182299D01*
X96577625Y-138169233D01*
X96577173Y-138167752D01*
X96551699Y-138122285D01*
X96511539Y-138090981D01*
X96463651Y-138079327D01*
X96445949Y-138080259D01*
X96413094Y-138091408D01*
X96381575Y-138119763D01*
X96373085Y-138129789D01*
X96353336Y-138158423D01*
X96345445Y-138178862D01*
X96211972Y-138178862D01*
X96212512Y-138173091D01*
X96220459Y-138131166D01*
X96229168Y-138107696D01*
X96259790Y-138056646D01*
X96300799Y-138010283D01*
X96344168Y-137978514D01*
X96356699Y-137972614D01*
X96429661Y-137953046D01*
X96504168Y-137955109D01*
X96574217Y-137977931D01*
X96633807Y-138020639D01*
X96666038Y-138060025D01*
X96692392Y-138115510D01*
X96706482Y-138182299D01*
X96707022Y-138184861D01*
G36*
X96707022Y-138184861D02*
G01*
X96711421Y-138272936D01*
X96710322Y-138311371D01*
X96697926Y-138395367D01*
X96670608Y-138461595D01*
X96626941Y-138512784D01*
X96565495Y-138551663D01*
X96505888Y-138569812D01*
X96431110Y-138573284D01*
X96355664Y-138559930D01*
X96288366Y-138530425D01*
X96263428Y-138514012D01*
X96235951Y-138492973D01*
X96223414Y-138479129D01*
X96224124Y-138473417D01*
X96238158Y-138453955D01*
X96264533Y-138430376D01*
X96310240Y-138395513D01*
X96363799Y-138422262D01*
X96378282Y-138428882D01*
X96420916Y-138443273D01*
X96456649Y-138449010D01*
X96482998Y-138444282D01*
X96524347Y-138421514D01*
X96559104Y-138386170D01*
X96578983Y-138345273D01*
X96587083Y-138310693D01*
X96207129Y-138310693D01*
X96207199Y-138244679D01*
X96207774Y-138223757D01*
X96211972Y-138178862D01*
X96345445Y-138178862D01*
X96345690Y-138181434D01*
X96352604Y-138189443D01*
X96372141Y-138194364D01*
X96408467Y-138196843D01*
X96465748Y-138197525D01*
X96484575Y-138197517D01*
X96533470Y-138197065D01*
X96562863Y-138195113D01*
X96577115Y-138190558D01*
X96580582Y-138182299D01*
X96577625Y-138169233D01*
X96577173Y-138167752D01*
X96551699Y-138122285D01*
X96511539Y-138090981D01*
X96463651Y-138079327D01*
X96445949Y-138080259D01*
X96413094Y-138091408D01*
X96381575Y-138119763D01*
X96373085Y-138129789D01*
X96353336Y-138158423D01*
X96345445Y-138178862D01*
X96211972Y-138178862D01*
X96212512Y-138173091D01*
X96220459Y-138131166D01*
X96229168Y-138107696D01*
X96259790Y-138056646D01*
X96300799Y-138010283D01*
X96344168Y-137978514D01*
X96356699Y-137972614D01*
X96429661Y-137953046D01*
X96504168Y-137955109D01*
X96574217Y-137977931D01*
X96633807Y-138020639D01*
X96666038Y-138060025D01*
X96692392Y-138115510D01*
X96706482Y-138182299D01*
X96707022Y-138184861D01*
G37*
X94289413Y-139352333D02*
X94274244Y-139409419D01*
X94241277Y-139458255D01*
X94191270Y-139493386D01*
X94186362Y-139495521D01*
X94131646Y-139510903D01*
X94069993Y-139516899D01*
X94011376Y-139513233D01*
X93965767Y-139499629D01*
X93947549Y-139490754D01*
X93934179Y-139488637D01*
X93931188Y-139499706D01*
X93925524Y-139509942D01*
X93903607Y-139516038D01*
X93861068Y-139517822D01*
X93790948Y-139517822D01*
X93795053Y-139275768D01*
X93795492Y-139253763D01*
X93931188Y-139253763D01*
X93931188Y-139297773D01*
X93935924Y-139330666D01*
X93956336Y-139366931D01*
X93963871Y-139373597D01*
X93994753Y-139387620D01*
X94041213Y-139391228D01*
X94069090Y-139389819D01*
X94121255Y-139379204D01*
X94153587Y-139359425D01*
X94164492Y-139331824D01*
X94152374Y-139297743D01*
X94145304Y-139288824D01*
X94113724Y-139268818D01*
X94063744Y-139257395D01*
X93992487Y-139253763D01*
X93931188Y-139253763D01*
X93795492Y-139253763D01*
X93796169Y-139219794D01*
X93799106Y-139135996D01*
X93804058Y-139071920D01*
X93812002Y-139024073D01*
X93823917Y-138988962D01*
X93840780Y-138963093D01*
X93863572Y-138942974D01*
X93893269Y-138925110D01*
X93908589Y-138918290D01*
X93961589Y-138905417D01*
X94025513Y-138900095D01*
X94091602Y-138902227D01*
X94151099Y-138911714D01*
X94195247Y-138928461D01*
X94210604Y-138938185D01*
X94245960Y-138967005D01*
X94257926Y-138991137D01*
X94255020Y-138995800D01*
X94236909Y-139012088D01*
X94207672Y-139033817D01*
X94192725Y-139043987D01*
X94167270Y-139058397D01*
X94150728Y-139059773D01*
X94135370Y-139049827D01*
X94097094Y-139029684D01*
X94045590Y-139021400D01*
X93992957Y-139027742D01*
X93991961Y-139028030D01*
X93954838Y-139044158D01*
X93936463Y-139069405D01*
X93931380Y-139111158D01*
X93931188Y-139150879D01*
X94062423Y-139155168D01*
X94083331Y-139155873D01*
X94136043Y-139158326D01*
X94171381Y-139162180D01*
X94195267Y-139168878D01*
X94213624Y-139179864D01*
X94232376Y-139196580D01*
X94263337Y-139235244D01*
X94286029Y-139292456D01*
X94288254Y-139331824D01*
X94289413Y-139352333D01*
G36*
X94289413Y-139352333D02*
G01*
X94274244Y-139409419D01*
X94241277Y-139458255D01*
X94191270Y-139493386D01*
X94186362Y-139495521D01*
X94131646Y-139510903D01*
X94069993Y-139516899D01*
X94011376Y-139513233D01*
X93965767Y-139499629D01*
X93947549Y-139490754D01*
X93934179Y-139488637D01*
X93931188Y-139499706D01*
X93925524Y-139509942D01*
X93903607Y-139516038D01*
X93861068Y-139517822D01*
X93790948Y-139517822D01*
X93795053Y-139275768D01*
X93795492Y-139253763D01*
X93931188Y-139253763D01*
X93931188Y-139297773D01*
X93935924Y-139330666D01*
X93956336Y-139366931D01*
X93963871Y-139373597D01*
X93994753Y-139387620D01*
X94041213Y-139391228D01*
X94069090Y-139389819D01*
X94121255Y-139379204D01*
X94153587Y-139359425D01*
X94164492Y-139331824D01*
X94152374Y-139297743D01*
X94145304Y-139288824D01*
X94113724Y-139268818D01*
X94063744Y-139257395D01*
X93992487Y-139253763D01*
X93931188Y-139253763D01*
X93795492Y-139253763D01*
X93796169Y-139219794D01*
X93799106Y-139135996D01*
X93804058Y-139071920D01*
X93812002Y-139024073D01*
X93823917Y-138988962D01*
X93840780Y-138963093D01*
X93863572Y-138942974D01*
X93893269Y-138925110D01*
X93908589Y-138918290D01*
X93961589Y-138905417D01*
X94025513Y-138900095D01*
X94091602Y-138902227D01*
X94151099Y-138911714D01*
X94195247Y-138928461D01*
X94210604Y-138938185D01*
X94245960Y-138967005D01*
X94257926Y-138991137D01*
X94255020Y-138995800D01*
X94236909Y-139012088D01*
X94207672Y-139033817D01*
X94192725Y-139043987D01*
X94167270Y-139058397D01*
X94150728Y-139059773D01*
X94135370Y-139049827D01*
X94097094Y-139029684D01*
X94045590Y-139021400D01*
X93992957Y-139027742D01*
X93991961Y-139028030D01*
X93954838Y-139044158D01*
X93936463Y-139069405D01*
X93931380Y-139111158D01*
X93931188Y-139150879D01*
X94062423Y-139155168D01*
X94083331Y-139155873D01*
X94136043Y-139158326D01*
X94171381Y-139162180D01*
X94195267Y-139168878D01*
X94213624Y-139179864D01*
X94232376Y-139196580D01*
X94263337Y-139235244D01*
X94286029Y-139292456D01*
X94288254Y-139331824D01*
X94289413Y-139352333D01*
G37*
X96707299Y-139350223D02*
X96707157Y-139351882D01*
X96691835Y-139416479D01*
X96657753Y-139465063D01*
X96603218Y-139500072D01*
X96575036Y-139508589D01*
X96526764Y-139515228D01*
X96473978Y-139516813D01*
X96426353Y-139513160D01*
X96393566Y-139504083D01*
X96373652Y-139496813D01*
X96354155Y-139504083D01*
X96347023Y-139508295D01*
X96318557Y-139515126D01*
X96280059Y-139517822D01*
X96219703Y-139517822D01*
X96219703Y-139274484D01*
X96219707Y-139253763D01*
X96358020Y-139253763D01*
X96358020Y-139302111D01*
X96362668Y-139338904D01*
X96381015Y-139371269D01*
X96391514Y-139378274D01*
X96428988Y-139389191D01*
X96475773Y-139391917D01*
X96521652Y-139386379D01*
X96556410Y-139372505D01*
X96573726Y-139354161D01*
X96584356Y-139321566D01*
X96574929Y-139295729D01*
X96543764Y-139273263D01*
X96493667Y-139258850D01*
X96427582Y-139253763D01*
X96358020Y-139253763D01*
X96219707Y-139253763D01*
X96219707Y-139253440D01*
X96219937Y-139174122D01*
X96220797Y-139115154D01*
X96222679Y-139072616D01*
X96225974Y-139042592D01*
X96231073Y-139021163D01*
X96238366Y-139004411D01*
X96248246Y-138988419D01*
X96280023Y-138950948D01*
X96325055Y-138922339D01*
X96384210Y-138906555D01*
X96462161Y-138901703D01*
X96464695Y-138901708D01*
X96518880Y-138904155D01*
X96567380Y-138910256D01*
X96600478Y-138918809D01*
X96609552Y-138923096D01*
X96638433Y-138941248D01*
X96664568Y-138962822D01*
X96681764Y-138982236D01*
X96683825Y-138993909D01*
X96679803Y-138997063D01*
X96635976Y-139030739D01*
X96606671Y-139050600D01*
X96587294Y-139058613D01*
X96573253Y-139056746D01*
X96559957Y-139046965D01*
X96535418Y-139034756D01*
X96494064Y-139026615D01*
X96447326Y-139024503D01*
X96405034Y-139028800D01*
X96377017Y-139039887D01*
X96375543Y-139041236D01*
X96362953Y-139066581D01*
X96358020Y-139104411D01*
X96358020Y-139153169D01*
X96474331Y-139153216D01*
X96527760Y-139154061D01*
X96572735Y-139157740D01*
X96604907Y-139165309D01*
X96630899Y-139177808D01*
X96636948Y-139181647D01*
X96680710Y-139223845D01*
X96703987Y-139279647D01*
X96705955Y-139321566D01*
X96707299Y-139350223D01*
G36*
X96707299Y-139350223D02*
G01*
X96707157Y-139351882D01*
X96691835Y-139416479D01*
X96657753Y-139465063D01*
X96603218Y-139500072D01*
X96575036Y-139508589D01*
X96526764Y-139515228D01*
X96473978Y-139516813D01*
X96426353Y-139513160D01*
X96393566Y-139504083D01*
X96373652Y-139496813D01*
X96354155Y-139504083D01*
X96347023Y-139508295D01*
X96318557Y-139515126D01*
X96280059Y-139517822D01*
X96219703Y-139517822D01*
X96219703Y-139274484D01*
X96219707Y-139253763D01*
X96358020Y-139253763D01*
X96358020Y-139302111D01*
X96362668Y-139338904D01*
X96381015Y-139371269D01*
X96391514Y-139378274D01*
X96428988Y-139389191D01*
X96475773Y-139391917D01*
X96521652Y-139386379D01*
X96556410Y-139372505D01*
X96573726Y-139354161D01*
X96584356Y-139321566D01*
X96574929Y-139295729D01*
X96543764Y-139273263D01*
X96493667Y-139258850D01*
X96427582Y-139253763D01*
X96358020Y-139253763D01*
X96219707Y-139253763D01*
X96219707Y-139253440D01*
X96219937Y-139174122D01*
X96220797Y-139115154D01*
X96222679Y-139072616D01*
X96225974Y-139042592D01*
X96231073Y-139021163D01*
X96238366Y-139004411D01*
X96248246Y-138988419D01*
X96280023Y-138950948D01*
X96325055Y-138922339D01*
X96384210Y-138906555D01*
X96462161Y-138901703D01*
X96464695Y-138901708D01*
X96518880Y-138904155D01*
X96567380Y-138910256D01*
X96600478Y-138918809D01*
X96609552Y-138923096D01*
X96638433Y-138941248D01*
X96664568Y-138962822D01*
X96681764Y-138982236D01*
X96683825Y-138993909D01*
X96679803Y-138997063D01*
X96635976Y-139030739D01*
X96606671Y-139050600D01*
X96587294Y-139058613D01*
X96573253Y-139056746D01*
X96559957Y-139046965D01*
X96535418Y-139034756D01*
X96494064Y-139026615D01*
X96447326Y-139024503D01*
X96405034Y-139028800D01*
X96377017Y-139039887D01*
X96375543Y-139041236D01*
X96362953Y-139066581D01*
X96358020Y-139104411D01*
X96358020Y-139153169D01*
X96474331Y-139153216D01*
X96527760Y-139154061D01*
X96572735Y-139157740D01*
X96604907Y-139165309D01*
X96630899Y-139177808D01*
X96636948Y-139181647D01*
X96680710Y-139223845D01*
X96703987Y-139279647D01*
X96705955Y-139321566D01*
X96707299Y-139350223D01*
G37*
X97275940Y-139519136D02*
X97209926Y-139515336D01*
X97143911Y-139511535D01*
X97140772Y-139310347D01*
X97139844Y-139261425D01*
X97137208Y-139187926D01*
X97132683Y-139133991D01*
X97125438Y-139095995D01*
X97114642Y-139070313D01*
X97099462Y-139053320D01*
X97079066Y-139041389D01*
X97040797Y-139029205D01*
X97002738Y-139033940D01*
X96962549Y-139059979D01*
X96923861Y-139092533D01*
X96923861Y-139517822D01*
X96785544Y-139517822D01*
X96785544Y-139287176D01*
X96785677Y-139214882D01*
X96786413Y-139150641D01*
X96788181Y-139103618D01*
X96791411Y-139069548D01*
X96796530Y-139044170D01*
X96803967Y-139023221D01*
X96814150Y-139002436D01*
X96816564Y-138998024D01*
X96848675Y-138955047D01*
X96886256Y-138925013D01*
X96931564Y-138909243D01*
X96991561Y-138902222D01*
X97051643Y-138906025D01*
X97100525Y-138920868D01*
X97137624Y-138940052D01*
X97137624Y-138524859D01*
X97086792Y-138551354D01*
X97065558Y-138560980D01*
X96998536Y-138574592D01*
X96931930Y-138565184D01*
X96870187Y-138533905D01*
X96817757Y-138481902D01*
X96809543Y-138469680D01*
X96801649Y-138451763D01*
X96796500Y-138427404D01*
X96793527Y-138391927D01*
X96792161Y-138340656D01*
X96791915Y-138287236D01*
X96924749Y-138287236D01*
X96924861Y-138331849D01*
X96928272Y-138361601D01*
X96935937Y-138382835D01*
X96948814Y-138401896D01*
X96965171Y-138419617D01*
X96991329Y-138433028D01*
X97030742Y-138436436D01*
X97065559Y-138433471D01*
X97100020Y-138418631D01*
X97122215Y-138388569D01*
X97134097Y-138340254D01*
X97137624Y-138270650D01*
X97136712Y-138233624D01*
X97127609Y-138163728D01*
X97108828Y-138116464D01*
X97080476Y-138092168D01*
X97051840Y-138085332D01*
X97001970Y-138088537D01*
X96959833Y-138108380D01*
X96949749Y-138117480D01*
X96939063Y-138133223D01*
X96932456Y-138156658D01*
X96928532Y-138193604D01*
X96925897Y-138249880D01*
X96924749Y-138287236D01*
X96791915Y-138287236D01*
X96791831Y-138268917D01*
X96791944Y-138236184D01*
X96793872Y-138160044D01*
X96799240Y-138103166D01*
X96809406Y-138061249D01*
X96825725Y-138029996D01*
X96849553Y-138005106D01*
X96882247Y-137982282D01*
X96908759Y-137969184D01*
X96971615Y-137954739D01*
X97037869Y-137956707D01*
X97096757Y-137975433D01*
X97122030Y-137987673D01*
X97134742Y-137988938D01*
X97137624Y-137977798D01*
X97137626Y-137977461D01*
X97143838Y-137966087D01*
X97165260Y-137960256D01*
X97206782Y-137958614D01*
X97275940Y-137958614D01*
X97275940Y-138270650D01*
X97275940Y-139519136D01*
G36*
X97275940Y-139519136D02*
G01*
X97209926Y-139515336D01*
X97143911Y-139511535D01*
X97140772Y-139310347D01*
X97139844Y-139261425D01*
X97137208Y-139187926D01*
X97132683Y-139133991D01*
X97125438Y-139095995D01*
X97114642Y-139070313D01*
X97099462Y-139053320D01*
X97079066Y-139041389D01*
X97040797Y-139029205D01*
X97002738Y-139033940D01*
X96962549Y-139059979D01*
X96923861Y-139092533D01*
X96923861Y-139517822D01*
X96785544Y-139517822D01*
X96785544Y-139287176D01*
X96785677Y-139214882D01*
X96786413Y-139150641D01*
X96788181Y-139103618D01*
X96791411Y-139069548D01*
X96796530Y-139044170D01*
X96803967Y-139023221D01*
X96814150Y-139002436D01*
X96816564Y-138998024D01*
X96848675Y-138955047D01*
X96886256Y-138925013D01*
X96931564Y-138909243D01*
X96991561Y-138902222D01*
X97051643Y-138906025D01*
X97100525Y-138920868D01*
X97137624Y-138940052D01*
X97137624Y-138524859D01*
X97086792Y-138551354D01*
X97065558Y-138560980D01*
X96998536Y-138574592D01*
X96931930Y-138565184D01*
X96870187Y-138533905D01*
X96817757Y-138481902D01*
X96809543Y-138469680D01*
X96801649Y-138451763D01*
X96796500Y-138427404D01*
X96793527Y-138391927D01*
X96792161Y-138340656D01*
X96791915Y-138287236D01*
X96924749Y-138287236D01*
X96924861Y-138331849D01*
X96928272Y-138361601D01*
X96935937Y-138382835D01*
X96948814Y-138401896D01*
X96965171Y-138419617D01*
X96991329Y-138433028D01*
X97030742Y-138436436D01*
X97065559Y-138433471D01*
X97100020Y-138418631D01*
X97122215Y-138388569D01*
X97134097Y-138340254D01*
X97137624Y-138270650D01*
X97136712Y-138233624D01*
X97127609Y-138163728D01*
X97108828Y-138116464D01*
X97080476Y-138092168D01*
X97051840Y-138085332D01*
X97001970Y-138088537D01*
X96959833Y-138108380D01*
X96949749Y-138117480D01*
X96939063Y-138133223D01*
X96932456Y-138156658D01*
X96928532Y-138193604D01*
X96925897Y-138249880D01*
X96924749Y-138287236D01*
X96791915Y-138287236D01*
X96791831Y-138268917D01*
X96791944Y-138236184D01*
X96793872Y-138160044D01*
X96799240Y-138103166D01*
X96809406Y-138061249D01*
X96825725Y-138029996D01*
X96849553Y-138005106D01*
X96882247Y-137982282D01*
X96908759Y-137969184D01*
X96971615Y-137954739D01*
X97037869Y-137956707D01*
X97096757Y-137975433D01*
X97122030Y-137987673D01*
X97134742Y-137988938D01*
X97137624Y-137977798D01*
X97137626Y-137977461D01*
X97143838Y-137966087D01*
X97165260Y-137960256D01*
X97206782Y-137958614D01*
X97275940Y-137958614D01*
X97275940Y-138270650D01*
X97275940Y-139519136D01*
G37*
X95364389Y-133790018D02*
X95421237Y-134091570D01*
X95631001Y-134178041D01*
X95840764Y-134264512D01*
X96092410Y-134093395D01*
X96142216Y-134059661D01*
X96208244Y-134015381D01*
X96265410Y-133977561D01*
X96310744Y-133948142D01*
X96341280Y-133929067D01*
X96354046Y-133922278D01*
X96361887Y-133927106D01*
X96385325Y-133947339D01*
X96420794Y-133980543D01*
X96465289Y-134023670D01*
X96515805Y-134073670D01*
X96569336Y-134127495D01*
X96622877Y-134182095D01*
X96673423Y-134234423D01*
X96717968Y-134281428D01*
X96753507Y-134320063D01*
X96777034Y-134347278D01*
X96785544Y-134360024D01*
X96783565Y-134365500D01*
X96769857Y-134389927D01*
X96744825Y-134430129D01*
X96710499Y-134482952D01*
X96668907Y-134545247D01*
X96622079Y-134613862D01*
X96596380Y-134651283D01*
X96552173Y-134716432D01*
X96514272Y-134773289D01*
X96484698Y-134818770D01*
X96465472Y-134849793D01*
X96458614Y-134863274D01*
X96458726Y-134864021D01*
X96464776Y-134881110D01*
X96478654Y-134916006D01*
X96498427Y-134964151D01*
X96522160Y-135020986D01*
X96547918Y-135081953D01*
X96573766Y-135142492D01*
X96597771Y-135198047D01*
X96617998Y-135244057D01*
X96632511Y-135275965D01*
X96639377Y-135289212D01*
X96643439Y-135290387D01*
X96668121Y-135295687D01*
X96712111Y-135304467D01*
X96771887Y-135316040D01*
X96843929Y-135329721D01*
X96924716Y-135344823D01*
X96967294Y-135352830D01*
X97045445Y-135368107D01*
X97113775Y-135382215D01*
X97168551Y-135394345D01*
X97206037Y-135403686D01*
X97222500Y-135409427D01*
X97225457Y-135415119D01*
X97230362Y-135442930D01*
X97234216Y-135489250D01*
X97237021Y-135549720D01*
X97238781Y-135619983D01*
X97239499Y-135695680D01*
X97239177Y-135772453D01*
X97237819Y-135845944D01*
X97235428Y-135911794D01*
X97232006Y-135965645D01*
X97227556Y-136003138D01*
X97222082Y-136019916D01*
X97218760Y-136021809D01*
X97193987Y-136029926D01*
X97151011Y-136040666D01*
X97094802Y-136052853D01*
X97030325Y-136065310D01*
X97008570Y-136069277D01*
X96908093Y-136087729D01*
X96829126Y-136102559D01*
X96768934Y-136114380D01*
X96724778Y-136123809D01*
X96693920Y-136131460D01*
X96673625Y-136137948D01*
X96661154Y-136143888D01*
X96653771Y-136149894D01*
X96652913Y-136150902D01*
X96640838Y-136171919D01*
X96622971Y-136210376D01*
X96601042Y-136261761D01*
X96576784Y-136321563D01*
X96551927Y-136385270D01*
X96528205Y-136448371D01*
X96507347Y-136506355D01*
X96491087Y-136554709D01*
X96481156Y-136588922D01*
X96479285Y-136604483D01*
X96480536Y-136606502D01*
X96493486Y-136626028D01*
X96517840Y-136662042D01*
X96551340Y-136711228D01*
X96591727Y-136770267D01*
X96636745Y-136835842D01*
X96649100Y-136853884D01*
X96692545Y-136918599D01*
X96730091Y-136976476D01*
X96759594Y-137024082D01*
X96778914Y-137057985D01*
X96785905Y-137074752D01*
X96784398Y-137079161D01*
X96768695Y-137100882D01*
X96737714Y-137136354D01*
X96693673Y-137183188D01*
X96638790Y-137238996D01*
X96575286Y-137301392D01*
X96538988Y-137336317D01*
X96481595Y-137390711D01*
X96431361Y-137437302D01*
X96390984Y-137473636D01*
X96363161Y-137497261D01*
X96350590Y-137505724D01*
X96341952Y-137502587D01*
X96315360Y-137487747D01*
X96276741Y-137463477D01*
X96231134Y-137432852D01*
X96198707Y-137410503D01*
X96133970Y-137366122D01*
X96064886Y-137318987D01*
X96001787Y-137276155D01*
X95878178Y-137192547D01*
X95774417Y-137248650D01*
X95749984Y-137261599D01*
X95705552Y-137283749D01*
X95671191Y-137299041D01*
X95652828Y-137304743D01*
X95646818Y-137297421D01*
X95631895Y-137269541D01*
X95609852Y-137223575D01*
X95581917Y-137162441D01*
X95549317Y-137089055D01*
X95513276Y-137006335D01*
X95475023Y-136917197D01*
X95435783Y-136824559D01*
X95396783Y-136731337D01*
X95359249Y-136640450D01*
X95324409Y-136554814D01*
X95293488Y-136477345D01*
X95267714Y-136410962D01*
X95248311Y-136358582D01*
X95236508Y-136323121D01*
X95233531Y-136307496D01*
X95233732Y-136307039D01*
X95247601Y-136292595D01*
X95276611Y-136269974D01*
X95314772Y-136243864D01*
X95326817Y-136235892D01*
X95418469Y-136160256D01*
X95494323Y-136070169D01*
X95552581Y-135969381D01*
X95591448Y-135861640D01*
X95609128Y-135750697D01*
X95603826Y-135640303D01*
X95582347Y-135542115D01*
X95543782Y-135442966D01*
X95487562Y-135354512D01*
X95410410Y-135270487D01*
X95380095Y-135243645D01*
X95282094Y-135177510D01*
X95176227Y-135132970D01*
X95065561Y-135109625D01*
X94953164Y-135107078D01*
X94842105Y-135124929D01*
X94735451Y-135162780D01*
X94636270Y-135220232D01*
X94547631Y-135296887D01*
X94472600Y-135392345D01*
X94458175Y-135415985D01*
X94409143Y-135524034D01*
X94383103Y-135636548D01*
X94379372Y-135750614D01*
X94397268Y-135863318D01*
X94436109Y-135971745D01*
X94495214Y-136072982D01*
X94573900Y-136164114D01*
X94671485Y-136242228D01*
X94674654Y-136244333D01*
X94712411Y-136270940D01*
X94740709Y-136293561D01*
X94753634Y-136307496D01*
X94752003Y-136318421D01*
X94741864Y-136350231D01*
X94723884Y-136399534D01*
X94699292Y-136463413D01*
X94669311Y-136538948D01*
X94635170Y-136623223D01*
X94598092Y-136713320D01*
X94559306Y-136806321D01*
X94520036Y-136899308D01*
X94481509Y-136989364D01*
X94444950Y-137073571D01*
X94411586Y-137149010D01*
X94382643Y-137212765D01*
X94359346Y-137261917D01*
X94342923Y-137293549D01*
X94334598Y-137304743D01*
X94327674Y-137303227D01*
X94300477Y-137292331D01*
X94260280Y-137273228D01*
X94213009Y-137248650D01*
X94109248Y-137192547D01*
X93985639Y-137276155D01*
X93949120Y-137300913D01*
X93881194Y-137347171D01*
X93813475Y-137393503D01*
X93756291Y-137432852D01*
X93724732Y-137454297D01*
X93683714Y-137480939D01*
X93653301Y-137499178D01*
X93638446Y-137505941D01*
X93632065Y-137503070D01*
X93608996Y-137485485D01*
X93573433Y-137454523D01*
X93528471Y-137413231D01*
X93477206Y-137364653D01*
X93422733Y-137311835D01*
X93368148Y-137257823D01*
X93316547Y-137205661D01*
X93271024Y-137158396D01*
X93234675Y-137119072D01*
X93210595Y-137090736D01*
X93201881Y-137076432D01*
X93202383Y-137073711D01*
X93212755Y-137051560D01*
X93234912Y-137013235D01*
X93266712Y-136962200D01*
X93306016Y-136901914D01*
X93350681Y-136835842D01*
X93363207Y-136817617D01*
X93407193Y-136753485D01*
X93445937Y-136696789D01*
X93477182Y-136650844D01*
X93498669Y-136618970D01*
X93508140Y-136604483D01*
X93508373Y-136603862D01*
X93505578Y-136586139D01*
X93494903Y-136550235D01*
X93478081Y-136500662D01*
X93456843Y-136441932D01*
X93432921Y-136378556D01*
X93408046Y-136315046D01*
X93383950Y-136255913D01*
X93362365Y-136205669D01*
X93345023Y-136168826D01*
X93333655Y-136149894D01*
X93332516Y-136148719D01*
X93324376Y-136142773D01*
X93310629Y-136136776D01*
X93288537Y-136130114D01*
X93255363Y-136122173D01*
X93208370Y-136112337D01*
X93144820Y-136099991D01*
X93061976Y-136084520D01*
X92957100Y-136065310D01*
X92935348Y-136061267D01*
X92873036Y-136048769D01*
X92820619Y-136036927D01*
X92783066Y-136026917D01*
X92765343Y-136019916D01*
X92762378Y-136014075D01*
X92757435Y-135986016D01*
X92753518Y-135939500D01*
X92750629Y-135878886D01*
X92748773Y-135808532D01*
X92747952Y-135732796D01*
X92748168Y-135656037D01*
X92749426Y-135582612D01*
X92751728Y-135516880D01*
X92755076Y-135463200D01*
X92759474Y-135425930D01*
X92764926Y-135409427D01*
X92770491Y-135406989D01*
X92798178Y-135399305D01*
X92844979Y-135388436D01*
X92907157Y-135375192D01*
X92980979Y-135360384D01*
X93062710Y-135344823D01*
X93107336Y-135336509D01*
X93183824Y-135322092D01*
X93249660Y-135309467D01*
X93301323Y-135299321D01*
X93335293Y-135292341D01*
X93348048Y-135289212D01*
X93348528Y-135288568D01*
X93356651Y-135272181D01*
X93372137Y-135237852D01*
X93393050Y-135190136D01*
X93417455Y-135133586D01*
X93443416Y-135072758D01*
X93468997Y-135012206D01*
X93492262Y-134956485D01*
X93511277Y-134910150D01*
X93524105Y-134877755D01*
X93528812Y-134863855D01*
X93526736Y-134858965D01*
X93512920Y-134835692D01*
X93487860Y-134796519D01*
X93453568Y-134744520D01*
X93412059Y-134682768D01*
X93365346Y-134614336D01*
X93339718Y-134576860D01*
X93295490Y-134511156D01*
X93257570Y-134453492D01*
X93227980Y-134407014D01*
X93208743Y-134374865D01*
X93201881Y-134360190D01*
X93206649Y-134352230D01*
X93226593Y-134328446D01*
X93259313Y-134292451D01*
X93301805Y-134247295D01*
X93351065Y-134196028D01*
X93404091Y-134141701D01*
X93457877Y-134087364D01*
X93509421Y-134036067D01*
X93555720Y-133990859D01*
X93593769Y-133954792D01*
X93620565Y-133930914D01*
X93633105Y-133922278D01*
X93640066Y-133925636D01*
X93665627Y-133941210D01*
X93706874Y-133967715D01*
X93760837Y-134003210D01*
X93824542Y-134045750D01*
X93895016Y-134093395D01*
X94146662Y-134264512D01*
X94566188Y-134091570D01*
X94623036Y-133790018D01*
X94679885Y-133488466D01*
X95307540Y-133488466D01*
X95364389Y-133790018D01*
G36*
X95364389Y-133790018D02*
G01*
X95421237Y-134091570D01*
X95631001Y-134178041D01*
X95840764Y-134264512D01*
X96092410Y-134093395D01*
X96142216Y-134059661D01*
X96208244Y-134015381D01*
X96265410Y-133977561D01*
X96310744Y-133948142D01*
X96341280Y-133929067D01*
X96354046Y-133922278D01*
X96361887Y-133927106D01*
X96385325Y-133947339D01*
X96420794Y-133980543D01*
X96465289Y-134023670D01*
X96515805Y-134073670D01*
X96569336Y-134127495D01*
X96622877Y-134182095D01*
X96673423Y-134234423D01*
X96717968Y-134281428D01*
X96753507Y-134320063D01*
X96777034Y-134347278D01*
X96785544Y-134360024D01*
X96783565Y-134365500D01*
X96769857Y-134389927D01*
X96744825Y-134430129D01*
X96710499Y-134482952D01*
X96668907Y-134545247D01*
X96622079Y-134613862D01*
X96596380Y-134651283D01*
X96552173Y-134716432D01*
X96514272Y-134773289D01*
X96484698Y-134818770D01*
X96465472Y-134849793D01*
X96458614Y-134863274D01*
X96458726Y-134864021D01*
X96464776Y-134881110D01*
X96478654Y-134916006D01*
X96498427Y-134964151D01*
X96522160Y-135020986D01*
X96547918Y-135081953D01*
X96573766Y-135142492D01*
X96597771Y-135198047D01*
X96617998Y-135244057D01*
X96632511Y-135275965D01*
X96639377Y-135289212D01*
X96643439Y-135290387D01*
X96668121Y-135295687D01*
X96712111Y-135304467D01*
X96771887Y-135316040D01*
X96843929Y-135329721D01*
X96924716Y-135344823D01*
X96967294Y-135352830D01*
X97045445Y-135368107D01*
X97113775Y-135382215D01*
X97168551Y-135394345D01*
X97206037Y-135403686D01*
X97222500Y-135409427D01*
X97225457Y-135415119D01*
X97230362Y-135442930D01*
X97234216Y-135489250D01*
X97237021Y-135549720D01*
X97238781Y-135619983D01*
X97239499Y-135695680D01*
X97239177Y-135772453D01*
X97237819Y-135845944D01*
X97235428Y-135911794D01*
X97232006Y-135965645D01*
X97227556Y-136003138D01*
X97222082Y-136019916D01*
X97218760Y-136021809D01*
X97193987Y-136029926D01*
X97151011Y-136040666D01*
X97094802Y-136052853D01*
X97030325Y-136065310D01*
X97008570Y-136069277D01*
X96908093Y-136087729D01*
X96829126Y-136102559D01*
X96768934Y-136114380D01*
X96724778Y-136123809D01*
X96693920Y-136131460D01*
X96673625Y-136137948D01*
X96661154Y-136143888D01*
X96653771Y-136149894D01*
X96652913Y-136150902D01*
X96640838Y-136171919D01*
X96622971Y-136210376D01*
X96601042Y-136261761D01*
X96576784Y-136321563D01*
X96551927Y-136385270D01*
X96528205Y-136448371D01*
X96507347Y-136506355D01*
X96491087Y-136554709D01*
X96481156Y-136588922D01*
X96479285Y-136604483D01*
X96480536Y-136606502D01*
X96493486Y-136626028D01*
X96517840Y-136662042D01*
X96551340Y-136711228D01*
X96591727Y-136770267D01*
X96636745Y-136835842D01*
X96649100Y-136853884D01*
X96692545Y-136918599D01*
X96730091Y-136976476D01*
X96759594Y-137024082D01*
X96778914Y-137057985D01*
X96785905Y-137074752D01*
X96784398Y-137079161D01*
X96768695Y-137100882D01*
X96737714Y-137136354D01*
X96693673Y-137183188D01*
X96638790Y-137238996D01*
X96575286Y-137301392D01*
X96538988Y-137336317D01*
X96481595Y-137390711D01*
X96431361Y-137437302D01*
X96390984Y-137473636D01*
X96363161Y-137497261D01*
X96350590Y-137505724D01*
X96341952Y-137502587D01*
X96315360Y-137487747D01*
X96276741Y-137463477D01*
X96231134Y-137432852D01*
X96198707Y-137410503D01*
X96133970Y-137366122D01*
X96064886Y-137318987D01*
X96001787Y-137276155D01*
X95878178Y-137192547D01*
X95774417Y-137248650D01*
X95749984Y-137261599D01*
X95705552Y-137283749D01*
X95671191Y-137299041D01*
X95652828Y-137304743D01*
X95646818Y-137297421D01*
X95631895Y-137269541D01*
X95609852Y-137223575D01*
X95581917Y-137162441D01*
X95549317Y-137089055D01*
X95513276Y-137006335D01*
X95475023Y-136917197D01*
X95435783Y-136824559D01*
X95396783Y-136731337D01*
X95359249Y-136640450D01*
X95324409Y-136554814D01*
X95293488Y-136477345D01*
X95267714Y-136410962D01*
X95248311Y-136358582D01*
X95236508Y-136323121D01*
X95233531Y-136307496D01*
X95233732Y-136307039D01*
X95247601Y-136292595D01*
X95276611Y-136269974D01*
X95314772Y-136243864D01*
X95326817Y-136235892D01*
X95418469Y-136160256D01*
X95494323Y-136070169D01*
X95552581Y-135969381D01*
X95591448Y-135861640D01*
X95609128Y-135750697D01*
X95603826Y-135640303D01*
X95582347Y-135542115D01*
X95543782Y-135442966D01*
X95487562Y-135354512D01*
X95410410Y-135270487D01*
X95380095Y-135243645D01*
X95282094Y-135177510D01*
X95176227Y-135132970D01*
X95065561Y-135109625D01*
X94953164Y-135107078D01*
X94842105Y-135124929D01*
X94735451Y-135162780D01*
X94636270Y-135220232D01*
X94547631Y-135296887D01*
X94472600Y-135392345D01*
X94458175Y-135415985D01*
X94409143Y-135524034D01*
X94383103Y-135636548D01*
X94379372Y-135750614D01*
X94397268Y-135863318D01*
X94436109Y-135971745D01*
X94495214Y-136072982D01*
X94573900Y-136164114D01*
X94671485Y-136242228D01*
X94674654Y-136244333D01*
X94712411Y-136270940D01*
X94740709Y-136293561D01*
X94753634Y-136307496D01*
X94752003Y-136318421D01*
X94741864Y-136350231D01*
X94723884Y-136399534D01*
X94699292Y-136463413D01*
X94669311Y-136538948D01*
X94635170Y-136623223D01*
X94598092Y-136713320D01*
X94559306Y-136806321D01*
X94520036Y-136899308D01*
X94481509Y-136989364D01*
X94444950Y-137073571D01*
X94411586Y-137149010D01*
X94382643Y-137212765D01*
X94359346Y-137261917D01*
X94342923Y-137293549D01*
X94334598Y-137304743D01*
X94327674Y-137303227D01*
X94300477Y-137292331D01*
X94260280Y-137273228D01*
X94213009Y-137248650D01*
X94109248Y-137192547D01*
X93985639Y-137276155D01*
X93949120Y-137300913D01*
X93881194Y-137347171D01*
X93813475Y-137393503D01*
X93756291Y-137432852D01*
X93724732Y-137454297D01*
X93683714Y-137480939D01*
X93653301Y-137499178D01*
X93638446Y-137505941D01*
X93632065Y-137503070D01*
X93608996Y-137485485D01*
X93573433Y-137454523D01*
X93528471Y-137413231D01*
X93477206Y-137364653D01*
X93422733Y-137311835D01*
X93368148Y-137257823D01*
X93316547Y-137205661D01*
X93271024Y-137158396D01*
X93234675Y-137119072D01*
X93210595Y-137090736D01*
X93201881Y-137076432D01*
X93202383Y-137073711D01*
X93212755Y-137051560D01*
X93234912Y-137013235D01*
X93266712Y-136962200D01*
X93306016Y-136901914D01*
X93350681Y-136835842D01*
X93363207Y-136817617D01*
X93407193Y-136753485D01*
X93445937Y-136696789D01*
X93477182Y-136650844D01*
X93498669Y-136618970D01*
X93508140Y-136604483D01*
X93508373Y-136603862D01*
X93505578Y-136586139D01*
X93494903Y-136550235D01*
X93478081Y-136500662D01*
X93456843Y-136441932D01*
X93432921Y-136378556D01*
X93408046Y-136315046D01*
X93383950Y-136255913D01*
X93362365Y-136205669D01*
X93345023Y-136168826D01*
X93333655Y-136149894D01*
X93332516Y-136148719D01*
X93324376Y-136142773D01*
X93310629Y-136136776D01*
X93288537Y-136130114D01*
X93255363Y-136122173D01*
X93208370Y-136112337D01*
X93144820Y-136099991D01*
X93061976Y-136084520D01*
X92957100Y-136065310D01*
X92935348Y-136061267D01*
X92873036Y-136048769D01*
X92820619Y-136036927D01*
X92783066Y-136026917D01*
X92765343Y-136019916D01*
X92762378Y-136014075D01*
X92757435Y-135986016D01*
X92753518Y-135939500D01*
X92750629Y-135878886D01*
X92748773Y-135808532D01*
X92747952Y-135732796D01*
X92748168Y-135656037D01*
X92749426Y-135582612D01*
X92751728Y-135516880D01*
X92755076Y-135463200D01*
X92759474Y-135425930D01*
X92764926Y-135409427D01*
X92770491Y-135406989D01*
X92798178Y-135399305D01*
X92844979Y-135388436D01*
X92907157Y-135375192D01*
X92980979Y-135360384D01*
X93062710Y-135344823D01*
X93107336Y-135336509D01*
X93183824Y-135322092D01*
X93249660Y-135309467D01*
X93301323Y-135299321D01*
X93335293Y-135292341D01*
X93348048Y-135289212D01*
X93348528Y-135288568D01*
X93356651Y-135272181D01*
X93372137Y-135237852D01*
X93393050Y-135190136D01*
X93417455Y-135133586D01*
X93443416Y-135072758D01*
X93468997Y-135012206D01*
X93492262Y-134956485D01*
X93511277Y-134910150D01*
X93524105Y-134877755D01*
X93528812Y-134863855D01*
X93526736Y-134858965D01*
X93512920Y-134835692D01*
X93487860Y-134796519D01*
X93453568Y-134744520D01*
X93412059Y-134682768D01*
X93365346Y-134614336D01*
X93339718Y-134576860D01*
X93295490Y-134511156D01*
X93257570Y-134453492D01*
X93227980Y-134407014D01*
X93208743Y-134374865D01*
X93201881Y-134360190D01*
X93206649Y-134352230D01*
X93226593Y-134328446D01*
X93259313Y-134292451D01*
X93301805Y-134247295D01*
X93351065Y-134196028D01*
X93404091Y-134141701D01*
X93457877Y-134087364D01*
X93509421Y-134036067D01*
X93555720Y-133990859D01*
X93593769Y-133954792D01*
X93620565Y-133930914D01*
X93633105Y-133922278D01*
X93640066Y-133925636D01*
X93665627Y-133941210D01*
X93706874Y-133967715D01*
X93760837Y-134003210D01*
X93824542Y-134045750D01*
X93895016Y-134093395D01*
X94146662Y-134264512D01*
X94566188Y-134091570D01*
X94623036Y-133790018D01*
X94679885Y-133488466D01*
X95307540Y-133488466D01*
X95364389Y-133790018D01*
G37*
D12*
%TO.C,JP1*%
X99450000Y-133200000D02*
X99450000Y-133800000D01*
X100000000Y-132000000D02*
X100600000Y-132000000D01*
X100100000Y-134500000D02*
X102900000Y-134500000D01*
X100300000Y-132300000D02*
X100000000Y-132000000D01*
X100300000Y-132300000D02*
X100600000Y-132000000D01*
X102900000Y-132500000D02*
X100100000Y-132500000D01*
X103550000Y-133800000D02*
X103550000Y-133200000D01*
X99450000Y-133200000D02*
G75*
G02*
X100150000Y-132500000I699999J1D01*
G01*
X100150000Y-134500000D02*
G75*
G02*
X99450000Y-133800000I-1J699999D01*
G01*
X102850000Y-132500000D02*
G75*
G02*
X103550000Y-133200000I0J-700000D01*
G01*
X103550000Y-133800000D02*
G75*
G02*
X102850000Y-134500000I-700000J0D01*
G01*
%TD*%
M02*
