%TF.GenerationSoftware,KiCad,Pcbnew,9.0.7*%
%TF.CreationDate,2026-01-25T12:57:44+01:00*%
%TF.ProjectId,DiyIrTower,44697949-7254-46f7-9765-722e6b696361,1.0*%
%TF.SameCoordinates,Original*%
%TF.FileFunction,Soldermask,Top*%
%TF.FilePolarity,Negative*%
%FSLAX46Y46*%
G04 Gerber Fmt 4.6, Leading zero omitted, Abs format (unit mm)*
G04 Created by KiCad (PCBNEW 9.0.7) date 2026-01-25 12:57:44*
%MOMM*%
%LPD*%
G01*
G04 APERTURE LIST*
G04 Aperture macros list*
%AMRoundRect*
0 Rectangle with rounded corners*
0 $1 Rounding radius*
0 $2 $3 $4 $5 $6 $7 $8 $9 X,Y pos of 4 corners*
0 Add a 4 corners polygon primitive as box body*
4,1,4,$2,$3,$4,$5,$6,$7,$8,$9,$2,$3,0*
0 Add four circle primitives for the rounded corners*
1,1,$1+$1,$2,$3*
1,1,$1+$1,$4,$5*
1,1,$1+$1,$6,$7*
1,1,$1+$1,$8,$9*
0 Add four rect primitives between the rounded corners*
20,1,$1+$1,$2,$3,$4,$5,0*
20,1,$1+$1,$4,$5,$6,$7,0*
20,1,$1+$1,$6,$7,$8,$9,0*
20,1,$1+$1,$8,$9,$2,$3,0*%
G04 Aperture macros list end*
%ADD10R,1.800000X1.800000*%
%ADD11C,1.800000*%
%ADD12C,6.000000*%
%ADD13R,1.700000X1.700000*%
%ADD14C,1.700000*%
%ADD15RoundRect,0.250000X-0.600000X0.600000X-0.600000X-0.600000X0.600000X-0.600000X0.600000X0.600000X0*%
%ADD16RoundRect,0.250000X-0.550000X-0.550000X0.550000X-0.550000X0.550000X0.550000X-0.550000X0.550000X0*%
%ADD17C,1.600000*%
%ADD18RoundRect,0.248400X-0.651600X0.651600X-0.651600X-0.651600X0.651600X-0.651600X0.651600X0.651600X0*%
G04 APERTURE END LIST*
D10*
%TO.C,D3*%
X117500000Y-122230000D03*
D11*
X117500000Y-124770000D03*
%TD*%
D12*
%TO.C,MH*%
X93500000Y-143500000D03*
X101500000Y-143500000D03*
X109500000Y-143500000D03*
X117500000Y-143500000D03*
%TD*%
D10*
%TO.C,D2*%
X95000000Y-120420000D03*
D11*
X95000000Y-122960000D03*
%TD*%
D12*
%TO.C,MH*%
X93500000Y-103500000D03*
X101500000Y-103500000D03*
X109500000Y-103500000D03*
X117500000Y-103500000D03*
%TD*%
D13*
%TO.C,J1*%
X100400000Y-136600000D03*
D14*
X102940000Y-136600000D03*
X105480000Y-136600000D03*
X108020000Y-136600000D03*
X110560000Y-136600000D03*
%TD*%
D15*
%TO.C,J2*%
X109540000Y-111960000D03*
D14*
X109540000Y-114500000D03*
X107000000Y-111960000D03*
X107000000Y-114500000D03*
X104460000Y-111960000D03*
X104460000Y-114500000D03*
%TD*%
D16*
%TO.C,U1*%
X104695000Y-121190000D03*
D17*
X104695000Y-123730000D03*
X104695000Y-126270000D03*
X104695000Y-128810000D03*
X112315000Y-128810000D03*
X112315000Y-126270000D03*
X112315000Y-123730000D03*
X112315000Y-121190000D03*
%TD*%
%TO.C,R1*%
X117660000Y-133000000D03*
X107500000Y-133000000D03*
%TD*%
D10*
%TO.C,D1*%
X117500000Y-130000000D03*
D11*
X117500000Y-127460000D03*
%TD*%
D17*
%TO.C,R2*%
X101000000Y-120420000D03*
X101000000Y-130580000D03*
%TD*%
D18*
%TO.C,U2*%
X95000000Y-126420000D03*
D11*
X95000000Y-128960000D03*
X95000000Y-131500000D03*
%TD*%
D17*
%TO.C,R3*%
X117500000Y-119660000D03*
X117500000Y-109500000D03*
%TD*%
M02*
