%TF.GenerationSoftware,KiCad,Pcbnew,9.0.7*%
%TF.CreationDate,2026-01-25T12:57:44+01:00*%
%TF.ProjectId,DiyIrTower,44697949-7254-46f7-9765-722e6b696361,1.0*%
%TF.SameCoordinates,Original*%
%TF.FileFunction,Copper,L1,Top*%
%TF.FilePolarity,Positive*%
%FSLAX46Y46*%
G04 Gerber Fmt 4.6, Leading zero omitted, Abs format (unit mm)*
G04 Created by KiCad (PCBNEW 9.0.7) date 2026-01-25 12:57:44*
%MOMM*%
%LPD*%
G01*
G04 APERTURE LIST*
G04 Aperture macros list*
%AMRoundRect*
0 Rectangle with rounded corners*
0 $1 Rounding radius*
0 $2 $3 $4 $5 $6 $7 $8 $9 X,Y pos of 4 corners*
0 Add a 4 corners polygon primitive as box body*
4,1,4,$2,$3,$4,$5,$6,$7,$8,$9,$2,$3,0*
0 Add four circle primitives for the rounded corners*
1,1,$1+$1,$2,$3*
1,1,$1+$1,$4,$5*
1,1,$1+$1,$6,$7*
1,1,$1+$1,$8,$9*
0 Add four rect primitives between the rounded corners*
20,1,$1+$1,$2,$3,$4,$5,0*
20,1,$1+$1,$4,$5,$6,$7,0*
20,1,$1+$1,$6,$7,$8,$9,0*
20,1,$1+$1,$8,$9,$2,$3,0*%
G04 Aperture macros list end*
%TA.AperFunction,ComponentPad*%
%ADD10R,1.800000X1.800000*%
%TD*%
%TA.AperFunction,ComponentPad*%
%ADD11C,1.800000*%
%TD*%
%TA.AperFunction,ComponentPad*%
%ADD12C,6.000000*%
%TD*%
%TA.AperFunction,ComponentPad*%
%ADD13R,1.700000X1.700000*%
%TD*%
%TA.AperFunction,ComponentPad*%
%ADD14C,1.700000*%
%TD*%
%TA.AperFunction,ComponentPad*%
%ADD15RoundRect,0.250000X-0.600000X0.600000X-0.600000X-0.600000X0.600000X-0.600000X0.600000X0.600000X0*%
%TD*%
%TA.AperFunction,ComponentPad*%
%ADD16RoundRect,0.250000X-0.550000X-0.550000X0.550000X-0.550000X0.550000X0.550000X-0.550000X0.550000X0*%
%TD*%
%TA.AperFunction,ComponentPad*%
%ADD17C,1.600000*%
%TD*%
%TA.AperFunction,ComponentPad*%
%ADD18RoundRect,0.248400X-0.651600X0.651600X-0.651600X-0.651600X0.651600X-0.651600X0.651600X0.651600X0*%
%TD*%
%TA.AperFunction,Conductor*%
%ADD19C,0.200000*%
%TD*%
G04 APERTURE END LIST*
D10*
%TO.P,D3,1,K*%
%TO.N,Net-(D3-K)*%
X117500000Y-122230000D03*
D11*
%TO.P,D3,2,A*%
%TO.N,VCC*%
X117500000Y-124770000D03*
%TD*%
D12*
%TO.P,MH,1*%
%TO.N,N/C*%
X93500000Y-143500000D03*
%TO.P,MH,2*%
X101500000Y-143500000D03*
%TO.P,MH,3*%
X109500000Y-143500000D03*
%TO.P,MH,4*%
X117500000Y-143500000D03*
%TD*%
D10*
%TO.P,D2,1,K*%
%TO.N,Net-(D2-K)*%
X95000000Y-120420000D03*
D11*
%TO.P,D2,2,A*%
%TO.N,/IR_TX*%
X95000000Y-122960000D03*
%TD*%
D12*
%TO.P,MH,1*%
%TO.N,N/C*%
X93500000Y-103500000D03*
%TO.P,MH,2*%
X101500000Y-103500000D03*
%TO.P,MH,3*%
X109500000Y-103500000D03*
%TO.P,MH,4*%
X117500000Y-103500000D03*
%TD*%
D13*
%TO.P,J1,1,Pin_1*%
%TO.N,/5V*%
X100400000Y-136600000D03*
D14*
%TO.P,J1,2,Pin_2*%
%TO.N,/3V3*%
X102940000Y-136600000D03*
%TO.P,J1,3,Pin_3*%
%TO.N,/UART_TX*%
X105480000Y-136600000D03*
%TO.P,J1,4,Pin_4*%
%TO.N,/UART_RX*%
X108020000Y-136600000D03*
%TO.P,J1,5,Pin_5*%
%TO.N,GND*%
X110560000Y-136600000D03*
%TD*%
D15*
%TO.P,J2,1,MISO*%
%TO.N,/UART_TX*%
X109540000Y-111960000D03*
D14*
%TO.P,J2,2,VCC*%
%TO.N,VCC*%
X109540000Y-114500000D03*
%TO.P,J2,3,SCK*%
%TO.N,/IR_TX*%
X107000000Y-111960000D03*
%TO.P,J2,4,MOSI*%
%TO.N,/UART_RX*%
X107000000Y-114500000D03*
%TO.P,J2,5,~{RST}*%
%TO.N,Net-(J2-~{RST})*%
X104460000Y-111960000D03*
%TO.P,J2,6,GND*%
%TO.N,GND*%
X104460000Y-114500000D03*
%TD*%
D16*
%TO.P,U1,1,~{RESET}/PB5*%
%TO.N,Net-(J2-~{RST})*%
X104695000Y-121190000D03*
D17*
%TO.P,U1,2,PB3*%
%TO.N,/IR_TX*%
X104695000Y-123730000D03*
%TO.P,U1,3,PB4*%
%TO.N,/IR_RX*%
X104695000Y-126270000D03*
%TO.P,U1,4,GND*%
%TO.N,GND*%
X104695000Y-128810000D03*
%TO.P,U1,5,PB0*%
%TO.N,/UART_RX*%
X112315000Y-128810000D03*
%TO.P,U1,6,PB1*%
%TO.N,/UART_TX*%
X112315000Y-126270000D03*
%TO.P,U1,7,PB2*%
%TO.N,/ACTIVITY*%
X112315000Y-123730000D03*
%TO.P,U1,8,VCC*%
%TO.N,VCC*%
X112315000Y-121190000D03*
%TD*%
%TO.P,R1,1*%
%TO.N,Net-(D1-K)*%
X117660000Y-133000000D03*
%TO.P,R1,2*%
%TO.N,GND*%
X107500000Y-133000000D03*
%TD*%
D10*
%TO.P,D1,1,K*%
%TO.N,Net-(D1-K)*%
X117500000Y-130000000D03*
D11*
%TO.P,D1,2,A*%
%TO.N,/ACTIVITY*%
X117500000Y-127460000D03*
%TD*%
D17*
%TO.P,R2,1*%
%TO.N,Net-(D2-K)*%
X101000000Y-120420000D03*
%TO.P,R2,2*%
%TO.N,GND*%
X101000000Y-130580000D03*
%TD*%
D18*
%TO.P,U2,1,OUT*%
%TO.N,/IR_RX*%
X95000000Y-126420000D03*
D11*
%TO.P,U2,2,GND*%
%TO.N,GND*%
X95000000Y-128960000D03*
%TO.P,U2,3,Vs*%
%TO.N,VCC*%
X95000000Y-131500000D03*
%TD*%
D17*
%TO.P,R3,1*%
%TO.N,Net-(D3-K)*%
X117500000Y-119660000D03*
%TO.P,R3,2*%
%TO.N,GND*%
X117500000Y-109500000D03*
%TD*%
D19*
%TO.N,Net-(D1-K)*%
X117660000Y-130160000D02*
X117500000Y-130000000D01*
X117660000Y-133000000D02*
X117660000Y-130160000D01*
%TO.N,/ACTIVITY*%
X116000000Y-127415000D02*
X116000000Y-127500000D01*
X116000000Y-127500000D02*
X116040000Y-127460000D01*
X116040000Y-127460000D02*
X117500000Y-127460000D01*
X112315000Y-123730000D02*
X116000000Y-127415000D01*
%TO.N,/IR_TX*%
X103691000Y-110809000D02*
X101500000Y-113000000D01*
X103500000Y-122960000D02*
X103925000Y-122960000D01*
X103925000Y-122960000D02*
X104695000Y-123730000D01*
X103000000Y-122960000D02*
X103500000Y-122960000D01*
X103000000Y-120500000D02*
X103000000Y-122960000D01*
X101500000Y-119000000D02*
X103000000Y-120500000D01*
X107000000Y-111960000D02*
X105849000Y-110809000D01*
X101500000Y-113000000D02*
X101500000Y-119000000D01*
X105849000Y-110809000D02*
X103691000Y-110809000D01*
X95000000Y-122960000D02*
X103000000Y-122960000D01*
%TO.N,Net-(D2-K)*%
X97000000Y-122000000D02*
X99500000Y-122000000D01*
X99500000Y-122000000D02*
X101000000Y-120500000D01*
X95000000Y-120420000D02*
X95420000Y-120420000D01*
X95420000Y-120420000D02*
X97000000Y-122000000D01*
X101000000Y-120500000D02*
X101000000Y-120420000D01*
%TO.N,Net-(D3-K)*%
X117500000Y-122230000D02*
X117500000Y-119660000D01*
%TO.N,/UART_TX*%
X108151000Y-113349000D02*
X106523240Y-113349000D01*
X111000000Y-127585000D02*
X112315000Y-126270000D01*
X107580000Y-134500000D02*
X109000000Y-134500000D01*
X106523240Y-113349000D02*
X105849000Y-114023240D01*
X109000000Y-134500000D02*
X111000000Y-132500000D01*
X110813000Y-124768000D02*
X112315000Y-126270000D01*
X105480000Y-136600000D02*
X107580000Y-134500000D01*
X111000000Y-132500000D02*
X111000000Y-127585000D01*
X110813000Y-120000000D02*
X110813000Y-124768000D01*
X105849000Y-115036000D02*
X110813000Y-120000000D01*
X105849000Y-114023240D02*
X105849000Y-115036000D01*
X109540000Y-111960000D02*
X108151000Y-113349000D01*
%TO.N,/UART_RX*%
X111214000Y-118714000D02*
X111214000Y-124186050D01*
X107000000Y-114500000D02*
X111214000Y-118714000D01*
X113416000Y-125813950D02*
X113416000Y-127709000D01*
X112027950Y-125000000D02*
X112602050Y-125000000D01*
X113416000Y-127709000D02*
X112315000Y-128810000D01*
X112602050Y-125000000D02*
X113416000Y-125813950D01*
X112315000Y-132305000D02*
X108020000Y-136600000D01*
X111214000Y-124186050D02*
X112027950Y-125000000D01*
X112315000Y-128810000D02*
X112315000Y-132305000D01*
%TO.N,Net-(J2-~{RST})*%
X104460000Y-111960000D02*
X102000000Y-114420000D01*
X104690000Y-121190000D02*
X104695000Y-121190000D01*
X102000000Y-114420000D02*
X102000000Y-118500000D01*
X102000000Y-118500000D02*
X104690000Y-121190000D01*
%TO.N,/IR_RX*%
X95150000Y-126270000D02*
X95000000Y-126420000D01*
X104695000Y-126270000D02*
X95150000Y-126270000D01*
%TD*%
%TA.AperFunction,Conductor*%
%TO.N,GND*%
G36*
X105801444Y-112613999D02*
G01*
X105840486Y-112659056D01*
X105844951Y-112667820D01*
X105969890Y-112839786D01*
X105988873Y-112858769D01*
X106022358Y-112920092D01*
X106017374Y-112989784D01*
X105988873Y-113034131D01*
X105368481Y-113654522D01*
X105368480Y-113654524D01*
X105329026Y-113722861D01*
X105289423Y-113791455D01*
X105248499Y-113944183D01*
X105248499Y-113944185D01*
X105248499Y-114013693D01*
X105228814Y-114080732D01*
X105212180Y-114101374D01*
X104942962Y-114370591D01*
X104925925Y-114307007D01*
X104860099Y-114192993D01*
X104767007Y-114099901D01*
X104652993Y-114034075D01*
X104589408Y-114017037D01*
X105221716Y-113384728D01*
X105167547Y-113345373D01*
X105167547Y-113345372D01*
X105158500Y-113340763D01*
X105107706Y-113292788D01*
X105090912Y-113224966D01*
X105113451Y-113158832D01*
X105158508Y-113119793D01*
X105167816Y-113115051D01*
X105286728Y-113028657D01*
X105339786Y-112990109D01*
X105339788Y-112990106D01*
X105339792Y-112990104D01*
X105490104Y-112839792D01*
X105490106Y-112839788D01*
X105490109Y-112839786D01*
X105615048Y-112667820D01*
X105615047Y-112667820D01*
X105615051Y-112667816D01*
X105619514Y-112659054D01*
X105667488Y-112608259D01*
X105735308Y-112591463D01*
X105801444Y-112613999D01*
G37*
%TD.AperFunction*%
%TA.AperFunction,Conductor*%
G36*
X100244942Y-100020185D02*
G01*
X100290697Y-100072989D01*
X100300641Y-100142147D01*
X100271616Y-100205703D01*
X100225356Y-100239060D01*
X100107738Y-100287779D01*
X100001535Y-100331770D01*
X100001530Y-100331772D01*
X99698224Y-100493893D01*
X99698206Y-100493904D01*
X99412248Y-100684975D01*
X99412234Y-100684985D01*
X99146367Y-100903176D01*
X98903176Y-101146367D01*
X98684985Y-101412234D01*
X98684975Y-101412248D01*
X98493904Y-101698206D01*
X98493893Y-101698224D01*
X98331772Y-102001530D01*
X98331770Y-102001535D01*
X98200150Y-102319293D01*
X98100308Y-102648427D01*
X98033210Y-102985750D01*
X97999500Y-103328034D01*
X97999500Y-103671965D01*
X98033210Y-104014249D01*
X98100308Y-104351572D01*
X98200150Y-104680706D01*
X98331770Y-104998464D01*
X98331772Y-104998469D01*
X98493893Y-105301775D01*
X98493904Y-105301793D01*
X98684975Y-105587751D01*
X98684985Y-105587765D01*
X98903176Y-105853632D01*
X99146367Y-106096823D01*
X99146372Y-106096827D01*
X99146373Y-106096828D01*
X99412240Y-106315019D01*
X99698213Y-106506100D01*
X99698222Y-106506105D01*
X99698224Y-106506106D01*
X100001530Y-106668227D01*
X100001532Y-106668227D01*
X100001538Y-106668231D01*
X100319295Y-106799850D01*
X100648422Y-106899690D01*
X100985750Y-106966789D01*
X101328031Y-107000500D01*
X101328034Y-107000500D01*
X101671966Y-107000500D01*
X101671969Y-107000500D01*
X102014250Y-106966789D01*
X102351578Y-106899690D01*
X102680705Y-106799850D01*
X102998462Y-106668231D01*
X103301787Y-106506100D01*
X103587760Y-106315019D01*
X103853627Y-106096828D01*
X104096828Y-105853627D01*
X104315019Y-105587760D01*
X104506100Y-105301787D01*
X104668231Y-104998462D01*
X104799850Y-104680705D01*
X104899690Y-104351578D01*
X104966789Y-104014250D01*
X105000500Y-103671969D01*
X105000500Y-103328031D01*
X104966789Y-102985750D01*
X104899690Y-102648422D01*
X104799850Y-102319295D01*
X104668231Y-102001538D01*
X104506100Y-101698213D01*
X104315019Y-101412240D01*
X104096828Y-101146373D01*
X104096827Y-101146372D01*
X104096823Y-101146367D01*
X103853632Y-100903176D01*
X103587765Y-100684985D01*
X103587764Y-100684984D01*
X103587760Y-100684981D01*
X103301787Y-100493900D01*
X103301782Y-100493897D01*
X103301775Y-100493893D01*
X102998469Y-100331772D01*
X102998464Y-100331770D01*
X102998462Y-100331769D01*
X102774643Y-100239060D01*
X102720241Y-100195220D01*
X102698176Y-100128926D01*
X102715455Y-100061227D01*
X102766592Y-100013616D01*
X102822097Y-100000500D01*
X108177903Y-100000500D01*
X108244942Y-100020185D01*
X108290697Y-100072989D01*
X108300641Y-100142147D01*
X108271616Y-100205703D01*
X108225356Y-100239060D01*
X108107738Y-100287779D01*
X108001535Y-100331770D01*
X108001530Y-100331772D01*
X107698224Y-100493893D01*
X107698206Y-100493904D01*
X107412248Y-100684975D01*
X107412234Y-100684985D01*
X107146367Y-100903176D01*
X106903176Y-101146367D01*
X106684985Y-101412234D01*
X106684975Y-101412248D01*
X106493904Y-101698206D01*
X106493893Y-101698224D01*
X106331772Y-102001530D01*
X106331770Y-102001535D01*
X106200150Y-102319293D01*
X106100308Y-102648427D01*
X106033210Y-102985750D01*
X105999500Y-103328034D01*
X105999500Y-103671965D01*
X106033210Y-104014249D01*
X106100308Y-104351572D01*
X106200150Y-104680706D01*
X106331770Y-104998464D01*
X106331772Y-104998469D01*
X106493893Y-105301775D01*
X106493904Y-105301793D01*
X106684975Y-105587751D01*
X106684985Y-105587765D01*
X106903176Y-105853632D01*
X107146367Y-106096823D01*
X107146372Y-106096827D01*
X107146373Y-106096828D01*
X107412240Y-106315019D01*
X107698213Y-106506100D01*
X107698222Y-106506105D01*
X107698224Y-106506106D01*
X108001530Y-106668227D01*
X108001532Y-106668227D01*
X108001538Y-106668231D01*
X108319295Y-106799850D01*
X108648422Y-106899690D01*
X108985750Y-106966789D01*
X109328031Y-107000500D01*
X109328034Y-107000500D01*
X109671966Y-107000500D01*
X109671969Y-107000500D01*
X110014250Y-106966789D01*
X110351578Y-106899690D01*
X110680705Y-106799850D01*
X110998462Y-106668231D01*
X111301787Y-106506100D01*
X111587760Y-106315019D01*
X111853627Y-106096828D01*
X112096828Y-105853627D01*
X112315019Y-105587760D01*
X112506100Y-105301787D01*
X112668231Y-104998462D01*
X112799850Y-104680705D01*
X112899690Y-104351578D01*
X112966789Y-104014250D01*
X113000500Y-103671969D01*
X113000500Y-103328031D01*
X112966789Y-102985750D01*
X112899690Y-102648422D01*
X112799850Y-102319295D01*
X112668231Y-102001538D01*
X112506100Y-101698213D01*
X112315019Y-101412240D01*
X112096828Y-101146373D01*
X112096827Y-101146372D01*
X112096823Y-101146367D01*
X111853632Y-100903176D01*
X111587765Y-100684985D01*
X111587764Y-100684984D01*
X111587760Y-100684981D01*
X111301787Y-100493900D01*
X111301782Y-100493897D01*
X111301775Y-100493893D01*
X110998469Y-100331772D01*
X110998464Y-100331770D01*
X110998462Y-100331769D01*
X110774643Y-100239060D01*
X110720241Y-100195220D01*
X110698176Y-100128926D01*
X110715455Y-100061227D01*
X110766592Y-100013616D01*
X110822097Y-100000500D01*
X116177903Y-100000500D01*
X116244942Y-100020185D01*
X116290697Y-100072989D01*
X116300641Y-100142147D01*
X116271616Y-100205703D01*
X116225356Y-100239060D01*
X116107738Y-100287779D01*
X116001535Y-100331770D01*
X116001530Y-100331772D01*
X115698224Y-100493893D01*
X115698206Y-100493904D01*
X115412248Y-100684975D01*
X115412234Y-100684985D01*
X115146367Y-100903176D01*
X114903176Y-101146367D01*
X114684985Y-101412234D01*
X114684975Y-101412248D01*
X114493904Y-101698206D01*
X114493893Y-101698224D01*
X114331772Y-102001530D01*
X114331770Y-102001535D01*
X114200150Y-102319293D01*
X114100308Y-102648427D01*
X114033210Y-102985750D01*
X113999500Y-103328034D01*
X113999500Y-103671965D01*
X114033210Y-104014249D01*
X114100308Y-104351572D01*
X114200150Y-104680706D01*
X114331770Y-104998464D01*
X114331772Y-104998469D01*
X114493893Y-105301775D01*
X114493904Y-105301793D01*
X114684975Y-105587751D01*
X114684985Y-105587765D01*
X114903176Y-105853632D01*
X115146367Y-106096823D01*
X115146372Y-106096827D01*
X115146373Y-106096828D01*
X115412240Y-106315019D01*
X115698213Y-106506100D01*
X115698222Y-106506105D01*
X115698224Y-106506106D01*
X116001530Y-106668227D01*
X116001532Y-106668227D01*
X116001538Y-106668231D01*
X116319295Y-106799850D01*
X116648422Y-106899690D01*
X116985750Y-106966789D01*
X117328031Y-107000500D01*
X117328034Y-107000500D01*
X117671966Y-107000500D01*
X117671969Y-107000500D01*
X118014250Y-106966789D01*
X118351578Y-106899690D01*
X118680705Y-106799850D01*
X118998462Y-106668231D01*
X119301787Y-106506100D01*
X119587760Y-106315019D01*
X119853627Y-106096828D01*
X120096828Y-105853627D01*
X120315019Y-105587760D01*
X120506100Y-105301787D01*
X120668231Y-104998462D01*
X120760939Y-104774643D01*
X120804780Y-104720241D01*
X120871074Y-104698176D01*
X120938773Y-104715455D01*
X120986384Y-104766592D01*
X120999500Y-104822097D01*
X120999500Y-142177902D01*
X120979815Y-142244941D01*
X120927011Y-142290696D01*
X120857853Y-142300640D01*
X120794297Y-142271615D01*
X120760939Y-142225355D01*
X120741283Y-142177902D01*
X120668231Y-142001538D01*
X120506100Y-141698213D01*
X120315019Y-141412240D01*
X120096828Y-141146373D01*
X120096827Y-141146372D01*
X120096823Y-141146367D01*
X119853632Y-140903176D01*
X119587765Y-140684985D01*
X119587764Y-140684984D01*
X119587760Y-140684981D01*
X119301787Y-140493900D01*
X119301782Y-140493897D01*
X119301775Y-140493893D01*
X118998469Y-140331772D01*
X118998464Y-140331770D01*
X118680706Y-140200150D01*
X118351572Y-140100308D01*
X118014248Y-140033210D01*
X118014249Y-140033210D01*
X117756456Y-140007821D01*
X117671969Y-139999500D01*
X117328031Y-139999500D01*
X117249966Y-140007188D01*
X116985750Y-140033210D01*
X116648427Y-140100308D01*
X116319293Y-140200150D01*
X116001535Y-140331770D01*
X116001530Y-140331772D01*
X115698224Y-140493893D01*
X115698206Y-140493904D01*
X115412248Y-140684975D01*
X115412234Y-140684985D01*
X115146367Y-140903176D01*
X114903176Y-141146367D01*
X114684985Y-141412234D01*
X114684975Y-141412248D01*
X114493904Y-141698206D01*
X114493893Y-141698224D01*
X114331772Y-142001530D01*
X114331770Y-142001535D01*
X114200150Y-142319293D01*
X114100308Y-142648427D01*
X114033210Y-142985750D01*
X113999500Y-143328034D01*
X113999500Y-143671965D01*
X114033210Y-144014249D01*
X114100308Y-144351572D01*
X114200150Y-144680706D01*
X114331770Y-144998464D01*
X114331772Y-144998469D01*
X114493893Y-145301775D01*
X114493904Y-145301793D01*
X114684975Y-145587751D01*
X114684985Y-145587765D01*
X114903176Y-145853632D01*
X115146367Y-146096823D01*
X115146372Y-146096827D01*
X115146373Y-146096828D01*
X115412240Y-146315019D01*
X115698213Y-146506100D01*
X115698222Y-146506105D01*
X115698224Y-146506106D01*
X116001530Y-146668227D01*
X116001532Y-146668227D01*
X116001538Y-146668231D01*
X116225356Y-146760939D01*
X116279759Y-146804780D01*
X116301824Y-146871074D01*
X116284545Y-146938773D01*
X116233408Y-146986384D01*
X116177903Y-146999500D01*
X110822097Y-146999500D01*
X110755058Y-146979815D01*
X110709303Y-146927011D01*
X110699359Y-146857853D01*
X110728384Y-146794297D01*
X110774643Y-146760939D01*
X110998462Y-146668231D01*
X111301787Y-146506100D01*
X111587760Y-146315019D01*
X111853627Y-146096828D01*
X112096828Y-145853627D01*
X112315019Y-145587760D01*
X112506100Y-145301787D01*
X112668231Y-144998462D01*
X112799850Y-144680705D01*
X112899690Y-144351578D01*
X112966789Y-144014250D01*
X113000500Y-143671969D01*
X113000500Y-143328031D01*
X112966789Y-142985750D01*
X112899690Y-142648422D01*
X112799850Y-142319295D01*
X112668231Y-142001538D01*
X112506100Y-141698213D01*
X112315019Y-141412240D01*
X112096828Y-141146373D01*
X112096827Y-141146372D01*
X112096823Y-141146367D01*
X111853632Y-140903176D01*
X111587765Y-140684985D01*
X111587764Y-140684984D01*
X111587760Y-140684981D01*
X111301787Y-140493900D01*
X111301782Y-140493897D01*
X111301775Y-140493893D01*
X110998469Y-140331772D01*
X110998464Y-140331770D01*
X110680706Y-140200150D01*
X110351572Y-140100308D01*
X110014248Y-140033210D01*
X110014249Y-140033210D01*
X109756456Y-140007821D01*
X109671969Y-139999500D01*
X109328031Y-139999500D01*
X109249966Y-140007188D01*
X108985750Y-140033210D01*
X108648427Y-140100308D01*
X108319293Y-140200150D01*
X108001535Y-140331770D01*
X108001530Y-140331772D01*
X107698224Y-140493893D01*
X107698206Y-140493904D01*
X107412248Y-140684975D01*
X107412234Y-140684985D01*
X107146367Y-140903176D01*
X106903176Y-141146367D01*
X106684985Y-141412234D01*
X106684975Y-141412248D01*
X106493904Y-141698206D01*
X106493893Y-141698224D01*
X106331772Y-142001530D01*
X106331770Y-142001535D01*
X106200150Y-142319293D01*
X106100308Y-142648427D01*
X106033210Y-142985750D01*
X105999500Y-143328034D01*
X105999500Y-143671965D01*
X106033210Y-144014249D01*
X106100308Y-144351572D01*
X106200150Y-144680706D01*
X106331770Y-144998464D01*
X106331772Y-144998469D01*
X106493893Y-145301775D01*
X106493904Y-145301793D01*
X106684975Y-145587751D01*
X106684985Y-145587765D01*
X106903176Y-145853632D01*
X107146367Y-146096823D01*
X107146372Y-146096827D01*
X107146373Y-146096828D01*
X107412240Y-146315019D01*
X107698213Y-146506100D01*
X107698222Y-146506105D01*
X107698224Y-146506106D01*
X108001530Y-146668227D01*
X108001532Y-146668227D01*
X108001538Y-146668231D01*
X108225356Y-146760939D01*
X108279759Y-146804780D01*
X108301824Y-146871074D01*
X108284545Y-146938773D01*
X108233408Y-146986384D01*
X108177903Y-146999500D01*
X102822097Y-146999500D01*
X102755058Y-146979815D01*
X102709303Y-146927011D01*
X102699359Y-146857853D01*
X102728384Y-146794297D01*
X102774643Y-146760939D01*
X102998462Y-146668231D01*
X103301787Y-146506100D01*
X103587760Y-146315019D01*
X103853627Y-146096828D01*
X104096828Y-145853627D01*
X104315019Y-145587760D01*
X104506100Y-145301787D01*
X104668231Y-144998462D01*
X104799850Y-144680705D01*
X104899690Y-144351578D01*
X104966789Y-144014250D01*
X105000500Y-143671969D01*
X105000500Y-143328031D01*
X104966789Y-142985750D01*
X104899690Y-142648422D01*
X104799850Y-142319295D01*
X104668231Y-142001538D01*
X104506100Y-141698213D01*
X104315019Y-141412240D01*
X104096828Y-141146373D01*
X104096827Y-141146372D01*
X104096823Y-141146367D01*
X103853632Y-140903176D01*
X103587765Y-140684985D01*
X103587764Y-140684984D01*
X103587760Y-140684981D01*
X103301787Y-140493900D01*
X103301782Y-140493897D01*
X103301775Y-140493893D01*
X102998469Y-140331772D01*
X102998464Y-140331770D01*
X102680706Y-140200150D01*
X102351572Y-140100308D01*
X102014248Y-140033210D01*
X102014249Y-140033210D01*
X101756456Y-140007821D01*
X101671969Y-139999500D01*
X101328031Y-139999500D01*
X101249966Y-140007188D01*
X100985750Y-140033210D01*
X100648427Y-140100308D01*
X100319293Y-140200150D01*
X100001535Y-140331770D01*
X100001530Y-140331772D01*
X99698224Y-140493893D01*
X99698206Y-140493904D01*
X99412248Y-140684975D01*
X99412234Y-140684985D01*
X99146367Y-140903176D01*
X98903176Y-141146367D01*
X98684985Y-141412234D01*
X98684975Y-141412248D01*
X98493904Y-141698206D01*
X98493893Y-141698224D01*
X98331772Y-142001530D01*
X98331770Y-142001535D01*
X98200150Y-142319293D01*
X98100308Y-142648427D01*
X98033210Y-142985750D01*
X97999500Y-143328034D01*
X97999500Y-143671965D01*
X98033210Y-144014249D01*
X98100308Y-144351572D01*
X98200150Y-144680706D01*
X98331770Y-144998464D01*
X98331772Y-144998469D01*
X98493893Y-145301775D01*
X98493904Y-145301793D01*
X98684975Y-145587751D01*
X98684985Y-145587765D01*
X98903176Y-145853632D01*
X99146367Y-146096823D01*
X99146372Y-146096827D01*
X99146373Y-146096828D01*
X99412240Y-146315019D01*
X99698213Y-146506100D01*
X99698222Y-146506105D01*
X99698224Y-146506106D01*
X100001530Y-146668227D01*
X100001532Y-146668227D01*
X100001538Y-146668231D01*
X100225356Y-146760939D01*
X100279759Y-146804780D01*
X100301824Y-146871074D01*
X100284545Y-146938773D01*
X100233408Y-146986384D01*
X100177903Y-146999500D01*
X94822097Y-146999500D01*
X94755058Y-146979815D01*
X94709303Y-146927011D01*
X94699359Y-146857853D01*
X94728384Y-146794297D01*
X94774643Y-146760939D01*
X94998462Y-146668231D01*
X95301787Y-146506100D01*
X95587760Y-146315019D01*
X95853627Y-146096828D01*
X96096828Y-145853627D01*
X96315019Y-145587760D01*
X96506100Y-145301787D01*
X96668231Y-144998462D01*
X96799850Y-144680705D01*
X96899690Y-144351578D01*
X96966789Y-144014250D01*
X97000500Y-143671969D01*
X97000500Y-143328031D01*
X96966789Y-142985750D01*
X96899690Y-142648422D01*
X96799850Y-142319295D01*
X96668231Y-142001538D01*
X96506100Y-141698213D01*
X96315019Y-141412240D01*
X96096828Y-141146373D01*
X96096827Y-141146372D01*
X96096823Y-141146367D01*
X95853632Y-140903176D01*
X95587765Y-140684985D01*
X95587764Y-140684984D01*
X95587760Y-140684981D01*
X95301787Y-140493900D01*
X95301782Y-140493897D01*
X95301775Y-140493893D01*
X94998469Y-140331772D01*
X94998464Y-140331770D01*
X94680706Y-140200150D01*
X94351572Y-140100308D01*
X94014248Y-140033210D01*
X94014249Y-140033210D01*
X93756456Y-140007821D01*
X93671969Y-139999500D01*
X93328031Y-139999500D01*
X93249966Y-140007188D01*
X92985750Y-140033210D01*
X92648427Y-140100308D01*
X92319293Y-140200150D01*
X92001535Y-140331770D01*
X92001530Y-140331772D01*
X91698224Y-140493893D01*
X91698206Y-140493904D01*
X91412248Y-140684975D01*
X91412234Y-140684985D01*
X91146367Y-140903176D01*
X90903176Y-141146367D01*
X90684985Y-141412234D01*
X90684975Y-141412248D01*
X90493904Y-141698206D01*
X90493893Y-141698224D01*
X90331772Y-142001530D01*
X90331770Y-142001535D01*
X90239061Y-142225355D01*
X90195220Y-142279758D01*
X90128926Y-142301823D01*
X90061226Y-142284544D01*
X90013616Y-142233406D01*
X90000500Y-142177902D01*
X90000500Y-119472135D01*
X93599500Y-119472135D01*
X93599500Y-121367870D01*
X93599501Y-121367876D01*
X93605908Y-121427483D01*
X93656202Y-121562328D01*
X93656206Y-121562335D01*
X93742452Y-121677544D01*
X93742455Y-121677547D01*
X93857664Y-121763793D01*
X93857671Y-121763797D01*
X93937580Y-121793601D01*
X93993514Y-121835472D01*
X94017931Y-121900936D01*
X94003080Y-121969209D01*
X93981929Y-121997463D01*
X93931756Y-122047636D01*
X93931752Y-122047641D01*
X93802187Y-122225974D01*
X93702104Y-122422393D01*
X93702103Y-122422396D01*
X93633985Y-122632047D01*
X93599500Y-122849778D01*
X93599500Y-123070221D01*
X93633985Y-123287952D01*
X93702103Y-123497603D01*
X93702104Y-123497606D01*
X93756113Y-123603601D01*
X93797333Y-123684500D01*
X93802187Y-123694025D01*
X93931752Y-123872358D01*
X93931756Y-123872363D01*
X94087636Y-124028243D01*
X94087641Y-124028247D01*
X94115987Y-124048841D01*
X94265978Y-124157815D01*
X94394375Y-124223237D01*
X94462393Y-124257895D01*
X94462396Y-124257896D01*
X94567221Y-124291955D01*
X94672049Y-124326015D01*
X94889778Y-124360500D01*
X94889779Y-124360500D01*
X95110221Y-124360500D01*
X95110222Y-124360500D01*
X95327951Y-124326015D01*
X95537606Y-124257895D01*
X95734022Y-124157815D01*
X95912365Y-124028242D01*
X96068242Y-123872365D01*
X96197815Y-123694022D01*
X96222553Y-123645472D01*
X96231352Y-123628204D01*
X96279326Y-123577409D01*
X96341836Y-123560500D01*
X102920943Y-123560500D01*
X103079057Y-123560500D01*
X103270500Y-123560500D01*
X103337539Y-123580185D01*
X103383294Y-123632989D01*
X103394500Y-123684500D01*
X103394500Y-123832352D01*
X103398505Y-123857636D01*
X103426522Y-124034534D01*
X103489781Y-124229223D01*
X103582715Y-124411613D01*
X103703028Y-124577213D01*
X103847786Y-124721971D01*
X104002749Y-124834556D01*
X104013390Y-124842287D01*
X104087840Y-124880221D01*
X104106080Y-124889515D01*
X104156876Y-124937490D01*
X104173671Y-125005311D01*
X104151134Y-125071446D01*
X104106080Y-125110485D01*
X104013386Y-125157715D01*
X103847786Y-125278028D01*
X103703028Y-125422786D01*
X103582715Y-125588385D01*
X103575883Y-125601795D01*
X103527909Y-125652591D01*
X103465398Y-125669500D01*
X96497314Y-125669500D01*
X96430275Y-125649815D01*
X96384520Y-125597011D01*
X96379608Y-125584504D01*
X96352939Y-125504022D01*
X96334954Y-125449747D01*
X96243048Y-125300744D01*
X96119256Y-125176952D01*
X95991177Y-125097952D01*
X95970255Y-125085047D01*
X95970250Y-125085045D01*
X95804073Y-125029979D01*
X95804066Y-125029978D01*
X95701502Y-125019500D01*
X94298506Y-125019500D01*
X94298490Y-125019501D01*
X94195926Y-125029979D01*
X94029749Y-125085045D01*
X94029744Y-125085047D01*
X93880742Y-125176953D01*
X93756953Y-125300742D01*
X93665047Y-125449744D01*
X93665045Y-125449749D01*
X93609979Y-125615926D01*
X93609978Y-125615933D01*
X93599500Y-125718491D01*
X93599500Y-127121493D01*
X93599501Y-127121509D01*
X93609979Y-127224073D01*
X93627860Y-127278034D01*
X93665046Y-127390253D01*
X93756952Y-127539256D01*
X93880744Y-127663048D01*
X94029747Y-127754954D01*
X94179469Y-127804567D01*
X94228144Y-127834590D01*
X94911415Y-128517861D01*
X94826306Y-128540667D01*
X94723694Y-128599910D01*
X94639910Y-128683694D01*
X94580667Y-128786306D01*
X94557861Y-128871414D01*
X93848932Y-128162485D01*
X93848931Y-128162485D01*
X93802616Y-128226233D01*
X93702567Y-128422589D01*
X93634473Y-128632164D01*
X93600000Y-128849818D01*
X93600000Y-129070181D01*
X93634473Y-129287835D01*
X93702567Y-129497410D01*
X93802611Y-129693756D01*
X93848932Y-129757513D01*
X94557861Y-129048584D01*
X94580667Y-129133694D01*
X94639910Y-129236306D01*
X94723694Y-129320090D01*
X94826306Y-129379333D01*
X94911414Y-129402137D01*
X94202485Y-130111065D01*
X94202485Y-130111066D01*
X94227680Y-130129371D01*
X94270346Y-130184701D01*
X94276325Y-130254314D01*
X94243720Y-130316110D01*
X94227681Y-130330008D01*
X94087636Y-130431756D01*
X93931756Y-130587636D01*
X93931752Y-130587641D01*
X93802187Y-130765974D01*
X93702104Y-130962393D01*
X93702103Y-130962396D01*
X93633985Y-131172047D01*
X93606783Y-131343793D01*
X93599500Y-131389778D01*
X93599500Y-131610222D01*
X93616742Y-131719086D01*
X93633985Y-131827952D01*
X93702103Y-132037603D01*
X93702104Y-132037606D01*
X93760790Y-132152781D01*
X93784800Y-132199903D01*
X93802187Y-132234025D01*
X93931752Y-132412358D01*
X93931756Y-132412363D01*
X94087635Y-132568242D01*
X94087641Y-132568247D01*
X94131346Y-132600000D01*
X94265978Y-132697815D01*
X94394375Y-132763237D01*
X94462393Y-132797895D01*
X94462396Y-132797896D01*
X94567221Y-132831955D01*
X94672049Y-132866015D01*
X94889778Y-132900500D01*
X94889779Y-132900500D01*
X95110221Y-132900500D01*
X95110222Y-132900500D01*
X95327951Y-132866015D01*
X95537606Y-132797895D01*
X95734022Y-132697815D01*
X95912365Y-132568242D01*
X96068242Y-132412365D01*
X96197815Y-132234022D01*
X96297895Y-132037606D01*
X96366015Y-131827951D01*
X96400500Y-131610222D01*
X96400500Y-131389778D01*
X96366015Y-131172049D01*
X96312545Y-131007482D01*
X96297896Y-130962396D01*
X96297895Y-130962393D01*
X96228197Y-130825606D01*
X96197815Y-130765978D01*
X96137032Y-130682317D01*
X96068247Y-130587641D01*
X96068243Y-130587636D01*
X95958289Y-130477682D01*
X99700000Y-130477682D01*
X99700000Y-130682317D01*
X99732009Y-130884417D01*
X99795244Y-131079031D01*
X99888141Y-131261350D01*
X99888147Y-131261359D01*
X99920523Y-131305921D01*
X99920524Y-131305922D01*
X100600000Y-130626446D01*
X100600000Y-130632661D01*
X100627259Y-130734394D01*
X100679920Y-130825606D01*
X100754394Y-130900080D01*
X100845606Y-130952741D01*
X100947339Y-130980000D01*
X100953553Y-130980000D01*
X100274076Y-131659474D01*
X100318650Y-131691859D01*
X100500968Y-131784755D01*
X100695582Y-131847990D01*
X100897683Y-131880000D01*
X101102317Y-131880000D01*
X101304417Y-131847990D01*
X101499031Y-131784755D01*
X101681349Y-131691859D01*
X101725921Y-131659474D01*
X101046447Y-130980000D01*
X101052661Y-130980000D01*
X101154394Y-130952741D01*
X101245606Y-130900080D01*
X101320080Y-130825606D01*
X101372741Y-130734394D01*
X101400000Y-130632661D01*
X101400000Y-130626448D01*
X102079474Y-131305922D01*
X102079474Y-131305921D01*
X102111859Y-131261349D01*
X102204755Y-131079031D01*
X102267990Y-130884417D01*
X102300000Y-130682317D01*
X102300000Y-130477682D01*
X102267990Y-130275582D01*
X102204755Y-130080968D01*
X102111859Y-129898650D01*
X102079474Y-129854077D01*
X102079474Y-129854076D01*
X101400000Y-130533551D01*
X101400000Y-130527339D01*
X101372741Y-130425606D01*
X101320080Y-130334394D01*
X101245606Y-130259920D01*
X101154394Y-130207259D01*
X101052661Y-130180000D01*
X101046446Y-130180000D01*
X101725922Y-129500524D01*
X101725921Y-129500523D01*
X101681359Y-129468147D01*
X101681350Y-129468141D01*
X101499031Y-129375244D01*
X101304417Y-129312009D01*
X101102317Y-129280000D01*
X100897683Y-129280000D01*
X100695582Y-129312009D01*
X100500968Y-129375244D01*
X100318644Y-129468143D01*
X100274077Y-129500523D01*
X100274077Y-129500524D01*
X100953554Y-130180000D01*
X100947339Y-130180000D01*
X100845606Y-130207259D01*
X100754394Y-130259920D01*
X100679920Y-130334394D01*
X100627259Y-130425606D01*
X100600000Y-130527339D01*
X100600000Y-130533553D01*
X99920524Y-129854077D01*
X99920523Y-129854077D01*
X99888143Y-129898644D01*
X99795244Y-130080968D01*
X99732009Y-130275582D01*
X99700000Y-130477682D01*
X95958289Y-130477682D01*
X95912363Y-130431756D01*
X95912358Y-130431752D01*
X95772319Y-130330008D01*
X95729653Y-130274678D01*
X95723674Y-130205065D01*
X95756279Y-130143270D01*
X95772319Y-130129372D01*
X95797513Y-130111066D01*
X95797514Y-130111066D01*
X95088585Y-129402138D01*
X95173694Y-129379333D01*
X95276306Y-129320090D01*
X95360090Y-129236306D01*
X95419333Y-129133694D01*
X95442138Y-129048585D01*
X96151066Y-129757514D01*
X96151066Y-129757513D01*
X96197386Y-129693760D01*
X96297432Y-129497410D01*
X96297432Y-129497409D01*
X96365526Y-129287835D01*
X96400000Y-129070181D01*
X96400000Y-128849819D01*
X96379789Y-128722214D01*
X96379789Y-128722213D01*
X96365527Y-128632165D01*
X96297432Y-128422589D01*
X96197388Y-128226243D01*
X96151066Y-128162485D01*
X96151065Y-128162485D01*
X95442137Y-128871413D01*
X95419333Y-128786306D01*
X95360090Y-128683694D01*
X95276306Y-128599910D01*
X95173694Y-128540667D01*
X95088584Y-128517861D01*
X95771852Y-127834592D01*
X95820526Y-127804568D01*
X95970253Y-127754954D01*
X96119256Y-127663048D01*
X96243048Y-127539256D01*
X96334954Y-127390253D01*
X96390021Y-127224072D01*
X96400500Y-127121501D01*
X96400500Y-126994500D01*
X96420185Y-126927461D01*
X96472989Y-126881706D01*
X96524500Y-126870500D01*
X103465398Y-126870500D01*
X103532437Y-126890185D01*
X103575883Y-126938205D01*
X103582715Y-126951614D01*
X103703028Y-127117213D01*
X103847786Y-127261971D01*
X104013385Y-127382284D01*
X104013387Y-127382285D01*
X104013390Y-127382287D01*
X104106630Y-127429795D01*
X104157426Y-127477770D01*
X104174221Y-127545591D01*
X104151684Y-127611725D01*
X104106630Y-127650765D01*
X104013644Y-127698143D01*
X103969077Y-127730523D01*
X103969077Y-127730524D01*
X104648554Y-128410000D01*
X104642339Y-128410000D01*
X104540606Y-128437259D01*
X104449394Y-128489920D01*
X104374920Y-128564394D01*
X104322259Y-128655606D01*
X104295000Y-128757339D01*
X104295000Y-128763553D01*
X103615524Y-128084077D01*
X103615523Y-128084077D01*
X103583143Y-128128644D01*
X103490244Y-128310968D01*
X103427009Y-128505582D01*
X103395000Y-128707682D01*
X103395000Y-128912317D01*
X103427009Y-129114417D01*
X103490244Y-129309031D01*
X103583141Y-129491350D01*
X103583147Y-129491359D01*
X103615523Y-129535921D01*
X103615524Y-129535922D01*
X104295000Y-128856446D01*
X104295000Y-128862661D01*
X104322259Y-128964394D01*
X104374920Y-129055606D01*
X104449394Y-129130080D01*
X104540606Y-129182741D01*
X104642339Y-129210000D01*
X104648553Y-129210000D01*
X103969076Y-129889474D01*
X104013650Y-129921859D01*
X104195968Y-130014755D01*
X104390582Y-130077990D01*
X104592683Y-130110000D01*
X104797317Y-130110000D01*
X104999417Y-130077990D01*
X105194031Y-130014755D01*
X105376349Y-129921859D01*
X105420921Y-129889474D01*
X104741447Y-129210000D01*
X104747661Y-129210000D01*
X104849394Y-129182741D01*
X104940606Y-129130080D01*
X105015080Y-129055606D01*
X105067741Y-128964394D01*
X105095000Y-128862661D01*
X105095000Y-128856447D01*
X105774474Y-129535921D01*
X105806859Y-129491349D01*
X105899755Y-129309031D01*
X105962990Y-129114417D01*
X105995000Y-128912317D01*
X105995000Y-128707682D01*
X105962990Y-128505582D01*
X105899755Y-128310968D01*
X105806859Y-128128650D01*
X105774474Y-128084077D01*
X105774474Y-128084076D01*
X105095000Y-128763551D01*
X105095000Y-128757339D01*
X105067741Y-128655606D01*
X105015080Y-128564394D01*
X104940606Y-128489920D01*
X104849394Y-128437259D01*
X104747661Y-128410000D01*
X104741446Y-128410000D01*
X105420922Y-127730524D01*
X105420921Y-127730523D01*
X105376359Y-127698147D01*
X105376350Y-127698141D01*
X105283369Y-127650765D01*
X105232573Y-127602790D01*
X105215778Y-127534969D01*
X105238315Y-127468835D01*
X105283370Y-127429795D01*
X105376610Y-127382287D01*
X105426144Y-127346298D01*
X105542213Y-127261971D01*
X105542215Y-127261968D01*
X105542219Y-127261966D01*
X105686966Y-127117219D01*
X105686968Y-127117215D01*
X105686971Y-127117213D01*
X105739732Y-127044590D01*
X105807287Y-126951610D01*
X105900220Y-126769219D01*
X105963477Y-126574534D01*
X105995500Y-126372352D01*
X105995500Y-126167648D01*
X105979700Y-126067895D01*
X105963477Y-125965465D01*
X105900218Y-125770776D01*
X105855166Y-125682358D01*
X105807287Y-125588390D01*
X105745991Y-125504022D01*
X105686971Y-125422786D01*
X105542213Y-125278028D01*
X105376614Y-125157715D01*
X105335397Y-125136714D01*
X105283917Y-125110483D01*
X105233123Y-125062511D01*
X105216328Y-124994690D01*
X105238865Y-124928555D01*
X105283917Y-124889516D01*
X105376610Y-124842287D01*
X105397770Y-124826913D01*
X105542213Y-124721971D01*
X105542215Y-124721968D01*
X105542219Y-124721966D01*
X105686966Y-124577219D01*
X105686968Y-124577215D01*
X105686971Y-124577213D01*
X105739732Y-124504590D01*
X105807287Y-124411610D01*
X105900220Y-124229219D01*
X105963477Y-124034534D01*
X105995500Y-123832352D01*
X105995500Y-123627648D01*
X105991691Y-123603601D01*
X105963477Y-123425465D01*
X105918796Y-123287952D01*
X105900220Y-123230781D01*
X105900218Y-123230778D01*
X105900218Y-123230776D01*
X105866503Y-123164607D01*
X105807287Y-123048390D01*
X105799556Y-123037749D01*
X105686971Y-122882786D01*
X105542219Y-122738034D01*
X105542211Y-122738028D01*
X105448547Y-122669978D01*
X105405882Y-122614649D01*
X105399903Y-122545036D01*
X105432508Y-122483240D01*
X105482426Y-122451955D01*
X105564334Y-122424814D01*
X105713656Y-122332712D01*
X105837712Y-122208656D01*
X105929814Y-122059334D01*
X105984999Y-121892797D01*
X105995500Y-121790009D01*
X105995499Y-120589992D01*
X105984999Y-120487203D01*
X105929814Y-120320666D01*
X105837712Y-120171344D01*
X105713656Y-120047288D01*
X105564334Y-119955186D01*
X105397797Y-119900001D01*
X105397795Y-119900000D01*
X105295016Y-119889500D01*
X105295009Y-119889500D01*
X104290097Y-119889500D01*
X104223058Y-119869815D01*
X104202416Y-119853181D01*
X102636819Y-118287584D01*
X102603334Y-118226261D01*
X102600500Y-118199903D01*
X102600500Y-114720096D01*
X102620185Y-114653057D01*
X102636814Y-114632420D01*
X102898320Y-114370914D01*
X102959642Y-114337430D01*
X103029334Y-114342414D01*
X103085267Y-114384286D01*
X103109684Y-114449750D01*
X103110000Y-114458596D01*
X103110000Y-114606246D01*
X103143242Y-114816127D01*
X103143242Y-114816130D01*
X103208904Y-115018217D01*
X103305375Y-115207550D01*
X103344728Y-115261716D01*
X103977037Y-114629408D01*
X103994075Y-114692993D01*
X104059901Y-114807007D01*
X104152993Y-114900099D01*
X104267007Y-114965925D01*
X104330590Y-114982962D01*
X103698282Y-115615269D01*
X103698282Y-115615270D01*
X103752449Y-115654624D01*
X103941782Y-115751095D01*
X104143870Y-115816757D01*
X104353754Y-115850000D01*
X104566246Y-115850000D01*
X104776127Y-115816757D01*
X104776130Y-115816757D01*
X104978217Y-115751095D01*
X105167554Y-115654622D01*
X105221716Y-115615270D01*
X105221717Y-115615270D01*
X104589408Y-114982962D01*
X104652993Y-114965925D01*
X104767007Y-114900099D01*
X104860099Y-114807007D01*
X104925925Y-114692993D01*
X104942962Y-114629408D01*
X105212180Y-114898626D01*
X105245665Y-114959949D01*
X105248499Y-114986307D01*
X105248499Y-115115054D01*
X105248498Y-115115054D01*
X105289423Y-115267784D01*
X105289424Y-115267787D01*
X105294825Y-115277141D01*
X105294826Y-115277143D01*
X105368477Y-115404712D01*
X105368481Y-115404717D01*
X105487349Y-115523585D01*
X105487355Y-115523590D01*
X110176181Y-120212416D01*
X110209666Y-120273739D01*
X110212500Y-120300097D01*
X110212500Y-124681330D01*
X110212499Y-124681348D01*
X110212499Y-124847054D01*
X110212498Y-124847054D01*
X110253072Y-124998477D01*
X110253423Y-124999785D01*
X110270855Y-125029978D01*
X110270856Y-125029980D01*
X110270857Y-125029980D01*
X110290948Y-125064780D01*
X110332479Y-125136714D01*
X110332481Y-125136717D01*
X110451349Y-125255585D01*
X110451355Y-125255590D01*
X111020921Y-125825157D01*
X111054406Y-125886480D01*
X111051173Y-125951149D01*
X111046523Y-125965460D01*
X111046523Y-125965462D01*
X111014500Y-126167648D01*
X111014500Y-126372351D01*
X111046522Y-126574534D01*
X111051173Y-126588848D01*
X111053165Y-126658690D01*
X111020921Y-126714842D01*
X110634772Y-127100991D01*
X110634766Y-127100997D01*
X110631286Y-127104478D01*
X110631284Y-127104480D01*
X110519480Y-127216284D01*
X110489498Y-127268215D01*
X110440423Y-127353215D01*
X110399499Y-127505943D01*
X110399499Y-127505945D01*
X110399499Y-127674046D01*
X110399500Y-127674059D01*
X110399500Y-132199903D01*
X110379815Y-132266942D01*
X110363181Y-132287584D01*
X108787584Y-133863181D01*
X108760656Y-133877884D01*
X108734838Y-133894477D01*
X108728637Y-133895368D01*
X108726261Y-133896666D01*
X108699903Y-133899500D01*
X108696728Y-133899500D01*
X108629689Y-133879815D01*
X108583934Y-133827011D01*
X108573990Y-133757853D01*
X108596410Y-133702615D01*
X108611857Y-133681352D01*
X108704755Y-133499031D01*
X108767990Y-133304417D01*
X108800000Y-133102317D01*
X108800000Y-132897682D01*
X108767990Y-132695582D01*
X108704755Y-132500968D01*
X108611859Y-132318650D01*
X108579474Y-132274077D01*
X108579474Y-132274076D01*
X107900000Y-132953553D01*
X107900000Y-132947339D01*
X107872741Y-132845606D01*
X107820080Y-132754394D01*
X107745606Y-132679920D01*
X107654394Y-132627259D01*
X107552661Y-132600000D01*
X107546446Y-132600000D01*
X108225922Y-131920524D01*
X108225921Y-131920523D01*
X108181359Y-131888147D01*
X108181350Y-131888141D01*
X107999031Y-131795244D01*
X107804417Y-131732009D01*
X107602317Y-131700000D01*
X107397683Y-131700000D01*
X107195582Y-131732009D01*
X107000968Y-131795244D01*
X106818644Y-131888143D01*
X106774077Y-131920523D01*
X106774077Y-131920524D01*
X107453554Y-132600000D01*
X107447339Y-132600000D01*
X107345606Y-132627259D01*
X107254394Y-132679920D01*
X107179920Y-132754394D01*
X107127259Y-132845606D01*
X107100000Y-132947339D01*
X107100000Y-132953553D01*
X106420524Y-132274077D01*
X106420523Y-132274077D01*
X106388143Y-132318644D01*
X106295244Y-132500968D01*
X106232009Y-132695582D01*
X106200000Y-132897682D01*
X106200000Y-133102317D01*
X106232009Y-133304417D01*
X106295244Y-133499031D01*
X106388141Y-133681350D01*
X106388147Y-133681359D01*
X106420523Y-133725921D01*
X106420524Y-133725922D01*
X107100000Y-133046446D01*
X107100000Y-133052661D01*
X107127259Y-133154394D01*
X107179920Y-133245606D01*
X107254394Y-133320080D01*
X107345606Y-133372741D01*
X107447339Y-133400000D01*
X107453553Y-133400000D01*
X106774076Y-134079474D01*
X106818650Y-134111859D01*
X106865485Y-134135722D01*
X106916282Y-134183696D01*
X106933078Y-134251517D01*
X106910542Y-134317652D01*
X106896873Y-134333889D01*
X105964522Y-135266241D01*
X105903199Y-135299726D01*
X105838523Y-135296491D01*
X105796245Y-135282754D01*
X105656272Y-135260584D01*
X105586287Y-135249500D01*
X105373713Y-135249500D01*
X105325042Y-135257208D01*
X105163760Y-135282753D01*
X104961585Y-135348444D01*
X104772179Y-135444951D01*
X104600213Y-135569890D01*
X104449890Y-135720213D01*
X104324949Y-135892182D01*
X104320484Y-135900946D01*
X104272509Y-135951742D01*
X104204688Y-135968536D01*
X104138553Y-135945998D01*
X104099516Y-135900946D01*
X104095050Y-135892182D01*
X103970109Y-135720213D01*
X103819786Y-135569890D01*
X103647820Y-135444951D01*
X103458414Y-135348444D01*
X103458413Y-135348443D01*
X103458412Y-135348443D01*
X103256243Y-135282754D01*
X103256241Y-135282753D01*
X103256240Y-135282753D01*
X103094957Y-135257208D01*
X103046287Y-135249500D01*
X102833713Y-135249500D01*
X102785042Y-135257208D01*
X102623760Y-135282753D01*
X102421585Y-135348444D01*
X102232179Y-135444951D01*
X102060215Y-135569889D01*
X101946673Y-135683431D01*
X101885350Y-135716915D01*
X101815658Y-135711931D01*
X101759725Y-135670059D01*
X101742810Y-135639082D01*
X101693797Y-135507671D01*
X101693793Y-135507664D01*
X101607547Y-135392455D01*
X101607544Y-135392452D01*
X101492335Y-135306206D01*
X101492328Y-135306202D01*
X101357482Y-135255908D01*
X101357483Y-135255908D01*
X101297883Y-135249501D01*
X101297881Y-135249500D01*
X101297873Y-135249500D01*
X101297864Y-135249500D01*
X99502129Y-135249500D01*
X99502123Y-135249501D01*
X99442516Y-135255908D01*
X99307671Y-135306202D01*
X99307664Y-135306206D01*
X99192455Y-135392452D01*
X99192452Y-135392455D01*
X99106206Y-135507664D01*
X99106202Y-135507671D01*
X99055908Y-135642517D01*
X99049501Y-135702116D01*
X99049500Y-135702135D01*
X99049500Y-137497870D01*
X99049501Y-137497876D01*
X99055908Y-137557483D01*
X99106202Y-137692328D01*
X99106206Y-137692335D01*
X99192452Y-137807544D01*
X99192455Y-137807547D01*
X99307664Y-137893793D01*
X99307671Y-137893797D01*
X99442517Y-137944091D01*
X99442516Y-137944091D01*
X99449444Y-137944835D01*
X99502127Y-137950500D01*
X101297872Y-137950499D01*
X101357483Y-137944091D01*
X101492331Y-137893796D01*
X101607546Y-137807546D01*
X101693796Y-137692331D01*
X101742810Y-137560916D01*
X101784681Y-137504984D01*
X101850145Y-137480566D01*
X101918418Y-137495417D01*
X101946673Y-137516569D01*
X102060213Y-137630109D01*
X102232179Y-137755048D01*
X102232181Y-137755049D01*
X102232184Y-137755051D01*
X102421588Y-137851557D01*
X102623757Y-137917246D01*
X102833713Y-137950500D01*
X102833714Y-137950500D01*
X103046286Y-137950500D01*
X103046287Y-137950500D01*
X103256243Y-137917246D01*
X103458412Y-137851557D01*
X103647816Y-137755051D01*
X103734138Y-137692335D01*
X103819786Y-137630109D01*
X103819788Y-137630106D01*
X103819792Y-137630104D01*
X103970104Y-137479792D01*
X103970106Y-137479788D01*
X103970109Y-137479786D01*
X104095048Y-137307820D01*
X104095047Y-137307820D01*
X104095051Y-137307816D01*
X104099514Y-137299054D01*
X104147488Y-137248259D01*
X104215308Y-137231463D01*
X104281444Y-137253999D01*
X104320486Y-137299056D01*
X104324951Y-137307820D01*
X104449890Y-137479786D01*
X104600213Y-137630109D01*
X104772179Y-137755048D01*
X104772181Y-137755049D01*
X104772184Y-137755051D01*
X104961588Y-137851557D01*
X105163757Y-137917246D01*
X105373713Y-137950500D01*
X105373714Y-137950500D01*
X105586286Y-137950500D01*
X105586287Y-137950500D01*
X105796243Y-137917246D01*
X105998412Y-137851557D01*
X106187816Y-137755051D01*
X106274138Y-137692335D01*
X106359786Y-137630109D01*
X106359788Y-137630106D01*
X106359792Y-137630104D01*
X106510104Y-137479792D01*
X106510106Y-137479788D01*
X106510109Y-137479786D01*
X106635048Y-137307820D01*
X106635047Y-137307820D01*
X106635051Y-137307816D01*
X106639514Y-137299054D01*
X106687488Y-137248259D01*
X106755308Y-137231463D01*
X106821444Y-137253999D01*
X106860486Y-137299056D01*
X106864951Y-137307820D01*
X106989890Y-137479786D01*
X107140213Y-137630109D01*
X107312179Y-137755048D01*
X107312181Y-137755049D01*
X107312184Y-137755051D01*
X107501588Y-137851557D01*
X107703757Y-137917246D01*
X107913713Y-137950500D01*
X107913714Y-137950500D01*
X108126286Y-137950500D01*
X108126287Y-137950500D01*
X108336243Y-137917246D01*
X108538412Y-137851557D01*
X108727816Y-137755051D01*
X108814138Y-137692335D01*
X108899786Y-137630109D01*
X108899788Y-137630106D01*
X108899792Y-137630104D01*
X109050104Y-137479792D01*
X109050106Y-137479788D01*
X109050109Y-137479786D01*
X109135890Y-137361717D01*
X109175051Y-137307816D01*
X109179793Y-137298508D01*
X109227763Y-137247711D01*
X109295583Y-137230911D01*
X109361719Y-137253445D01*
X109400763Y-137298500D01*
X109405373Y-137307547D01*
X109444728Y-137361716D01*
X110077037Y-136729408D01*
X110094075Y-136792993D01*
X110159901Y-136907007D01*
X110252993Y-137000099D01*
X110367007Y-137065925D01*
X110430590Y-137082962D01*
X109798282Y-137715269D01*
X109798282Y-137715270D01*
X109852449Y-137754624D01*
X110041782Y-137851095D01*
X110243870Y-137916757D01*
X110453754Y-137950000D01*
X110666246Y-137950000D01*
X110876127Y-137916757D01*
X110876130Y-137916757D01*
X111078217Y-137851095D01*
X111267554Y-137754622D01*
X111321716Y-137715270D01*
X111321717Y-137715270D01*
X110689408Y-137082962D01*
X110752993Y-137065925D01*
X110867007Y-137000099D01*
X110960099Y-136907007D01*
X111025925Y-136792993D01*
X111042962Y-136729409D01*
X111675270Y-137361717D01*
X111675270Y-137361716D01*
X111714622Y-137307554D01*
X111811095Y-137118217D01*
X111876757Y-136916130D01*
X111876757Y-136916127D01*
X111910000Y-136706246D01*
X111910000Y-136493753D01*
X111876757Y-136283872D01*
X111876757Y-136283869D01*
X111811095Y-136081782D01*
X111714624Y-135892449D01*
X111675270Y-135838282D01*
X111675269Y-135838282D01*
X111042962Y-136470590D01*
X111025925Y-136407007D01*
X110960099Y-136292993D01*
X110867007Y-136199901D01*
X110752993Y-136134075D01*
X110689408Y-136117037D01*
X111321716Y-135484728D01*
X111267550Y-135445375D01*
X111078217Y-135348904D01*
X110876129Y-135283242D01*
X110666246Y-135250000D01*
X110518595Y-135250000D01*
X110451556Y-135230315D01*
X110405801Y-135177511D01*
X110395857Y-135108353D01*
X110424882Y-135044797D01*
X110430900Y-135038333D01*
X112673506Y-132795728D01*
X112673511Y-132795724D01*
X112683714Y-132785520D01*
X112683716Y-132785520D01*
X112795520Y-132673716D01*
X112856415Y-132568242D01*
X112874577Y-132536785D01*
X112915500Y-132384058D01*
X112915500Y-132225943D01*
X112915500Y-130039601D01*
X112935185Y-129972562D01*
X112983206Y-129929116D01*
X112996610Y-129922287D01*
X113162219Y-129801966D01*
X113306966Y-129657219D01*
X113306968Y-129657215D01*
X113306971Y-129657213D01*
X113359732Y-129584590D01*
X113427287Y-129491610D01*
X113520220Y-129309219D01*
X113583477Y-129114534D01*
X113615500Y-128912352D01*
X113615500Y-128707648D01*
X113583477Y-128505466D01*
X113578825Y-128491151D01*
X113578391Y-128475940D01*
X113573074Y-128461683D01*
X113577414Y-128441728D01*
X113576832Y-128421312D01*
X113584920Y-128407225D01*
X113587926Y-128393410D01*
X113609074Y-128365159D01*
X113774506Y-128199728D01*
X113774511Y-128199724D01*
X113784714Y-128189520D01*
X113784716Y-128189520D01*
X113896520Y-128077716D01*
X113968110Y-127953718D01*
X113968111Y-127953717D01*
X113971140Y-127948469D01*
X113975577Y-127940785D01*
X114016500Y-127788057D01*
X114016500Y-127629943D01*
X114016500Y-126580097D01*
X114036185Y-126513058D01*
X114088989Y-126467303D01*
X114158147Y-126457359D01*
X114221703Y-126486384D01*
X114228181Y-126492416D01*
X115406998Y-127671233D01*
X115411502Y-127677948D01*
X115415593Y-127680767D01*
X115422589Y-127694477D01*
X115433710Y-127711057D01*
X115436933Y-127718761D01*
X115440423Y-127731785D01*
X115443579Y-127737251D01*
X115447533Y-127744100D01*
X115447535Y-127744104D01*
X115519477Y-127868712D01*
X115519481Y-127868717D01*
X115631284Y-127980520D01*
X115718095Y-128030639D01*
X115718097Y-128030641D01*
X115756151Y-128052611D01*
X115768215Y-128059577D01*
X115920943Y-128100501D01*
X115920946Y-128100501D01*
X116079056Y-128100501D01*
X116079057Y-128100501D01*
X116136462Y-128085119D01*
X116206309Y-128086780D01*
X116264172Y-128125942D01*
X116279039Y-128148597D01*
X116302185Y-128194023D01*
X116431752Y-128372358D01*
X116431756Y-128372363D01*
X116481928Y-128422535D01*
X116515413Y-128483858D01*
X116510429Y-128553550D01*
X116468557Y-128609483D01*
X116437581Y-128626398D01*
X116357669Y-128656203D01*
X116357664Y-128656206D01*
X116242455Y-128742452D01*
X116242452Y-128742455D01*
X116156206Y-128857664D01*
X116156202Y-128857671D01*
X116105908Y-128992517D01*
X116103035Y-129019244D01*
X116099501Y-129052123D01*
X116099500Y-129052135D01*
X116099500Y-130947870D01*
X116099501Y-130947876D01*
X116105908Y-131007483D01*
X116156202Y-131142328D01*
X116156206Y-131142335D01*
X116242452Y-131257544D01*
X116242455Y-131257547D01*
X116357664Y-131343793D01*
X116357671Y-131343797D01*
X116402618Y-131360561D01*
X116492517Y-131394091D01*
X116552127Y-131400500D01*
X116935500Y-131400499D01*
X116944186Y-131403049D01*
X116953147Y-131401761D01*
X116977183Y-131412738D01*
X117002539Y-131420183D01*
X117008467Y-131427025D01*
X117016703Y-131430786D01*
X117030989Y-131453017D01*
X117048294Y-131472987D01*
X117050581Y-131483502D01*
X117054477Y-131489564D01*
X117059500Y-131524499D01*
X117059500Y-131770397D01*
X117039815Y-131837436D01*
X116991800Y-131880879D01*
X116978389Y-131887712D01*
X116812786Y-132008028D01*
X116668028Y-132152786D01*
X116547715Y-132318386D01*
X116454781Y-132500776D01*
X116391522Y-132695465D01*
X116359500Y-132897648D01*
X116359500Y-133102351D01*
X116391522Y-133304534D01*
X116454781Y-133499223D01*
X116518691Y-133624653D01*
X116547585Y-133681359D01*
X116547715Y-133681613D01*
X116668028Y-133847213D01*
X116812786Y-133991971D01*
X116933226Y-134079474D01*
X116978390Y-134112287D01*
X117094607Y-134171503D01*
X117160776Y-134205218D01*
X117160778Y-134205218D01*
X117160781Y-134205220D01*
X117265137Y-134239127D01*
X117355465Y-134268477D01*
X117456557Y-134284488D01*
X117557648Y-134300500D01*
X117557649Y-134300500D01*
X117762351Y-134300500D01*
X117762352Y-134300500D01*
X117964534Y-134268477D01*
X118159219Y-134205220D01*
X118341610Y-134112287D01*
X118469349Y-134019480D01*
X118507213Y-133991971D01*
X118507215Y-133991968D01*
X118507219Y-133991966D01*
X118651966Y-133847219D01*
X118651968Y-133847215D01*
X118651971Y-133847213D01*
X118716894Y-133757853D01*
X118772287Y-133681610D01*
X118865220Y-133499219D01*
X118928477Y-133304534D01*
X118960500Y-133102352D01*
X118960500Y-132897648D01*
X118942235Y-132782331D01*
X118928477Y-132695465D01*
X118887138Y-132568239D01*
X118865220Y-132500781D01*
X118865218Y-132500778D01*
X118865218Y-132500776D01*
X118820166Y-132412358D01*
X118772287Y-132318390D01*
X118740092Y-132274077D01*
X118651971Y-132152786D01*
X118507213Y-132008028D01*
X118341610Y-131887712D01*
X118328200Y-131880879D01*
X118317138Y-131870431D01*
X118303297Y-131864110D01*
X118292255Y-131846928D01*
X118277406Y-131832903D01*
X118273165Y-131817223D01*
X118265523Y-131805332D01*
X118260500Y-131770397D01*
X118260500Y-131524499D01*
X118280185Y-131457460D01*
X118332989Y-131411705D01*
X118384500Y-131400499D01*
X118447871Y-131400499D01*
X118447872Y-131400499D01*
X118507483Y-131394091D01*
X118642331Y-131343796D01*
X118757546Y-131257546D01*
X118843796Y-131142331D01*
X118894091Y-131007483D01*
X118900500Y-130947873D01*
X118900499Y-129052128D01*
X118894091Y-128992517D01*
X118864191Y-128912352D01*
X118843797Y-128857671D01*
X118843793Y-128857664D01*
X118757547Y-128742455D01*
X118757544Y-128742452D01*
X118642335Y-128656206D01*
X118642328Y-128656202D01*
X118562419Y-128626398D01*
X118506485Y-128584527D01*
X118482068Y-128519062D01*
X118496920Y-128450789D01*
X118518069Y-128422537D01*
X118568242Y-128372365D01*
X118697815Y-128194022D01*
X118797895Y-127997606D01*
X118866015Y-127787951D01*
X118900500Y-127570222D01*
X118900500Y-127349778D01*
X118866015Y-127132049D01*
X118807388Y-126951610D01*
X118797896Y-126922396D01*
X118797895Y-126922393D01*
X118745736Y-126820028D01*
X118697815Y-126725978D01*
X118591827Y-126580097D01*
X118568247Y-126547641D01*
X118568243Y-126547636D01*
X118412363Y-126391756D01*
X118412358Y-126391752D01*
X118234025Y-126262187D01*
X118234024Y-126262186D01*
X118234022Y-126262185D01*
X118161992Y-126225483D01*
X118111198Y-126177510D01*
X118094403Y-126109689D01*
X118116940Y-126043554D01*
X118161992Y-126004516D01*
X118234022Y-125967815D01*
X118412365Y-125838242D01*
X118568242Y-125682365D01*
X118697815Y-125504022D01*
X118797895Y-125307606D01*
X118866015Y-125097951D01*
X118900500Y-124880222D01*
X118900500Y-124659778D01*
X118866015Y-124442049D01*
X118797895Y-124232394D01*
X118797895Y-124232393D01*
X118741193Y-124121111D01*
X118697815Y-124035978D01*
X118578944Y-123872365D01*
X118568247Y-123857641D01*
X118568243Y-123857636D01*
X118518071Y-123807464D01*
X118484586Y-123746141D01*
X118489570Y-123676449D01*
X118531442Y-123620516D01*
X118562420Y-123603601D01*
X118642326Y-123573798D01*
X118642326Y-123573797D01*
X118642331Y-123573796D01*
X118757546Y-123487546D01*
X118843796Y-123372331D01*
X118894091Y-123237483D01*
X118900500Y-123177873D01*
X118900499Y-121282128D01*
X118894091Y-121222517D01*
X118843796Y-121087669D01*
X118843795Y-121087668D01*
X118843793Y-121087664D01*
X118757547Y-120972455D01*
X118757544Y-120972452D01*
X118642335Y-120886206D01*
X118642328Y-120886202D01*
X118507482Y-120835908D01*
X118507483Y-120835908D01*
X118454380Y-120830199D01*
X118389829Y-120803461D01*
X118349981Y-120746068D01*
X118347488Y-120676243D01*
X118379952Y-120619232D01*
X118491966Y-120507219D01*
X118612287Y-120341610D01*
X118705220Y-120159219D01*
X118768477Y-119964534D01*
X118800500Y-119762352D01*
X118800500Y-119557648D01*
X118768477Y-119355466D01*
X118705220Y-119160781D01*
X118705218Y-119160778D01*
X118705218Y-119160776D01*
X118636499Y-119025909D01*
X118612287Y-118978390D01*
X118570547Y-118920939D01*
X118491971Y-118812786D01*
X118347213Y-118668028D01*
X118181613Y-118547715D01*
X118181612Y-118547714D01*
X118181610Y-118547713D01*
X118124653Y-118518691D01*
X117999223Y-118454781D01*
X117804534Y-118391522D01*
X117629995Y-118363878D01*
X117602352Y-118359500D01*
X117397648Y-118359500D01*
X117373329Y-118363351D01*
X117195465Y-118391522D01*
X117000776Y-118454781D01*
X116818386Y-118547715D01*
X116652786Y-118668028D01*
X116508028Y-118812786D01*
X116387715Y-118978386D01*
X116294781Y-119160776D01*
X116231522Y-119355465D01*
X116199500Y-119557648D01*
X116199500Y-119762351D01*
X116231522Y-119964534D01*
X116294781Y-120159223D01*
X116353131Y-120273739D01*
X116377041Y-120320666D01*
X116387715Y-120341613D01*
X116508028Y-120507213D01*
X116620044Y-120619229D01*
X116653529Y-120680552D01*
X116648545Y-120750244D01*
X116606673Y-120806177D01*
X116545618Y-120830200D01*
X116492516Y-120835909D01*
X116357671Y-120886202D01*
X116357664Y-120886206D01*
X116242455Y-120972452D01*
X116242452Y-120972455D01*
X116156206Y-121087664D01*
X116156202Y-121087671D01*
X116105908Y-121222517D01*
X116099501Y-121282116D01*
X116099501Y-121282123D01*
X116099500Y-121282135D01*
X116099500Y-123177870D01*
X116099501Y-123177876D01*
X116105908Y-123237483D01*
X116156202Y-123372328D01*
X116156206Y-123372335D01*
X116242452Y-123487544D01*
X116242455Y-123487547D01*
X116357664Y-123573793D01*
X116357671Y-123573797D01*
X116437580Y-123603601D01*
X116493514Y-123645472D01*
X116517931Y-123710936D01*
X116503080Y-123779209D01*
X116481929Y-123807463D01*
X116431756Y-123857636D01*
X116431752Y-123857641D01*
X116302187Y-124035974D01*
X116202104Y-124232393D01*
X116202103Y-124232396D01*
X116133985Y-124442047D01*
X116099500Y-124659778D01*
X116099500Y-124880221D01*
X116133985Y-125097952D01*
X116202103Y-125307603D01*
X116202104Y-125307606D01*
X116302187Y-125504025D01*
X116431752Y-125682358D01*
X116431756Y-125682363D01*
X116587636Y-125838243D01*
X116587641Y-125838247D01*
X116765978Y-125967815D01*
X116765979Y-125967816D01*
X116838005Y-126004516D01*
X116888801Y-126052490D01*
X116905596Y-126120311D01*
X116883058Y-126186446D01*
X116838005Y-126225484D01*
X116765979Y-126262183D01*
X116765978Y-126262184D01*
X116587641Y-126391752D01*
X116587636Y-126391756D01*
X116431756Y-126547636D01*
X116431752Y-126547641D01*
X116327779Y-126690749D01*
X116272449Y-126733415D01*
X116202836Y-126739394D01*
X116141041Y-126706789D01*
X116139780Y-126705545D01*
X113609077Y-124174842D01*
X113575592Y-124113519D01*
X113578828Y-124048841D01*
X113583477Y-124034534D01*
X113615500Y-123832352D01*
X113615500Y-123627648D01*
X113611691Y-123603601D01*
X113583477Y-123425465D01*
X113538796Y-123287952D01*
X113520220Y-123230781D01*
X113520218Y-123230778D01*
X113520218Y-123230776D01*
X113486503Y-123164607D01*
X113427287Y-123048390D01*
X113419556Y-123037749D01*
X113306971Y-122882786D01*
X113162213Y-122738028D01*
X112996614Y-122617715D01*
X112990006Y-122614348D01*
X112903917Y-122570483D01*
X112853123Y-122522511D01*
X112836328Y-122454690D01*
X112858865Y-122388555D01*
X112903917Y-122349516D01*
X112996610Y-122302287D01*
X113017770Y-122286913D01*
X113162213Y-122181971D01*
X113162215Y-122181968D01*
X113162219Y-122181966D01*
X113306966Y-122037219D01*
X113306968Y-122037215D01*
X113306971Y-122037213D01*
X113359732Y-121964590D01*
X113427287Y-121871610D01*
X113520220Y-121689219D01*
X113583477Y-121494534D01*
X113615500Y-121292352D01*
X113615500Y-121087648D01*
X113597255Y-120972454D01*
X113583477Y-120885465D01*
X113520218Y-120690776D01*
X113468865Y-120589992D01*
X113427287Y-120508390D01*
X113411892Y-120487200D01*
X113306971Y-120342786D01*
X113162213Y-120198028D01*
X112996613Y-120077715D01*
X112996612Y-120077714D01*
X112996610Y-120077713D01*
X112936898Y-120047288D01*
X112814223Y-119984781D01*
X112619534Y-119921522D01*
X112444995Y-119893878D01*
X112417352Y-119889500D01*
X112212648Y-119889500D01*
X112156652Y-119898369D01*
X112010464Y-119921523D01*
X112010457Y-119921524D01*
X111976817Y-119932455D01*
X111906976Y-119934450D01*
X111847144Y-119898369D01*
X111816316Y-119835668D01*
X111814500Y-119814524D01*
X111814500Y-118803059D01*
X111814501Y-118803046D01*
X111814501Y-118634945D01*
X111814501Y-118634943D01*
X111773577Y-118482215D01*
X111757737Y-118454780D01*
X111738201Y-118420942D01*
X111738201Y-118420941D01*
X111694524Y-118345290D01*
X111694521Y-118345286D01*
X111694520Y-118345284D01*
X111582716Y-118233480D01*
X111582715Y-118233479D01*
X111578385Y-118229149D01*
X111578374Y-118229139D01*
X109411416Y-116062181D01*
X109377931Y-116000858D01*
X109382915Y-115931166D01*
X109424787Y-115875233D01*
X109490251Y-115850816D01*
X109499097Y-115850500D01*
X109646286Y-115850500D01*
X109646287Y-115850500D01*
X109856243Y-115817246D01*
X110058412Y-115751557D01*
X110247816Y-115655051D01*
X110302572Y-115615269D01*
X110419786Y-115530109D01*
X110419788Y-115530106D01*
X110419792Y-115530104D01*
X110570104Y-115379792D01*
X110570106Y-115379788D01*
X110570109Y-115379786D01*
X110695048Y-115207820D01*
X110695047Y-115207820D01*
X110695051Y-115207816D01*
X110791557Y-115018412D01*
X110857246Y-114816243D01*
X110890500Y-114606287D01*
X110890500Y-114393713D01*
X110857246Y-114183757D01*
X110791557Y-113981588D01*
X110695051Y-113792184D01*
X110695049Y-113792181D01*
X110695048Y-113792179D01*
X110570109Y-113620213D01*
X110419790Y-113469894D01*
X110419785Y-113469890D01*
X110414891Y-113466334D01*
X110372227Y-113411003D01*
X110366249Y-113341390D01*
X110398857Y-113279595D01*
X110448774Y-113248312D01*
X110459334Y-113244814D01*
X110608656Y-113152712D01*
X110732712Y-113028656D01*
X110824814Y-112879334D01*
X110879999Y-112712797D01*
X110890500Y-112610009D01*
X110890499Y-111309992D01*
X110879999Y-111207203D01*
X110824814Y-111040666D01*
X110732712Y-110891344D01*
X110608656Y-110767288D01*
X110459334Y-110675186D01*
X110292797Y-110620001D01*
X110292795Y-110620000D01*
X110190010Y-110609500D01*
X108889998Y-110609500D01*
X108889981Y-110609501D01*
X108787203Y-110620000D01*
X108787200Y-110620001D01*
X108620668Y-110675185D01*
X108620663Y-110675187D01*
X108471342Y-110767289D01*
X108347289Y-110891342D01*
X108255187Y-111040663D01*
X108255183Y-111040673D01*
X108251685Y-111051229D01*
X108211910Y-111108672D01*
X108147393Y-111135493D01*
X108078618Y-111123174D01*
X108033663Y-111085106D01*
X108030105Y-111080209D01*
X107879786Y-110929890D01*
X107707820Y-110804951D01*
X107518414Y-110708444D01*
X107518413Y-110708443D01*
X107518412Y-110708443D01*
X107316243Y-110642754D01*
X107316241Y-110642753D01*
X107316240Y-110642753D01*
X107154957Y-110617208D01*
X107106287Y-110609500D01*
X106893713Y-110609500D01*
X106878819Y-110611859D01*
X106683757Y-110642753D01*
X106641473Y-110656492D01*
X106571632Y-110658486D01*
X106515476Y-110626241D01*
X106336590Y-110447355D01*
X106336588Y-110447352D01*
X106217717Y-110328481D01*
X106217716Y-110328480D01*
X106130904Y-110278360D01*
X106130904Y-110278359D01*
X106130900Y-110278358D01*
X106080785Y-110249423D01*
X105928057Y-110208499D01*
X105769943Y-110208499D01*
X105762347Y-110208499D01*
X105762331Y-110208500D01*
X103777669Y-110208500D01*
X103777653Y-110208499D01*
X103770057Y-110208499D01*
X103611943Y-110208499D01*
X103504587Y-110237265D01*
X103459210Y-110249424D01*
X103459209Y-110249425D01*
X103409096Y-110278359D01*
X103409095Y-110278360D01*
X103365689Y-110303420D01*
X103322285Y-110328479D01*
X103322282Y-110328481D01*
X101019481Y-112631282D01*
X101019477Y-112631287D01*
X100972419Y-112712796D01*
X100972419Y-112712797D01*
X100940423Y-112768214D01*
X100940423Y-112768215D01*
X100899499Y-112920943D01*
X100899499Y-112920945D01*
X100899499Y-113089046D01*
X100899500Y-113089059D01*
X100899500Y-118920939D01*
X100899499Y-118920943D01*
X100899499Y-118978386D01*
X100899499Y-119013302D01*
X100879814Y-119080342D01*
X100827009Y-119126096D01*
X100827004Y-119126096D01*
X100794897Y-119135774D01*
X100695465Y-119151522D01*
X100500776Y-119214781D01*
X100318386Y-119307715D01*
X100152786Y-119428028D01*
X100008028Y-119572786D01*
X99887715Y-119738386D01*
X99794781Y-119920776D01*
X99731522Y-120115465D01*
X99699500Y-120317648D01*
X99699500Y-120522351D01*
X99731523Y-120724537D01*
X99755790Y-120799225D01*
X99757785Y-120869066D01*
X99725540Y-120925223D01*
X99287584Y-121363181D01*
X99226261Y-121396666D01*
X99199903Y-121399500D01*
X97300097Y-121399500D01*
X97233058Y-121379815D01*
X97212416Y-121363181D01*
X96436818Y-120587583D01*
X96403333Y-120526260D01*
X96400499Y-120499902D01*
X96400499Y-119472129D01*
X96400498Y-119472123D01*
X96400497Y-119472116D01*
X96394091Y-119412517D01*
X96372812Y-119355466D01*
X96343797Y-119277671D01*
X96343793Y-119277664D01*
X96257547Y-119162455D01*
X96257544Y-119162452D01*
X96142335Y-119076206D01*
X96142328Y-119076202D01*
X96007482Y-119025908D01*
X96007483Y-119025908D01*
X95947883Y-119019501D01*
X95947881Y-119019500D01*
X95947873Y-119019500D01*
X95947864Y-119019500D01*
X94052129Y-119019500D01*
X94052123Y-119019501D01*
X93992516Y-119025908D01*
X93857671Y-119076202D01*
X93857664Y-119076206D01*
X93742455Y-119162452D01*
X93742452Y-119162455D01*
X93656206Y-119277664D01*
X93656202Y-119277671D01*
X93605908Y-119412517D01*
X93599501Y-119472116D01*
X93599501Y-119472123D01*
X93599500Y-119472135D01*
X90000500Y-119472135D01*
X90000500Y-109397682D01*
X116200000Y-109397682D01*
X116200000Y-109602317D01*
X116232009Y-109804417D01*
X116295244Y-109999031D01*
X116388141Y-110181350D01*
X116388147Y-110181359D01*
X116420523Y-110225921D01*
X116420524Y-110225922D01*
X117100000Y-109546446D01*
X117100000Y-109552661D01*
X117127259Y-109654394D01*
X117179920Y-109745606D01*
X117254394Y-109820080D01*
X117345606Y-109872741D01*
X117447339Y-109900000D01*
X117453553Y-109900000D01*
X116774076Y-110579474D01*
X116818650Y-110611859D01*
X117000968Y-110704755D01*
X117195582Y-110767990D01*
X117397683Y-110800000D01*
X117602317Y-110800000D01*
X117804417Y-110767990D01*
X117999031Y-110704755D01*
X118181349Y-110611859D01*
X118225921Y-110579474D01*
X117546447Y-109900000D01*
X117552661Y-109900000D01*
X117654394Y-109872741D01*
X117745606Y-109820080D01*
X117820080Y-109745606D01*
X117872741Y-109654394D01*
X117900000Y-109552661D01*
X117900000Y-109546447D01*
X118579474Y-110225921D01*
X118611859Y-110181349D01*
X118704755Y-109999031D01*
X118767990Y-109804417D01*
X118800000Y-109602317D01*
X118800000Y-109397682D01*
X118767990Y-109195582D01*
X118704755Y-109000968D01*
X118611859Y-108818650D01*
X118579474Y-108774077D01*
X118579474Y-108774076D01*
X117900000Y-109453551D01*
X117900000Y-109447339D01*
X117872741Y-109345606D01*
X117820080Y-109254394D01*
X117745606Y-109179920D01*
X117654394Y-109127259D01*
X117552661Y-109100000D01*
X117546446Y-109100000D01*
X118225922Y-108420524D01*
X118225921Y-108420523D01*
X118181359Y-108388147D01*
X118181350Y-108388141D01*
X117999031Y-108295244D01*
X117804417Y-108232009D01*
X117602317Y-108200000D01*
X117397683Y-108200000D01*
X117195582Y-108232009D01*
X117000968Y-108295244D01*
X116818644Y-108388143D01*
X116774077Y-108420523D01*
X116774077Y-108420524D01*
X117453554Y-109100000D01*
X117447339Y-109100000D01*
X117345606Y-109127259D01*
X117254394Y-109179920D01*
X117179920Y-109254394D01*
X117127259Y-109345606D01*
X117100000Y-109447339D01*
X117100000Y-109453553D01*
X116420524Y-108774077D01*
X116420523Y-108774077D01*
X116388143Y-108818644D01*
X116295244Y-109000968D01*
X116232009Y-109195582D01*
X116200000Y-109397682D01*
X90000500Y-109397682D01*
X90000500Y-104822097D01*
X90020185Y-104755058D01*
X90072989Y-104709303D01*
X90142147Y-104699359D01*
X90205703Y-104728384D01*
X90239060Y-104774643D01*
X90331769Y-104998462D01*
X90331770Y-104998464D01*
X90331772Y-104998469D01*
X90493893Y-105301775D01*
X90493904Y-105301793D01*
X90684975Y-105587751D01*
X90684985Y-105587765D01*
X90903176Y-105853632D01*
X91146367Y-106096823D01*
X91146372Y-106096827D01*
X91146373Y-106096828D01*
X91412240Y-106315019D01*
X91698213Y-106506100D01*
X91698222Y-106506105D01*
X91698224Y-106506106D01*
X92001530Y-106668227D01*
X92001532Y-106668227D01*
X92001538Y-106668231D01*
X92319295Y-106799850D01*
X92648422Y-106899690D01*
X92985750Y-106966789D01*
X93328031Y-107000500D01*
X93328034Y-107000500D01*
X93671966Y-107000500D01*
X93671969Y-107000500D01*
X94014250Y-106966789D01*
X94351578Y-106899690D01*
X94680705Y-106799850D01*
X94998462Y-106668231D01*
X95301787Y-106506100D01*
X95587760Y-106315019D01*
X95853627Y-106096828D01*
X96096828Y-105853627D01*
X96315019Y-105587760D01*
X96506100Y-105301787D01*
X96668231Y-104998462D01*
X96799850Y-104680705D01*
X96899690Y-104351578D01*
X96966789Y-104014250D01*
X97000500Y-103671969D01*
X97000500Y-103328031D01*
X96966789Y-102985750D01*
X96899690Y-102648422D01*
X96799850Y-102319295D01*
X96668231Y-102001538D01*
X96506100Y-101698213D01*
X96315019Y-101412240D01*
X96096828Y-101146373D01*
X96096827Y-101146372D01*
X96096823Y-101146367D01*
X95853632Y-100903176D01*
X95587765Y-100684985D01*
X95587764Y-100684984D01*
X95587760Y-100684981D01*
X95301787Y-100493900D01*
X95301782Y-100493897D01*
X95301775Y-100493893D01*
X94998469Y-100331772D01*
X94998464Y-100331770D01*
X94998462Y-100331769D01*
X94774643Y-100239060D01*
X94720241Y-100195220D01*
X94698176Y-100128926D01*
X94715455Y-100061227D01*
X94766592Y-100013616D01*
X94822097Y-100000500D01*
X100177903Y-100000500D01*
X100244942Y-100020185D01*
G37*
%TD.AperFunction*%
%TD*%
M02*
