%TF.GenerationSoftware,KiCad,Pcbnew,9.0.7*%
%TF.CreationDate,2026-01-25T12:57:44+01:00*%
%TF.ProjectId,DiyIrTower,44697949-7254-46f7-9765-722e6b696361,1.0*%
%TF.SameCoordinates,Original*%
%TF.FileFunction,Legend,Top*%
%TF.FilePolarity,Positive*%
%FSLAX46Y46*%
G04 Gerber Fmt 4.6, Leading zero omitted, Abs format (unit mm)*
G04 Created by KiCad (PCBNEW 9.0.7) date 2026-01-25 12:57:44*
%MOMM*%
%LPD*%
G01*
G04 APERTURE LIST*
%ADD10C,0.100000*%
%ADD11C,0.150000*%
%ADD12C,0.000000*%
%ADD13C,0.120000*%
G04 APERTURE END LIST*
D10*
X90680074Y-133596895D02*
X90870550Y-134396895D01*
X90870550Y-134396895D02*
X91022931Y-133825466D01*
X91022931Y-133825466D02*
X91175312Y-134396895D01*
X91175312Y-134396895D02*
X91365789Y-133596895D01*
X91975313Y-134358800D02*
X91899122Y-134396895D01*
X91899122Y-134396895D02*
X91746741Y-134396895D01*
X91746741Y-134396895D02*
X91670551Y-134358800D01*
X91670551Y-134358800D02*
X91632455Y-134282609D01*
X91632455Y-134282609D02*
X91632455Y-133977847D01*
X91632455Y-133977847D02*
X91670551Y-133901657D01*
X91670551Y-133901657D02*
X91746741Y-133863561D01*
X91746741Y-133863561D02*
X91899122Y-133863561D01*
X91899122Y-133863561D02*
X91975313Y-133901657D01*
X91975313Y-133901657D02*
X92013408Y-133977847D01*
X92013408Y-133977847D02*
X92013408Y-134054038D01*
X92013408Y-134054038D02*
X91632455Y-134130228D01*
X92356265Y-134396895D02*
X92356265Y-133596895D01*
X92356265Y-133901657D02*
X92432455Y-133863561D01*
X92432455Y-133863561D02*
X92584836Y-133863561D01*
X92584836Y-133863561D02*
X92661027Y-133901657D01*
X92661027Y-133901657D02*
X92699122Y-133939752D01*
X92699122Y-133939752D02*
X92737217Y-134015942D01*
X92737217Y-134015942D02*
X92737217Y-134244514D01*
X92737217Y-134244514D02*
X92699122Y-134320704D01*
X92699122Y-134320704D02*
X92661027Y-134358800D01*
X92661027Y-134358800D02*
X92584836Y-134396895D01*
X92584836Y-134396895D02*
X92432455Y-134396895D01*
X92432455Y-134396895D02*
X92356265Y-134358800D01*
X93080075Y-134396895D02*
X93080075Y-133596895D01*
X93080075Y-133596895D02*
X93384837Y-133596895D01*
X93384837Y-133596895D02*
X93461027Y-133634990D01*
X93461027Y-133634990D02*
X93499122Y-133673085D01*
X93499122Y-133673085D02*
X93537218Y-133749276D01*
X93537218Y-133749276D02*
X93537218Y-133863561D01*
X93537218Y-133863561D02*
X93499122Y-133939752D01*
X93499122Y-133939752D02*
X93461027Y-133977847D01*
X93461027Y-133977847D02*
X93384837Y-134015942D01*
X93384837Y-134015942D02*
X93080075Y-134015942D01*
X94146741Y-133977847D02*
X94261027Y-134015942D01*
X94261027Y-134015942D02*
X94299122Y-134054038D01*
X94299122Y-134054038D02*
X94337218Y-134130228D01*
X94337218Y-134130228D02*
X94337218Y-134244514D01*
X94337218Y-134244514D02*
X94299122Y-134320704D01*
X94299122Y-134320704D02*
X94261027Y-134358800D01*
X94261027Y-134358800D02*
X94184837Y-134396895D01*
X94184837Y-134396895D02*
X93880075Y-134396895D01*
X93880075Y-134396895D02*
X93880075Y-133596895D01*
X93880075Y-133596895D02*
X94146741Y-133596895D01*
X94146741Y-133596895D02*
X94222932Y-133634990D01*
X94222932Y-133634990D02*
X94261027Y-133673085D01*
X94261027Y-133673085D02*
X94299122Y-133749276D01*
X94299122Y-133749276D02*
X94299122Y-133825466D01*
X94299122Y-133825466D02*
X94261027Y-133901657D01*
X94261027Y-133901657D02*
X94222932Y-133939752D01*
X94222932Y-133939752D02*
X94146741Y-133977847D01*
X94146741Y-133977847D02*
X93880075Y-133977847D01*
X94680075Y-134396895D02*
X94680075Y-133863561D01*
X94680075Y-134015942D02*
X94718170Y-133939752D01*
X94718170Y-133939752D02*
X94756265Y-133901657D01*
X94756265Y-133901657D02*
X94832456Y-133863561D01*
X94832456Y-133863561D02*
X94908646Y-133863561D01*
X95175313Y-134396895D02*
X95175313Y-133863561D01*
X95175313Y-133596895D02*
X95137217Y-133634990D01*
X95137217Y-133634990D02*
X95175313Y-133673085D01*
X95175313Y-133673085D02*
X95213408Y-133634990D01*
X95213408Y-133634990D02*
X95175313Y-133596895D01*
X95175313Y-133596895D02*
X95175313Y-133673085D01*
X95899122Y-134358800D02*
X95822931Y-134396895D01*
X95822931Y-134396895D02*
X95670550Y-134396895D01*
X95670550Y-134396895D02*
X95594360Y-134358800D01*
X95594360Y-134358800D02*
X95556265Y-134320704D01*
X95556265Y-134320704D02*
X95518169Y-134244514D01*
X95518169Y-134244514D02*
X95518169Y-134015942D01*
X95518169Y-134015942D02*
X95556265Y-133939752D01*
X95556265Y-133939752D02*
X95594360Y-133901657D01*
X95594360Y-133901657D02*
X95670550Y-133863561D01*
X95670550Y-133863561D02*
X95822931Y-133863561D01*
X95822931Y-133863561D02*
X95899122Y-133901657D01*
X96241979Y-134396895D02*
X96241979Y-133596895D01*
X96318169Y-134092133D02*
X96546741Y-134396895D01*
X96546741Y-133863561D02*
X96241979Y-134168323D01*
X96889598Y-134320704D02*
X96927693Y-134358800D01*
X96927693Y-134358800D02*
X96889598Y-134396895D01*
X96889598Y-134396895D02*
X96851502Y-134358800D01*
X96851502Y-134358800D02*
X96889598Y-134320704D01*
X96889598Y-134320704D02*
X96889598Y-134396895D01*
X97613407Y-134358800D02*
X97537216Y-134396895D01*
X97537216Y-134396895D02*
X97384835Y-134396895D01*
X97384835Y-134396895D02*
X97308645Y-134358800D01*
X97308645Y-134358800D02*
X97270550Y-134320704D01*
X97270550Y-134320704D02*
X97232454Y-134244514D01*
X97232454Y-134244514D02*
X97232454Y-134015942D01*
X97232454Y-134015942D02*
X97270550Y-133939752D01*
X97270550Y-133939752D02*
X97308645Y-133901657D01*
X97308645Y-133901657D02*
X97384835Y-133863561D01*
X97384835Y-133863561D02*
X97537216Y-133863561D01*
X97537216Y-133863561D02*
X97613407Y-133901657D01*
X98070549Y-134396895D02*
X97994359Y-134358800D01*
X97994359Y-134358800D02*
X97956264Y-134320704D01*
X97956264Y-134320704D02*
X97918168Y-134244514D01*
X97918168Y-134244514D02*
X97918168Y-134015942D01*
X97918168Y-134015942D02*
X97956264Y-133939752D01*
X97956264Y-133939752D02*
X97994359Y-133901657D01*
X97994359Y-133901657D02*
X98070549Y-133863561D01*
X98070549Y-133863561D02*
X98184835Y-133863561D01*
X98184835Y-133863561D02*
X98261026Y-133901657D01*
X98261026Y-133901657D02*
X98299121Y-133939752D01*
X98299121Y-133939752D02*
X98337216Y-134015942D01*
X98337216Y-134015942D02*
X98337216Y-134244514D01*
X98337216Y-134244514D02*
X98299121Y-134320704D01*
X98299121Y-134320704D02*
X98261026Y-134358800D01*
X98261026Y-134358800D02*
X98184835Y-134396895D01*
X98184835Y-134396895D02*
X98070549Y-134396895D01*
X98680074Y-134396895D02*
X98680074Y-133863561D01*
X98680074Y-133939752D02*
X98718169Y-133901657D01*
X98718169Y-133901657D02*
X98794359Y-133863561D01*
X98794359Y-133863561D02*
X98908645Y-133863561D01*
X98908645Y-133863561D02*
X98984836Y-133901657D01*
X98984836Y-133901657D02*
X99022931Y-133977847D01*
X99022931Y-133977847D02*
X99022931Y-134396895D01*
X99022931Y-133977847D02*
X99061026Y-133901657D01*
X99061026Y-133901657D02*
X99137217Y-133863561D01*
X99137217Y-133863561D02*
X99251502Y-133863561D01*
X99251502Y-133863561D02*
X99327693Y-133901657D01*
X99327693Y-133901657D02*
X99365788Y-133977847D01*
X99365788Y-133977847D02*
X99365788Y-134396895D01*
X90803884Y-135872419D02*
X90803884Y-134872419D01*
X90803884Y-134872419D02*
X91041979Y-134872419D01*
X91041979Y-134872419D02*
X91184836Y-134920038D01*
X91184836Y-134920038D02*
X91280074Y-135015276D01*
X91280074Y-135015276D02*
X91327693Y-135110514D01*
X91327693Y-135110514D02*
X91375312Y-135300990D01*
X91375312Y-135300990D02*
X91375312Y-135443847D01*
X91375312Y-135443847D02*
X91327693Y-135634323D01*
X91327693Y-135634323D02*
X91280074Y-135729561D01*
X91280074Y-135729561D02*
X91184836Y-135824800D01*
X91184836Y-135824800D02*
X91041979Y-135872419D01*
X91041979Y-135872419D02*
X90803884Y-135872419D01*
X91803884Y-135872419D02*
X91803884Y-135205752D01*
X91803884Y-134872419D02*
X91756265Y-134920038D01*
X91756265Y-134920038D02*
X91803884Y-134967657D01*
X91803884Y-134967657D02*
X91851503Y-134920038D01*
X91851503Y-134920038D02*
X91803884Y-134872419D01*
X91803884Y-134872419D02*
X91803884Y-134967657D01*
X92184836Y-135205752D02*
X92422931Y-135872419D01*
X92661026Y-135205752D02*
X92422931Y-135872419D01*
X92422931Y-135872419D02*
X92327693Y-136110514D01*
X92327693Y-136110514D02*
X92280074Y-136158133D01*
X92280074Y-136158133D02*
X92184836Y-136205752D01*
X93041979Y-135872419D02*
X93041979Y-134872419D01*
X93518169Y-135872419D02*
X93518169Y-135205752D01*
X93518169Y-135396228D02*
X93565788Y-135300990D01*
X93565788Y-135300990D02*
X93613407Y-135253371D01*
X93613407Y-135253371D02*
X93708645Y-135205752D01*
X93708645Y-135205752D02*
X93803883Y-135205752D01*
X93994360Y-134872419D02*
X94565788Y-134872419D01*
X94280074Y-135872419D02*
X94280074Y-134872419D01*
X95041979Y-135872419D02*
X94946741Y-135824800D01*
X94946741Y-135824800D02*
X94899122Y-135777180D01*
X94899122Y-135777180D02*
X94851503Y-135681942D01*
X94851503Y-135681942D02*
X94851503Y-135396228D01*
X94851503Y-135396228D02*
X94899122Y-135300990D01*
X94899122Y-135300990D02*
X94946741Y-135253371D01*
X94946741Y-135253371D02*
X95041979Y-135205752D01*
X95041979Y-135205752D02*
X95184836Y-135205752D01*
X95184836Y-135205752D02*
X95280074Y-135253371D01*
X95280074Y-135253371D02*
X95327693Y-135300990D01*
X95327693Y-135300990D02*
X95375312Y-135396228D01*
X95375312Y-135396228D02*
X95375312Y-135681942D01*
X95375312Y-135681942D02*
X95327693Y-135777180D01*
X95327693Y-135777180D02*
X95280074Y-135824800D01*
X95280074Y-135824800D02*
X95184836Y-135872419D01*
X95184836Y-135872419D02*
X95041979Y-135872419D01*
X95708646Y-135205752D02*
X95899122Y-135872419D01*
X95899122Y-135872419D02*
X96089598Y-135396228D01*
X96089598Y-135396228D02*
X96280074Y-135872419D01*
X96280074Y-135872419D02*
X96470550Y-135205752D01*
X97232455Y-135824800D02*
X97137217Y-135872419D01*
X97137217Y-135872419D02*
X96946741Y-135872419D01*
X96946741Y-135872419D02*
X96851503Y-135824800D01*
X96851503Y-135824800D02*
X96803884Y-135729561D01*
X96803884Y-135729561D02*
X96803884Y-135348609D01*
X96803884Y-135348609D02*
X96851503Y-135253371D01*
X96851503Y-135253371D02*
X96946741Y-135205752D01*
X96946741Y-135205752D02*
X97137217Y-135205752D01*
X97137217Y-135205752D02*
X97232455Y-135253371D01*
X97232455Y-135253371D02*
X97280074Y-135348609D01*
X97280074Y-135348609D02*
X97280074Y-135443847D01*
X97280074Y-135443847D02*
X96803884Y-135539085D01*
X97708646Y-135872419D02*
X97708646Y-135205752D01*
X97708646Y-135396228D02*
X97756265Y-135300990D01*
X97756265Y-135300990D02*
X97803884Y-135253371D01*
X97803884Y-135253371D02*
X97899122Y-135205752D01*
X97899122Y-135205752D02*
X97994360Y-135205752D01*
D11*
X91106340Y-114109522D02*
X90306340Y-114109522D01*
X91106340Y-113728570D02*
X90306340Y-113728570D01*
X90306340Y-113728570D02*
X91106340Y-113271427D01*
X91106340Y-113271427D02*
X90306340Y-113271427D01*
X90306340Y-113004761D02*
X91106340Y-112738094D01*
X91106340Y-112738094D02*
X90306340Y-112471428D01*
X91106340Y-112204761D02*
X90306340Y-112204761D01*
X91068245Y-111861905D02*
X91106340Y-111747619D01*
X91106340Y-111747619D02*
X91106340Y-111557143D01*
X91106340Y-111557143D02*
X91068245Y-111480952D01*
X91068245Y-111480952D02*
X91030149Y-111442857D01*
X91030149Y-111442857D02*
X90953959Y-111404762D01*
X90953959Y-111404762D02*
X90877768Y-111404762D01*
X90877768Y-111404762D02*
X90801578Y-111442857D01*
X90801578Y-111442857D02*
X90763483Y-111480952D01*
X90763483Y-111480952D02*
X90725387Y-111557143D01*
X90725387Y-111557143D02*
X90687292Y-111709524D01*
X90687292Y-111709524D02*
X90649197Y-111785714D01*
X90649197Y-111785714D02*
X90611102Y-111823809D01*
X90611102Y-111823809D02*
X90534911Y-111861905D01*
X90534911Y-111861905D02*
X90458721Y-111861905D01*
X90458721Y-111861905D02*
X90382530Y-111823809D01*
X90382530Y-111823809D02*
X90344435Y-111785714D01*
X90344435Y-111785714D02*
X90306340Y-111709524D01*
X90306340Y-111709524D02*
X90306340Y-111519047D01*
X90306340Y-111519047D02*
X90344435Y-111404762D01*
X91106340Y-111061904D02*
X90306340Y-111061904D01*
X90687292Y-110414286D02*
X90725387Y-110300000D01*
X90725387Y-110300000D02*
X90763483Y-110261905D01*
X90763483Y-110261905D02*
X90839673Y-110223809D01*
X90839673Y-110223809D02*
X90953959Y-110223809D01*
X90953959Y-110223809D02*
X91030149Y-110261905D01*
X91030149Y-110261905D02*
X91068245Y-110300000D01*
X91068245Y-110300000D02*
X91106340Y-110376190D01*
X91106340Y-110376190D02*
X91106340Y-110680952D01*
X91106340Y-110680952D02*
X90306340Y-110680952D01*
X90306340Y-110680952D02*
X90306340Y-110414286D01*
X90306340Y-110414286D02*
X90344435Y-110338095D01*
X90344435Y-110338095D02*
X90382530Y-110300000D01*
X90382530Y-110300000D02*
X90458721Y-110261905D01*
X90458721Y-110261905D02*
X90534911Y-110261905D01*
X90534911Y-110261905D02*
X90611102Y-110300000D01*
X90611102Y-110300000D02*
X90649197Y-110338095D01*
X90649197Y-110338095D02*
X90687292Y-110414286D01*
X90687292Y-110414286D02*
X90687292Y-110680952D01*
X91106340Y-109500000D02*
X91106340Y-109880952D01*
X91106340Y-109880952D02*
X90306340Y-109880952D01*
X90687292Y-109233333D02*
X90687292Y-108966667D01*
X91106340Y-108852381D02*
X91106340Y-109233333D01*
X91106340Y-109233333D02*
X90306340Y-109233333D01*
X90306340Y-109233333D02*
X90306340Y-108852381D01*
X92394295Y-114033332D02*
X91594295Y-114033332D01*
X92394295Y-113195237D02*
X92013342Y-113461904D01*
X92394295Y-113652380D02*
X91594295Y-113652380D01*
X91594295Y-113652380D02*
X91594295Y-113347618D01*
X91594295Y-113347618D02*
X91632390Y-113271428D01*
X91632390Y-113271428D02*
X91670485Y-113233333D01*
X91670485Y-113233333D02*
X91746676Y-113195237D01*
X91746676Y-113195237D02*
X91860961Y-113195237D01*
X91860961Y-113195237D02*
X91937152Y-113233333D01*
X91937152Y-113233333D02*
X91975247Y-113271428D01*
X91975247Y-113271428D02*
X92013342Y-113347618D01*
X92013342Y-113347618D02*
X92013342Y-113652380D01*
X92394295Y-111861904D02*
X92394295Y-112242856D01*
X92394295Y-112242856D02*
X91594295Y-112242856D01*
X92394295Y-111595237D02*
X91594295Y-111595237D01*
X91632390Y-110795238D02*
X91594295Y-110871428D01*
X91594295Y-110871428D02*
X91594295Y-110985714D01*
X91594295Y-110985714D02*
X91632390Y-111100000D01*
X91632390Y-111100000D02*
X91708580Y-111176190D01*
X91708580Y-111176190D02*
X91784771Y-111214285D01*
X91784771Y-111214285D02*
X91937152Y-111252381D01*
X91937152Y-111252381D02*
X92051438Y-111252381D01*
X92051438Y-111252381D02*
X92203819Y-111214285D01*
X92203819Y-111214285D02*
X92280009Y-111176190D01*
X92280009Y-111176190D02*
X92356200Y-111100000D01*
X92356200Y-111100000D02*
X92394295Y-110985714D01*
X92394295Y-110985714D02*
X92394295Y-110909523D01*
X92394295Y-110909523D02*
X92356200Y-110795238D01*
X92356200Y-110795238D02*
X92318104Y-110757142D01*
X92318104Y-110757142D02*
X92051438Y-110757142D01*
X92051438Y-110757142D02*
X92051438Y-110909523D01*
X92394295Y-110414285D02*
X91594295Y-110414285D01*
X91975247Y-110414285D02*
X91975247Y-109957142D01*
X92394295Y-109957142D02*
X91594295Y-109957142D01*
X91594295Y-109690476D02*
X91594295Y-109233333D01*
X92394295Y-109461905D02*
X91594295Y-109461905D01*
X92318104Y-108966666D02*
X92356200Y-108928571D01*
X92356200Y-108928571D02*
X92394295Y-108966666D01*
X92394295Y-108966666D02*
X92356200Y-109004762D01*
X92356200Y-109004762D02*
X92318104Y-108966666D01*
X92318104Y-108966666D02*
X92394295Y-108966666D01*
X92089533Y-108966666D02*
X91632390Y-109004762D01*
X91632390Y-109004762D02*
X91594295Y-108966666D01*
X91594295Y-108966666D02*
X91632390Y-108928571D01*
X91632390Y-108928571D02*
X92089533Y-108966666D01*
X92089533Y-108966666D02*
X91594295Y-108966666D01*
D10*
X91251503Y-138515942D02*
X91213408Y-138477847D01*
X91213408Y-138477847D02*
X91137217Y-138439752D01*
X91137217Y-138439752D02*
X91061027Y-138439752D01*
X91061027Y-138439752D02*
X90984836Y-138477847D01*
X90984836Y-138477847D02*
X90946741Y-138515942D01*
X90946741Y-138515942D02*
X90908646Y-138592133D01*
X90908646Y-138592133D02*
X90908646Y-138668323D01*
X90908646Y-138668323D02*
X90946741Y-138744514D01*
X90946741Y-138744514D02*
X90984836Y-138782609D01*
X90984836Y-138782609D02*
X91061027Y-138820704D01*
X91061027Y-138820704D02*
X91137217Y-138820704D01*
X91137217Y-138820704D02*
X91213408Y-138782609D01*
X91213408Y-138782609D02*
X91251503Y-138744514D01*
X91251503Y-138439752D02*
X91251503Y-138744514D01*
X91251503Y-138744514D02*
X91289598Y-138782609D01*
X91289598Y-138782609D02*
X91327693Y-138782609D01*
X91327693Y-138782609D02*
X91403884Y-138744514D01*
X91403884Y-138744514D02*
X91441979Y-138668323D01*
X91441979Y-138668323D02*
X91441979Y-138477847D01*
X91441979Y-138477847D02*
X91365789Y-138363561D01*
X91365789Y-138363561D02*
X91251503Y-138287371D01*
X91251503Y-138287371D02*
X91099122Y-138249276D01*
X91099122Y-138249276D02*
X90946741Y-138287371D01*
X90946741Y-138287371D02*
X90832455Y-138363561D01*
X90832455Y-138363561D02*
X90756265Y-138477847D01*
X90756265Y-138477847D02*
X90718169Y-138630228D01*
X90718169Y-138630228D02*
X90756265Y-138782609D01*
X90756265Y-138782609D02*
X90832455Y-138896895D01*
X90832455Y-138896895D02*
X90946741Y-138973085D01*
X90946741Y-138973085D02*
X91099122Y-139011180D01*
X91099122Y-139011180D02*
X91251503Y-138973085D01*
X91251503Y-138973085D02*
X91365789Y-138896895D01*
X91784836Y-138896895D02*
X91784836Y-138363561D01*
X91784836Y-138439752D02*
X91822931Y-138401657D01*
X91822931Y-138401657D02*
X91899121Y-138363561D01*
X91899121Y-138363561D02*
X92013407Y-138363561D01*
X92013407Y-138363561D02*
X92089598Y-138401657D01*
X92089598Y-138401657D02*
X92127693Y-138477847D01*
X92127693Y-138477847D02*
X92127693Y-138896895D01*
X92127693Y-138477847D02*
X92165788Y-138401657D01*
X92165788Y-138401657D02*
X92241979Y-138363561D01*
X92241979Y-138363561D02*
X92356264Y-138363561D01*
X92356264Y-138363561D02*
X92432455Y-138401657D01*
X92432455Y-138401657D02*
X92470550Y-138477847D01*
X92470550Y-138477847D02*
X92470550Y-138896895D01*
X93194360Y-138896895D02*
X93194360Y-138477847D01*
X93194360Y-138477847D02*
X93156265Y-138401657D01*
X93156265Y-138401657D02*
X93080074Y-138363561D01*
X93080074Y-138363561D02*
X92927693Y-138363561D01*
X92927693Y-138363561D02*
X92851503Y-138401657D01*
X93194360Y-138858800D02*
X93118169Y-138896895D01*
X93118169Y-138896895D02*
X92927693Y-138896895D01*
X92927693Y-138896895D02*
X92851503Y-138858800D01*
X92851503Y-138858800D02*
X92813407Y-138782609D01*
X92813407Y-138782609D02*
X92813407Y-138706419D01*
X92813407Y-138706419D02*
X92851503Y-138630228D01*
X92851503Y-138630228D02*
X92927693Y-138592133D01*
X92927693Y-138592133D02*
X93118169Y-138592133D01*
X93118169Y-138592133D02*
X93194360Y-138554038D01*
X93880075Y-138858800D02*
X93803884Y-138896895D01*
X93803884Y-138896895D02*
X93651503Y-138896895D01*
X93651503Y-138896895D02*
X93575313Y-138858800D01*
X93575313Y-138858800D02*
X93537217Y-138782609D01*
X93537217Y-138782609D02*
X93537217Y-138477847D01*
X93537217Y-138477847D02*
X93575313Y-138401657D01*
X93575313Y-138401657D02*
X93651503Y-138363561D01*
X93651503Y-138363561D02*
X93803884Y-138363561D01*
X93803884Y-138363561D02*
X93880075Y-138401657D01*
X93880075Y-138401657D02*
X93918170Y-138477847D01*
X93918170Y-138477847D02*
X93918170Y-138554038D01*
X93918170Y-138554038D02*
X93537217Y-138630228D01*
X94261027Y-138896895D02*
X94261027Y-138096895D01*
X94603884Y-138896895D02*
X94603884Y-138477847D01*
X94603884Y-138477847D02*
X94565789Y-138401657D01*
X94565789Y-138401657D02*
X94489598Y-138363561D01*
X94489598Y-138363561D02*
X94375312Y-138363561D01*
X94375312Y-138363561D02*
X94299122Y-138401657D01*
X94299122Y-138401657D02*
X94261027Y-138439752D01*
X94908646Y-138363561D02*
X95061027Y-138896895D01*
X95061027Y-138896895D02*
X95213408Y-138515942D01*
X95213408Y-138515942D02*
X95365789Y-138896895D01*
X95365789Y-138896895D02*
X95518170Y-138363561D01*
X91213408Y-137396895D02*
X90946741Y-137015942D01*
X90756265Y-137396895D02*
X90756265Y-136596895D01*
X90756265Y-136596895D02*
X91061027Y-136596895D01*
X91061027Y-136596895D02*
X91137217Y-136634990D01*
X91137217Y-136634990D02*
X91175312Y-136673085D01*
X91175312Y-136673085D02*
X91213408Y-136749276D01*
X91213408Y-136749276D02*
X91213408Y-136863561D01*
X91213408Y-136863561D02*
X91175312Y-136939752D01*
X91175312Y-136939752D02*
X91137217Y-136977847D01*
X91137217Y-136977847D02*
X91061027Y-137015942D01*
X91061027Y-137015942D02*
X90756265Y-137015942D01*
X91861027Y-137358800D02*
X91784836Y-137396895D01*
X91784836Y-137396895D02*
X91632455Y-137396895D01*
X91632455Y-137396895D02*
X91556265Y-137358800D01*
X91556265Y-137358800D02*
X91518169Y-137282609D01*
X91518169Y-137282609D02*
X91518169Y-136977847D01*
X91518169Y-136977847D02*
X91556265Y-136901657D01*
X91556265Y-136901657D02*
X91632455Y-136863561D01*
X91632455Y-136863561D02*
X91784836Y-136863561D01*
X91784836Y-136863561D02*
X91861027Y-136901657D01*
X91861027Y-136901657D02*
X91899122Y-136977847D01*
X91899122Y-136977847D02*
X91899122Y-137054038D01*
X91899122Y-137054038D02*
X91518169Y-137130228D01*
X92165788Y-136863561D02*
X92356264Y-137396895D01*
X92356264Y-137396895D02*
X92546741Y-136863561D01*
X92851503Y-137320704D02*
X92889598Y-137358800D01*
X92889598Y-137358800D02*
X92851503Y-137396895D01*
X92851503Y-137396895D02*
X92813407Y-137358800D01*
X92813407Y-137358800D02*
X92851503Y-137320704D01*
X92851503Y-137320704D02*
X92851503Y-137396895D01*
X94261026Y-137396895D02*
X93803883Y-137396895D01*
X94032455Y-137396895D02*
X94032455Y-136596895D01*
X94032455Y-136596895D02*
X93956264Y-136711180D01*
X93956264Y-136711180D02*
X93880074Y-136787371D01*
X93880074Y-136787371D02*
X93803883Y-136825466D01*
X94603884Y-137320704D02*
X94641979Y-137358800D01*
X94641979Y-137358800D02*
X94603884Y-137396895D01*
X94603884Y-137396895D02*
X94565788Y-137358800D01*
X94565788Y-137358800D02*
X94603884Y-137320704D01*
X94603884Y-137320704D02*
X94603884Y-137396895D01*
X95137217Y-136596895D02*
X95213407Y-136596895D01*
X95213407Y-136596895D02*
X95289598Y-136634990D01*
X95289598Y-136634990D02*
X95327693Y-136673085D01*
X95327693Y-136673085D02*
X95365788Y-136749276D01*
X95365788Y-136749276D02*
X95403883Y-136901657D01*
X95403883Y-136901657D02*
X95403883Y-137092133D01*
X95403883Y-137092133D02*
X95365788Y-137244514D01*
X95365788Y-137244514D02*
X95327693Y-137320704D01*
X95327693Y-137320704D02*
X95289598Y-137358800D01*
X95289598Y-137358800D02*
X95213407Y-137396895D01*
X95213407Y-137396895D02*
X95137217Y-137396895D01*
X95137217Y-137396895D02*
X95061026Y-137358800D01*
X95061026Y-137358800D02*
X95022931Y-137320704D01*
X95022931Y-137320704D02*
X94984836Y-137244514D01*
X94984836Y-137244514D02*
X94946740Y-137092133D01*
X94946740Y-137092133D02*
X94946740Y-136901657D01*
X94946740Y-136901657D02*
X94984836Y-136749276D01*
X94984836Y-136749276D02*
X95022931Y-136673085D01*
X95022931Y-136673085D02*
X95061026Y-136634990D01*
X95061026Y-136634990D02*
X95137217Y-136596895D01*
D11*
X120954819Y-124238094D02*
X119954819Y-124238094D01*
X119954819Y-124238094D02*
X119954819Y-123999999D01*
X119954819Y-123999999D02*
X120002438Y-123857142D01*
X120002438Y-123857142D02*
X120097676Y-123761904D01*
X120097676Y-123761904D02*
X120192914Y-123714285D01*
X120192914Y-123714285D02*
X120383390Y-123666666D01*
X120383390Y-123666666D02*
X120526247Y-123666666D01*
X120526247Y-123666666D02*
X120716723Y-123714285D01*
X120716723Y-123714285D02*
X120811961Y-123761904D01*
X120811961Y-123761904D02*
X120907200Y-123857142D01*
X120907200Y-123857142D02*
X120954819Y-123999999D01*
X120954819Y-123999999D02*
X120954819Y-124238094D01*
X119954819Y-123333332D02*
X119954819Y-122714285D01*
X119954819Y-122714285D02*
X120335771Y-123047618D01*
X120335771Y-123047618D02*
X120335771Y-122904761D01*
X120335771Y-122904761D02*
X120383390Y-122809523D01*
X120383390Y-122809523D02*
X120431009Y-122761904D01*
X120431009Y-122761904D02*
X120526247Y-122714285D01*
X120526247Y-122714285D02*
X120764342Y-122714285D01*
X120764342Y-122714285D02*
X120859580Y-122761904D01*
X120859580Y-122761904D02*
X120907200Y-122809523D01*
X120907200Y-122809523D02*
X120954819Y-122904761D01*
X120954819Y-122904761D02*
X120954819Y-123190475D01*
X120954819Y-123190475D02*
X120907200Y-123285713D01*
X120907200Y-123285713D02*
X120859580Y-123333332D01*
X93769819Y-122428094D02*
X92769819Y-122428094D01*
X92769819Y-122428094D02*
X92769819Y-122189999D01*
X92769819Y-122189999D02*
X92817438Y-122047142D01*
X92817438Y-122047142D02*
X92912676Y-121951904D01*
X92912676Y-121951904D02*
X93007914Y-121904285D01*
X93007914Y-121904285D02*
X93198390Y-121856666D01*
X93198390Y-121856666D02*
X93341247Y-121856666D01*
X93341247Y-121856666D02*
X93531723Y-121904285D01*
X93531723Y-121904285D02*
X93626961Y-121951904D01*
X93626961Y-121951904D02*
X93722200Y-122047142D01*
X93722200Y-122047142D02*
X93769819Y-122189999D01*
X93769819Y-122189999D02*
X93769819Y-122428094D01*
X92865057Y-121475713D02*
X92817438Y-121428094D01*
X92817438Y-121428094D02*
X92769819Y-121332856D01*
X92769819Y-121332856D02*
X92769819Y-121094761D01*
X92769819Y-121094761D02*
X92817438Y-120999523D01*
X92817438Y-120999523D02*
X92865057Y-120951904D01*
X92865057Y-120951904D02*
X92960295Y-120904285D01*
X92960295Y-120904285D02*
X93055533Y-120904285D01*
X93055533Y-120904285D02*
X93198390Y-120951904D01*
X93198390Y-120951904D02*
X93769819Y-121523332D01*
X93769819Y-121523332D02*
X93769819Y-120904285D01*
X100166666Y-138254819D02*
X100166666Y-138969104D01*
X100166666Y-138969104D02*
X100119047Y-139111961D01*
X100119047Y-139111961D02*
X100023809Y-139207200D01*
X100023809Y-139207200D02*
X99880952Y-139254819D01*
X99880952Y-139254819D02*
X99785714Y-139254819D01*
X101166666Y-139254819D02*
X100595238Y-139254819D01*
X100880952Y-139254819D02*
X100880952Y-138254819D01*
X100880952Y-138254819D02*
X100785714Y-138397676D01*
X100785714Y-138397676D02*
X100690476Y-138492914D01*
X100690476Y-138492914D02*
X100595238Y-138540533D01*
X111454819Y-111833333D02*
X112169104Y-111833333D01*
X112169104Y-111833333D02*
X112311961Y-111880952D01*
X112311961Y-111880952D02*
X112407200Y-111976190D01*
X112407200Y-111976190D02*
X112454819Y-112119047D01*
X112454819Y-112119047D02*
X112454819Y-112214285D01*
X111550057Y-111404761D02*
X111502438Y-111357142D01*
X111502438Y-111357142D02*
X111454819Y-111261904D01*
X111454819Y-111261904D02*
X111454819Y-111023809D01*
X111454819Y-111023809D02*
X111502438Y-110928571D01*
X111502438Y-110928571D02*
X111550057Y-110880952D01*
X111550057Y-110880952D02*
X111645295Y-110833333D01*
X111645295Y-110833333D02*
X111740533Y-110833333D01*
X111740533Y-110833333D02*
X111883390Y-110880952D01*
X111883390Y-110880952D02*
X112454819Y-111452380D01*
X112454819Y-111452380D02*
X112454819Y-110833333D01*
X107743095Y-124454819D02*
X107743095Y-125264342D01*
X107743095Y-125264342D02*
X107790714Y-125359580D01*
X107790714Y-125359580D02*
X107838333Y-125407200D01*
X107838333Y-125407200D02*
X107933571Y-125454819D01*
X107933571Y-125454819D02*
X108124047Y-125454819D01*
X108124047Y-125454819D02*
X108219285Y-125407200D01*
X108219285Y-125407200D02*
X108266904Y-125359580D01*
X108266904Y-125359580D02*
X108314523Y-125264342D01*
X108314523Y-125264342D02*
X108314523Y-124454819D01*
X109314523Y-125454819D02*
X108743095Y-125454819D01*
X109028809Y-125454819D02*
X109028809Y-124454819D01*
X109028809Y-124454819D02*
X108933571Y-124597676D01*
X108933571Y-124597676D02*
X108838333Y-124692914D01*
X108838333Y-124692914D02*
X108743095Y-124740533D01*
X112333333Y-133454819D02*
X112000000Y-132978628D01*
X111761905Y-133454819D02*
X111761905Y-132454819D01*
X111761905Y-132454819D02*
X112142857Y-132454819D01*
X112142857Y-132454819D02*
X112238095Y-132502438D01*
X112238095Y-132502438D02*
X112285714Y-132550057D01*
X112285714Y-132550057D02*
X112333333Y-132645295D01*
X112333333Y-132645295D02*
X112333333Y-132788152D01*
X112333333Y-132788152D02*
X112285714Y-132883390D01*
X112285714Y-132883390D02*
X112238095Y-132931009D01*
X112238095Y-132931009D02*
X112142857Y-132978628D01*
X112142857Y-132978628D02*
X111761905Y-132978628D01*
X113285714Y-133454819D02*
X112714286Y-133454819D01*
X113000000Y-133454819D02*
X113000000Y-132454819D01*
X113000000Y-132454819D02*
X112904762Y-132597676D01*
X112904762Y-132597676D02*
X112809524Y-132692914D01*
X112809524Y-132692914D02*
X112714286Y-132740533D01*
X120954819Y-129238094D02*
X119954819Y-129238094D01*
X119954819Y-129238094D02*
X119954819Y-128999999D01*
X119954819Y-128999999D02*
X120002438Y-128857142D01*
X120002438Y-128857142D02*
X120097676Y-128761904D01*
X120097676Y-128761904D02*
X120192914Y-128714285D01*
X120192914Y-128714285D02*
X120383390Y-128666666D01*
X120383390Y-128666666D02*
X120526247Y-128666666D01*
X120526247Y-128666666D02*
X120716723Y-128714285D01*
X120716723Y-128714285D02*
X120811961Y-128761904D01*
X120811961Y-128761904D02*
X120907200Y-128857142D01*
X120907200Y-128857142D02*
X120954819Y-128999999D01*
X120954819Y-128999999D02*
X120954819Y-129238094D01*
X120954819Y-127714285D02*
X120954819Y-128285713D01*
X120954819Y-127999999D02*
X119954819Y-127999999D01*
X119954819Y-127999999D02*
X120097676Y-128095237D01*
X120097676Y-128095237D02*
X120192914Y-128190475D01*
X120192914Y-128190475D02*
X120240533Y-128285713D01*
X101454819Y-125666666D02*
X100978628Y-125999999D01*
X101454819Y-126238094D02*
X100454819Y-126238094D01*
X100454819Y-126238094D02*
X100454819Y-125857142D01*
X100454819Y-125857142D02*
X100502438Y-125761904D01*
X100502438Y-125761904D02*
X100550057Y-125714285D01*
X100550057Y-125714285D02*
X100645295Y-125666666D01*
X100645295Y-125666666D02*
X100788152Y-125666666D01*
X100788152Y-125666666D02*
X100883390Y-125714285D01*
X100883390Y-125714285D02*
X100931009Y-125761904D01*
X100931009Y-125761904D02*
X100978628Y-125857142D01*
X100978628Y-125857142D02*
X100978628Y-126238094D01*
X100550057Y-125285713D02*
X100502438Y-125238094D01*
X100502438Y-125238094D02*
X100454819Y-125142856D01*
X100454819Y-125142856D02*
X100454819Y-124904761D01*
X100454819Y-124904761D02*
X100502438Y-124809523D01*
X100502438Y-124809523D02*
X100550057Y-124761904D01*
X100550057Y-124761904D02*
X100645295Y-124714285D01*
X100645295Y-124714285D02*
X100740533Y-124714285D01*
X100740533Y-124714285D02*
X100883390Y-124761904D01*
X100883390Y-124761904D02*
X101454819Y-125333332D01*
X101454819Y-125333332D02*
X101454819Y-124714285D01*
X92454819Y-129761904D02*
X93264342Y-129761904D01*
X93264342Y-129761904D02*
X93359580Y-129714285D01*
X93359580Y-129714285D02*
X93407200Y-129666666D01*
X93407200Y-129666666D02*
X93454819Y-129571428D01*
X93454819Y-129571428D02*
X93454819Y-129380952D01*
X93454819Y-129380952D02*
X93407200Y-129285714D01*
X93407200Y-129285714D02*
X93359580Y-129238095D01*
X93359580Y-129238095D02*
X93264342Y-129190476D01*
X93264342Y-129190476D02*
X92454819Y-129190476D01*
X92550057Y-128761904D02*
X92502438Y-128714285D01*
X92502438Y-128714285D02*
X92454819Y-128619047D01*
X92454819Y-128619047D02*
X92454819Y-128380952D01*
X92454819Y-128380952D02*
X92502438Y-128285714D01*
X92502438Y-128285714D02*
X92550057Y-128238095D01*
X92550057Y-128238095D02*
X92645295Y-128190476D01*
X92645295Y-128190476D02*
X92740533Y-128190476D01*
X92740533Y-128190476D02*
X92883390Y-128238095D01*
X92883390Y-128238095D02*
X93454819Y-128809523D01*
X93454819Y-128809523D02*
X93454819Y-128190476D01*
X117954819Y-114746666D02*
X117478628Y-115079999D01*
X117954819Y-115318094D02*
X116954819Y-115318094D01*
X116954819Y-115318094D02*
X116954819Y-114937142D01*
X116954819Y-114937142D02*
X117002438Y-114841904D01*
X117002438Y-114841904D02*
X117050057Y-114794285D01*
X117050057Y-114794285D02*
X117145295Y-114746666D01*
X117145295Y-114746666D02*
X117288152Y-114746666D01*
X117288152Y-114746666D02*
X117383390Y-114794285D01*
X117383390Y-114794285D02*
X117431009Y-114841904D01*
X117431009Y-114841904D02*
X117478628Y-114937142D01*
X117478628Y-114937142D02*
X117478628Y-115318094D01*
X116954819Y-114413332D02*
X116954819Y-113794285D01*
X116954819Y-113794285D02*
X117335771Y-114127618D01*
X117335771Y-114127618D02*
X117335771Y-113984761D01*
X117335771Y-113984761D02*
X117383390Y-113889523D01*
X117383390Y-113889523D02*
X117431009Y-113841904D01*
X117431009Y-113841904D02*
X117526247Y-113794285D01*
X117526247Y-113794285D02*
X117764342Y-113794285D01*
X117764342Y-113794285D02*
X117859580Y-113841904D01*
X117859580Y-113841904D02*
X117907200Y-113889523D01*
X117907200Y-113889523D02*
X117954819Y-113984761D01*
X117954819Y-113984761D02*
X117954819Y-114270475D01*
X117954819Y-114270475D02*
X117907200Y-114365713D01*
X117907200Y-114365713D02*
X117859580Y-114413332D01*
D12*
%TO.C,G\u002A\u002A\u002A*%
G36*
X92294885Y-114656423D02*
G01*
X92312542Y-114658742D01*
X92319958Y-114660070D01*
X92373289Y-114675799D01*
X92418590Y-114701639D01*
X92456515Y-114738080D01*
X92487718Y-114785609D01*
X92487740Y-114785651D01*
X92505944Y-114820201D01*
X92507186Y-115986928D01*
X92507330Y-116136241D01*
X92507429Y-116273004D01*
X92507479Y-116397736D01*
X92507477Y-116510961D01*
X92507419Y-116613198D01*
X92507303Y-116704970D01*
X92507125Y-116786798D01*
X92506882Y-116859203D01*
X92506572Y-116922706D01*
X92506189Y-116977830D01*
X92505732Y-117025095D01*
X92505197Y-117065023D01*
X92504581Y-117098136D01*
X92503880Y-117124954D01*
X92503092Y-117145999D01*
X92502213Y-117161792D01*
X92501240Y-117172855D01*
X92500169Y-117179710D01*
X92499775Y-117181198D01*
X92477670Y-117231289D01*
X92446066Y-117273343D01*
X92406357Y-117306327D01*
X92359935Y-117329205D01*
X92308194Y-117340942D01*
X92282960Y-117342315D01*
X92274536Y-117342066D01*
X92264412Y-117341766D01*
X92246750Y-117339574D01*
X92228329Y-117335035D01*
X92207504Y-117327444D01*
X92182630Y-117316094D01*
X92152062Y-117300282D01*
X92114156Y-117279301D01*
X92067265Y-117252446D01*
X92049909Y-117242388D01*
X92013479Y-117221263D01*
X91967966Y-117194909D01*
X91915615Y-117164623D01*
X91858670Y-117131702D01*
X91799376Y-117097445D01*
X91739976Y-117063147D01*
X91682715Y-117030108D01*
X91682372Y-117029910D01*
X91611649Y-116989116D01*
X91550679Y-116953940D01*
X91497892Y-116923474D01*
X91451713Y-116896808D01*
X91410572Y-116873033D01*
X91372895Y-116851240D01*
X91337109Y-116830522D01*
X91301644Y-116809967D01*
X91264925Y-116788669D01*
X91237905Y-116772987D01*
X91213879Y-116759066D01*
X91180399Y-116739707D01*
X91139343Y-116715992D01*
X91092587Y-116689003D01*
X91042006Y-116659825D01*
X90989477Y-116629540D01*
X90940504Y-116601320D01*
X90833958Y-116539951D01*
X90738142Y-116484767D01*
X90652468Y-116435416D01*
X90576347Y-116391542D01*
X90509190Y-116352792D01*
X90450407Y-116318813D01*
X90399411Y-116289251D01*
X90355613Y-116263751D01*
X90318423Y-116241960D01*
X90287253Y-116223523D01*
X90261514Y-116208088D01*
X90240617Y-116195300D01*
X90223974Y-116184805D01*
X90210995Y-116176250D01*
X90201092Y-116169280D01*
X90193675Y-116163542D01*
X90188157Y-116158682D01*
X90183948Y-116154346D01*
X90180459Y-116150180D01*
X90177102Y-116145831D01*
X90173288Y-116140944D01*
X90172188Y-116139589D01*
X90146178Y-116098172D01*
X90129875Y-116050910D01*
X90124232Y-116005517D01*
X90299932Y-116005517D01*
X90303058Y-116014976D01*
X90310582Y-116024974D01*
X90323615Y-116036447D01*
X90343266Y-116050336D01*
X90370646Y-116067578D01*
X90406864Y-116089113D01*
X90453032Y-116115879D01*
X90468234Y-116124636D01*
X90513589Y-116150759D01*
X90558490Y-116176651D01*
X90600740Y-116201045D01*
X90638143Y-116222670D01*
X90668501Y-116240257D01*
X90688857Y-116252092D01*
X90711500Y-116265266D01*
X90743023Y-116283552D01*
X90780981Y-116305533D01*
X90822927Y-116329793D01*
X90866415Y-116354917D01*
X90891482Y-116369385D01*
X90935256Y-116394650D01*
X90979389Y-116420139D01*
X91021315Y-116444369D01*
X91058466Y-116465854D01*
X91088276Y-116483112D01*
X91100643Y-116490282D01*
X91118000Y-116500332D01*
X91145489Y-116516217D01*
X91181912Y-116537247D01*
X91226072Y-116562731D01*
X91276773Y-116591980D01*
X91332819Y-116624304D01*
X91393013Y-116659011D01*
X91456158Y-116695411D01*
X91521058Y-116732815D01*
X91525501Y-116735375D01*
X91591083Y-116773175D01*
X91655463Y-116810295D01*
X91717378Y-116846007D01*
X91775566Y-116879582D01*
X91828763Y-116910291D01*
X91875708Y-116937405D01*
X91915138Y-116960196D01*
X91945790Y-116977934D01*
X91966401Y-116989891D01*
X91966700Y-116990065D01*
X92041446Y-117033457D01*
X92105263Y-117070313D01*
X92158445Y-117100799D01*
X92201288Y-117125082D01*
X92234086Y-117143328D01*
X92257134Y-117155703D01*
X92270727Y-117162373D01*
X92274536Y-117163717D01*
X92298467Y-117163208D01*
X92317067Y-117152851D01*
X92319660Y-117150387D01*
X92321302Y-117148598D01*
X92322801Y-117146279D01*
X92324163Y-117142851D01*
X92325394Y-117137735D01*
X92326502Y-117130352D01*
X92327491Y-117120124D01*
X92328371Y-117106473D01*
X92329145Y-117088818D01*
X92329823Y-117066581D01*
X92330409Y-117039185D01*
X92330910Y-117006049D01*
X92331334Y-116966595D01*
X92331686Y-116920244D01*
X92331974Y-116866418D01*
X92332203Y-116804537D01*
X92332381Y-116734023D01*
X92332514Y-116654298D01*
X92332608Y-116564782D01*
X92332670Y-116464897D01*
X92332707Y-116354063D01*
X92332726Y-116231703D01*
X92332732Y-116097236D01*
X92332732Y-116000001D01*
X92332731Y-115857093D01*
X92332721Y-115726679D01*
X92332697Y-115608180D01*
X92332653Y-115501017D01*
X92332581Y-115404611D01*
X92332475Y-115318385D01*
X92332328Y-115241758D01*
X92332134Y-115174153D01*
X92331886Y-115114989D01*
X92331578Y-115063690D01*
X92331203Y-115019675D01*
X92330754Y-114982366D01*
X92330225Y-114951185D01*
X92329610Y-114925552D01*
X92328901Y-114904889D01*
X92328093Y-114888617D01*
X92327178Y-114876157D01*
X92326150Y-114866931D01*
X92325003Y-114860359D01*
X92323729Y-114855863D01*
X92322323Y-114852864D01*
X92320777Y-114850784D01*
X92319660Y-114849615D01*
X92305161Y-114838589D01*
X92289203Y-114834811D01*
X92269451Y-114838592D01*
X92243569Y-114850241D01*
X92221615Y-114862615D01*
X92207698Y-114870758D01*
X92183706Y-114884697D01*
X92150896Y-114903707D01*
X92110523Y-114927062D01*
X92063843Y-114954035D01*
X92012111Y-114983902D01*
X91956582Y-115015936D01*
X91898513Y-115049412D01*
X91881729Y-115059083D01*
X91821788Y-115093628D01*
X91762911Y-115127578D01*
X91706527Y-115160108D01*
X91654067Y-115190392D01*
X91606960Y-115217603D01*
X91566636Y-115240917D01*
X91534525Y-115259508D01*
X91512057Y-115272549D01*
X91509161Y-115274236D01*
X91478752Y-115291897D01*
X91440434Y-115314062D01*
X91397649Y-115338744D01*
X91353835Y-115363960D01*
X91316340Y-115385485D01*
X91274548Y-115409475D01*
X91230685Y-115434708D01*
X91188191Y-115459202D01*
X91150506Y-115480974D01*
X91123520Y-115496618D01*
X91104568Y-115507612D01*
X91075503Y-115524446D01*
X91037529Y-115546421D01*
X90991853Y-115572842D01*
X90939681Y-115603010D01*
X90882219Y-115636228D01*
X90820674Y-115671798D01*
X90756252Y-115709024D01*
X90690159Y-115747207D01*
X90677343Y-115754610D01*
X90600542Y-115799044D01*
X90534411Y-115837479D01*
X90478241Y-115870348D01*
X90431321Y-115898087D01*
X90392943Y-115921130D01*
X90362398Y-115939912D01*
X90338976Y-115954868D01*
X90321967Y-115966433D01*
X90310663Y-115975042D01*
X90304354Y-115981129D01*
X90302432Y-115984457D01*
X90300093Y-115995657D01*
X90299932Y-116005517D01*
X90124232Y-116005517D01*
X90123661Y-116000922D01*
X90127918Y-115951323D01*
X90143028Y-115905229D01*
X90143359Y-115904540D01*
X90151870Y-115888507D01*
X90161908Y-115873485D01*
X90174551Y-115858686D01*
X90190880Y-115843319D01*
X90211974Y-115826594D01*
X90238912Y-115807723D01*
X90272774Y-115785914D01*
X90314639Y-115760379D01*
X90365586Y-115730328D01*
X90426695Y-115694971D01*
X90441262Y-115686603D01*
X90494928Y-115655782D01*
X90548997Y-115624703D01*
X90601483Y-115594507D01*
X90650403Y-115566337D01*
X90693775Y-115541335D01*
X90729613Y-115520642D01*
X90754220Y-115506397D01*
X90788734Y-115486390D01*
X90831116Y-115461848D01*
X90877910Y-115434773D01*
X90925660Y-115407162D01*
X90970910Y-115381016D01*
X90976453Y-115377814D01*
X91016839Y-115354485D01*
X91065642Y-115326279D01*
X91119965Y-115294874D01*
X91176914Y-115261941D01*
X91233592Y-115229158D01*
X91287103Y-115198197D01*
X91293463Y-115194516D01*
X91346605Y-115163782D01*
X91403493Y-115130915D01*
X91461182Y-115097615D01*
X91516727Y-115065582D01*
X91567184Y-115036513D01*
X91609606Y-115012110D01*
X91613741Y-115009734D01*
X91676325Y-114973761D01*
X91730866Y-114942359D01*
X91780673Y-114913617D01*
X91829053Y-114885621D01*
X91879315Y-114856459D01*
X91934767Y-114824219D01*
X91950360Y-114815144D01*
X92016027Y-114777057D01*
X92071652Y-114745210D01*
X92118398Y-114719114D01*
X92157431Y-114698281D01*
X92189916Y-114682221D01*
X92217017Y-114670447D01*
X92239900Y-114662468D01*
X92259729Y-114657797D01*
X92277669Y-114655945D01*
X92294885Y-114656423D01*
G37*
G36*
X92033690Y-115878530D02*
G01*
X92066362Y-115895398D01*
X92093839Y-115922327D01*
X92107342Y-115944091D01*
X92120927Y-115982852D01*
X92121695Y-116020171D01*
X92109663Y-116057113D01*
X92108865Y-116058697D01*
X92094093Y-116081170D01*
X92075137Y-116102193D01*
X92069278Y-116107278D01*
X92052969Y-116118634D01*
X92036687Y-116125072D01*
X92015218Y-116128255D01*
X92000647Y-116129158D01*
X91973826Y-116129480D01*
X91954565Y-116126699D01*
X91937525Y-116119823D01*
X91931023Y-116116222D01*
X91898946Y-116090882D01*
X91876927Y-116059310D01*
X91865360Y-116023791D01*
X91864645Y-115986610D01*
X91875178Y-115950050D01*
X91896463Y-115917403D01*
X91927211Y-115891158D01*
X91961845Y-115876122D01*
X91998095Y-115872008D01*
X92033690Y-115878530D01*
G37*
G36*
X90993546Y-115873481D02*
G01*
X91046065Y-115877709D01*
X91052365Y-115878318D01*
X91083233Y-115881338D01*
X91124944Y-115885411D01*
X91175328Y-115890328D01*
X91232219Y-115895876D01*
X91293446Y-115901844D01*
X91356841Y-115908020D01*
X91420237Y-115914194D01*
X91429476Y-115915093D01*
X91498753Y-115921879D01*
X91556198Y-115927682D01*
X91602992Y-115932741D01*
X91640320Y-115937297D01*
X91669363Y-115941590D01*
X91691305Y-115945859D01*
X91707327Y-115950346D01*
X91718613Y-115955290D01*
X91726345Y-115960931D01*
X91731706Y-115967510D01*
X91735879Y-115975267D01*
X91736923Y-115977523D01*
X91742553Y-115991217D01*
X91743305Y-116001407D01*
X91738940Y-116014355D01*
X91735185Y-116022878D01*
X91724901Y-116039270D01*
X91713124Y-116050362D01*
X91704168Y-116052500D01*
X91683275Y-116055717D01*
X91651525Y-116059890D01*
X91609997Y-116064894D01*
X91559771Y-116070606D01*
X91501928Y-116076900D01*
X91437546Y-116083655D01*
X91367707Y-116090745D01*
X91321803Y-116095288D01*
X91241216Y-116103156D01*
X91172550Y-116109774D01*
X91114718Y-116115219D01*
X91066636Y-116119565D01*
X91027219Y-116122888D01*
X90995381Y-116125262D01*
X90970037Y-116126764D01*
X90950103Y-116127467D01*
X90934492Y-116127448D01*
X90922120Y-116126782D01*
X90911902Y-116125544D01*
X90904633Y-116124209D01*
X90866347Y-116110291D01*
X90836388Y-116087065D01*
X90815827Y-116056094D01*
X90805735Y-116018946D01*
X90806576Y-115980943D01*
X90815315Y-115945550D01*
X90830627Y-115918671D01*
X90851266Y-115899006D01*
X90870220Y-115887006D01*
X90891963Y-115878656D01*
X90918457Y-115873753D01*
X90951664Y-115872095D01*
X90993546Y-115873481D01*
G37*
D13*
%TO.C,D3*%
X116420000Y-121940000D02*
X116264000Y-121940000D01*
X118736000Y-121940000D02*
X118580000Y-121940000D01*
X116420000Y-124540961D02*
G75*
G02*
X116420000Y-122459039I1080000J1040961D01*
G01*
X116420000Y-125171437D02*
G75*
G02*
X116264484Y-121940000I1080000J1671437D01*
G01*
X118580000Y-122459039D02*
G75*
G02*
X118580000Y-124540961I-1080000J-1040961D01*
G01*
X118735516Y-121940000D02*
G75*
G02*
X118580000Y-125171437I-1235516J-1560000D01*
G01*
%TO.C,D2*%
X96545000Y-119130000D02*
X93455000Y-119130000D01*
X95000000Y-124680000D02*
G75*
G02*
X93455170Y-119130000I0J2990000D01*
G01*
X96544830Y-119130000D02*
G75*
G02*
X95000000Y-124680000I-1544830J-2560000D01*
G01*
X97500000Y-121690000D02*
G75*
G02*
X92500000Y-121690000I-2500000J0D01*
G01*
X92500000Y-121690000D02*
G75*
G02*
X97500000Y-121690000I2500000J0D01*
G01*
D12*
%TO.C,G\u002A\u002A\u002A*%
G36*
X94690032Y-115945016D02*
G01*
X94780103Y-116035087D01*
X94487322Y-116325265D01*
X94194541Y-116615443D01*
X94104470Y-116525372D01*
X94014399Y-116435302D01*
X94307180Y-116145123D01*
X94599961Y-115854945D01*
X94690032Y-115945016D01*
G37*
G36*
X96086081Y-112497251D02*
G01*
X96086081Y-112902570D01*
X95950974Y-112902570D01*
X95815868Y-112902570D01*
X95815868Y-112497251D01*
X95815868Y-112091932D01*
X95950974Y-112091932D01*
X96086081Y-112091932D01*
X96086081Y-112497251D01*
G37*
G36*
X96086081Y-116865691D02*
G01*
X96086081Y-117271010D01*
X95950974Y-117271010D01*
X95815868Y-117271010D01*
X95815868Y-116865691D01*
X95815868Y-116460371D01*
X95950974Y-116460371D01*
X96086081Y-116460371D01*
X96086081Y-116865691D01*
G37*
G36*
X97355507Y-115921702D02*
G01*
X97438951Y-115992976D01*
X97567086Y-116117699D01*
X97596364Y-116146705D01*
X97887549Y-116435302D01*
X97797036Y-116525815D01*
X97706523Y-116616328D01*
X97412183Y-116321987D01*
X97117842Y-116027646D01*
X97211511Y-115942877D01*
X97257968Y-115905222D01*
X97300573Y-115895307D01*
X97355507Y-115921702D01*
G37*
G36*
X94224847Y-112805449D02*
G01*
X94303956Y-112863828D01*
X94423012Y-112974930D01*
X94499048Y-113050236D01*
X94637482Y-113190023D01*
X94720668Y-113282053D01*
X94757206Y-113342102D01*
X94755694Y-113385948D01*
X94724732Y-113429367D01*
X94712884Y-113442571D01*
X94628086Y-113536272D01*
X94343785Y-113254498D01*
X94194194Y-113101651D01*
X94105068Y-112994644D01*
X94069628Y-112919393D01*
X94081098Y-112861812D01*
X94129950Y-112810083D01*
X94171554Y-112790598D01*
X94224847Y-112805449D01*
G37*
G36*
X97743958Y-112793719D02*
G01*
X97788482Y-112826959D01*
X97797504Y-112835085D01*
X97890792Y-112919510D01*
X97587470Y-113225173D01*
X97445843Y-113365782D01*
X97351613Y-113450384D01*
X97289855Y-113487999D01*
X97245638Y-113487643D01*
X97204037Y-113458334D01*
X97203023Y-113457419D01*
X97140459Y-113390538D01*
X97121896Y-113355903D01*
X97151824Y-113313870D01*
X97231990Y-113224824D01*
X97347971Y-113104452D01*
X97413056Y-113039233D01*
X97551035Y-112903915D01*
X97641401Y-112823613D01*
X97700320Y-112789742D01*
X97743958Y-112793719D01*
G37*
G36*
X93964956Y-114569664D02*
G01*
X94089958Y-114574969D01*
X94158632Y-114589238D01*
X94187850Y-114616911D01*
X94194483Y-114662426D01*
X94194591Y-114681471D01*
X94191620Y-114733629D01*
X94171460Y-114766524D01*
X94117237Y-114784597D01*
X94012083Y-114792285D01*
X93839123Y-114794031D01*
X93766755Y-114794059D01*
X93568553Y-114793278D01*
X93443551Y-114787972D01*
X93374877Y-114773703D01*
X93345659Y-114746031D01*
X93339026Y-114700515D01*
X93338918Y-114681471D01*
X93341889Y-114629312D01*
X93362050Y-114596417D01*
X93416272Y-114578345D01*
X93521427Y-114570656D01*
X93694386Y-114568911D01*
X93766755Y-114568882D01*
X93964956Y-114569664D01*
G37*
G36*
X95974077Y-109023371D02*
G01*
X96030458Y-109131309D01*
X96114306Y-109296687D01*
X96219813Y-109507653D01*
X96341168Y-109752353D01*
X96472563Y-110018932D01*
X96608187Y-110295538D01*
X96742231Y-110570317D01*
X96868886Y-110831415D01*
X96982341Y-111066979D01*
X97076788Y-111265155D01*
X97146416Y-111414089D01*
X97185417Y-111501929D01*
X97188497Y-111509708D01*
X97174654Y-111583692D01*
X97106432Y-111630169D01*
X97035178Y-111653845D01*
X96986904Y-111631463D01*
X96937849Y-111546834D01*
X96916729Y-111500909D01*
X96859819Y-111386431D01*
X96812961Y-111311961D01*
X96801538Y-111300653D01*
X96748378Y-111312299D01*
X96649223Y-111365182D01*
X96572923Y-111415144D01*
X96298348Y-111555277D01*
X96003375Y-111611415D01*
X95700338Y-111583480D01*
X95401569Y-111471390D01*
X95317774Y-111423311D01*
X95093013Y-111283592D01*
X94997123Y-111480964D01*
X94935641Y-111597612D01*
X94888018Y-111647173D01*
X94832901Y-111645464D01*
X94795607Y-111630210D01*
X94716806Y-111585123D01*
X94691039Y-111555536D01*
X94710268Y-111509978D01*
X94764261Y-111393409D01*
X94848280Y-111215763D01*
X94957588Y-110986976D01*
X94985119Y-110929736D01*
X95277966Y-110929736D01*
X95313122Y-110931195D01*
X95405954Y-110901055D01*
X95483519Y-110868938D01*
X95777674Y-110786161D01*
X96083759Y-110785466D01*
X96378322Y-110866246D01*
X96436842Y-110893667D01*
X96667277Y-111010437D01*
X96329931Y-110303491D01*
X96202695Y-110037326D01*
X96108418Y-109842245D01*
X96041428Y-109707965D01*
X95996052Y-109624204D01*
X95966619Y-109580679D01*
X95947456Y-109567109D01*
X95932892Y-109573211D01*
X95929075Y-109576833D01*
X95901987Y-109624066D01*
X95844876Y-109735781D01*
X95765855Y-109895124D01*
X95673035Y-110085240D01*
X95574527Y-110289275D01*
X95478444Y-110490374D01*
X95392896Y-110671681D01*
X95325996Y-110816344D01*
X95285855Y-110907506D01*
X95277966Y-110929736D01*
X94985119Y-110929736D01*
X95087448Y-110716983D01*
X95233123Y-110415721D01*
X95310277Y-110256745D01*
X95462562Y-109944761D01*
X95602638Y-109660519D01*
X95725620Y-109413715D01*
X95826626Y-109214046D01*
X95900769Y-109071210D01*
X95943167Y-108994903D01*
X95947456Y-108989313D01*
X95950974Y-108984727D01*
X95974077Y-109023371D01*
G37*
G36*
X99080933Y-110740861D02*
G01*
X99101393Y-110765688D01*
X99111875Y-110792181D01*
X99106914Y-110826675D01*
X99081042Y-110875509D01*
X99028795Y-110945018D01*
X98944706Y-111041539D01*
X98823308Y-111171409D01*
X98659135Y-111340966D01*
X98446722Y-111556545D01*
X98180601Y-111824484D01*
X97923401Y-112082761D01*
X96680571Y-113330407D01*
X96867457Y-113467134D01*
X97005595Y-113586387D01*
X97148189Y-113737021D01*
X97211884Y-113816159D01*
X97369424Y-114028457D01*
X97459662Y-114028457D01*
X97898674Y-114028457D01*
X98427925Y-114028457D01*
X98427925Y-114681471D01*
X98427925Y-115334485D01*
X98022606Y-115334485D01*
X97844113Y-115337911D01*
X97705726Y-115347089D01*
X97627536Y-115360366D01*
X97617286Y-115367805D01*
X97647827Y-115407539D01*
X97733707Y-115501716D01*
X97866316Y-115641348D01*
X98037039Y-115817451D01*
X98237267Y-116021041D01*
X98407412Y-116192166D01*
X98651467Y-116437069D01*
X98838127Y-116626615D01*
X98973968Y-116768855D01*
X99065567Y-116871840D01*
X99119500Y-116943619D01*
X99142343Y-116992244D01*
X99140673Y-117025763D01*
X99121067Y-117052229D01*
X99114804Y-117058081D01*
X99087076Y-117077596D01*
X99054285Y-117081529D01*
X99008650Y-117063412D01*
X98942394Y-117016775D01*
X98847737Y-116935147D01*
X98716902Y-116812058D01*
X98542109Y-116641038D01*
X98315581Y-116415618D01*
X98183136Y-116283139D01*
X97334203Y-115433323D01*
X97089700Y-115697416D01*
X96840890Y-115931476D01*
X96590927Y-116088022D01*
X96317485Y-116177086D01*
X95998237Y-116208703D01*
X95950974Y-116209118D01*
X95739987Y-116204265D01*
X95584187Y-116185311D01*
X95449005Y-116145657D01*
X95320478Y-116088804D01*
X95090510Y-115950108D01*
X94870142Y-115770234D01*
X94692963Y-115577711D01*
X94653722Y-115522470D01*
X94631945Y-115492680D01*
X94607241Y-115477204D01*
X94571976Y-115482246D01*
X94518515Y-115514012D01*
X94439223Y-115578707D01*
X94326466Y-115682537D01*
X94172608Y-115831706D01*
X93970017Y-116032419D01*
X93723113Y-116278837D01*
X92861150Y-117139950D01*
X92775978Y-117045836D01*
X92752104Y-117016772D01*
X92740963Y-116986572D01*
X92748881Y-116947466D01*
X92782186Y-116891686D01*
X92847203Y-116811462D01*
X92950260Y-116699025D01*
X93097682Y-116546606D01*
X93295797Y-116346437D01*
X93550930Y-116090748D01*
X93566127Y-116075536D01*
X94399496Y-115241344D01*
X94780052Y-115241344D01*
X94803464Y-115287337D01*
X94862891Y-115380547D01*
X94901482Y-115437313D01*
X95119495Y-115675532D01*
X95391497Y-115846267D01*
X95705754Y-115943626D01*
X95952033Y-115964981D01*
X96282430Y-115925174D01*
X96583716Y-115811096D01*
X96840626Y-115630767D01*
X97035701Y-115395767D01*
X97134875Y-115235300D01*
X96543144Y-114643569D01*
X95951412Y-114051837D01*
X95365732Y-114636217D01*
X95180085Y-114822527D01*
X95018679Y-114986562D01*
X94891531Y-115117972D01*
X94808660Y-115206408D01*
X94780052Y-115241344D01*
X94399496Y-115241344D01*
X94441449Y-115199350D01*
X94441834Y-114774404D01*
X94653186Y-114774404D01*
X94673878Y-114862087D01*
X94698082Y-114877605D01*
X94750469Y-114854167D01*
X94838625Y-114785616D01*
X94970133Y-114665793D01*
X95152578Y-114488537D01*
X95236230Y-114405450D01*
X95751086Y-113891935D01*
X96131116Y-113891935D01*
X96161424Y-113930532D01*
X96245360Y-114021454D01*
X96372447Y-114153754D01*
X96532206Y-114316488D01*
X96668737Y-114453496D01*
X96865145Y-114648690D01*
X97007486Y-114786883D01*
X97105181Y-114874962D01*
X97167650Y-114919816D01*
X97204316Y-114928335D01*
X97224600Y-114907406D01*
X97236707Y-114868793D01*
X97250468Y-114681397D01*
X97459662Y-114681397D01*
X97459662Y-115109200D01*
X97808687Y-115109254D01*
X98157712Y-115109308D01*
X98157712Y-114681471D01*
X98157712Y-114253634D01*
X97808687Y-114253614D01*
X97459662Y-114253595D01*
X97459662Y-114681397D01*
X97250468Y-114681397D01*
X97253821Y-114635740D01*
X97204328Y-114376334D01*
X97096632Y-114114083D01*
X96939137Y-113872495D01*
X96841922Y-113764395D01*
X96695794Y-113629696D01*
X96585572Y-113562393D01*
X96490563Y-113559816D01*
X96390076Y-113619292D01*
X96306540Y-113695298D01*
X96209346Y-113794479D01*
X96145643Y-113867681D01*
X96131116Y-113891935D01*
X95751086Y-113891935D01*
X95769650Y-113873419D01*
X95603478Y-113703243D01*
X95498562Y-113606764D01*
X95410927Y-113545092D01*
X95376962Y-113533067D01*
X95302741Y-113565740D01*
X95193331Y-113650957D01*
X95067989Y-113769508D01*
X94945975Y-113902185D01*
X94846546Y-114029780D01*
X94798794Y-114109719D01*
X94706507Y-114348740D01*
X94656603Y-114578539D01*
X94653186Y-114774404D01*
X94441834Y-114774404D01*
X94441867Y-114737751D01*
X94444585Y-114517320D01*
X94455515Y-114359265D01*
X94479538Y-114235954D01*
X94521531Y-114119755D01*
X94568882Y-114018350D01*
X94723015Y-113776735D01*
X94934844Y-113547376D01*
X94950455Y-113533292D01*
X95061218Y-113434570D01*
X95680762Y-113434570D01*
X95710478Y-113486565D01*
X95784174Y-113569648D01*
X95807053Y-113592174D01*
X95933344Y-113713169D01*
X95951412Y-113694527D01*
X96086100Y-113555564D01*
X96238856Y-113397960D01*
X95959809Y-113397960D01*
X95814684Y-113403337D01*
X95713774Y-113417349D01*
X95680762Y-113434570D01*
X95061218Y-113434570D01*
X95205432Y-113306034D01*
X93956271Y-112056275D01*
X93641433Y-111740946D01*
X93385010Y-111482890D01*
X93181525Y-111275893D01*
X93025503Y-111113742D01*
X92911467Y-110990221D01*
X92833941Y-110899118D01*
X92787447Y-110834219D01*
X92766510Y-110789309D01*
X92765652Y-110758174D01*
X92779398Y-110734601D01*
X92785630Y-110727996D01*
X92807863Y-110711146D01*
X92835785Y-110707052D01*
X92875510Y-110721123D01*
X92933150Y-110758766D01*
X93014821Y-110825388D01*
X93126634Y-110926397D01*
X93274704Y-111067201D01*
X93465143Y-111253207D01*
X93704065Y-111489823D01*
X93997583Y-111782457D01*
X94150923Y-111935674D01*
X95376962Y-113161166D01*
X95437696Y-113221873D01*
X95694627Y-113181582D01*
X95896535Y-113164786D01*
X95959809Y-113166220D01*
X96107608Y-113169570D01*
X96187703Y-113178840D01*
X96423847Y-113216389D01*
X96490563Y-113149725D01*
X97709740Y-111931498D01*
X98995633Y-110646606D01*
X99080933Y-110740861D01*
G37*
D13*
%TO.C,J1*%
X99070000Y-135270000D02*
X100400000Y-135270000D01*
X99070000Y-136600000D02*
X99070000Y-135270000D01*
X101670000Y-135270000D02*
X111890000Y-135270000D01*
X101670000Y-137930000D02*
X101670000Y-135270000D01*
X101670000Y-137930000D02*
X111890000Y-137930000D01*
X111890000Y-137930000D02*
X111890000Y-135270000D01*
%TO.C,J2*%
X99250000Y-108670000D02*
X114750000Y-108670000D01*
X99250000Y-117790000D02*
X99250000Y-108670000D01*
X100550000Y-109980000D02*
X104950000Y-109980000D01*
X100550000Y-116480000D02*
X100550000Y-109980000D01*
X104950000Y-109980000D02*
X104950000Y-108670000D01*
X109040000Y-107280000D02*
X109540000Y-108280000D01*
X109050000Y-108670000D02*
X109050000Y-109980000D01*
X109050000Y-109980000D02*
X113450000Y-109980000D01*
X109540000Y-108280000D02*
X110040000Y-107280000D01*
X110040000Y-107280000D02*
X109040000Y-107280000D01*
X113450000Y-109980000D02*
X113450000Y-116480000D01*
X113450000Y-116480000D02*
X100550000Y-116480000D01*
X114750000Y-108670000D02*
X114750000Y-117790000D01*
X114750000Y-117790000D02*
X99250000Y-117790000D01*
%TO.C,U1*%
X105855000Y-119860000D02*
X105855000Y-130140000D01*
X105855000Y-130140000D02*
X111155000Y-130140000D01*
X107505000Y-119860000D02*
X105855000Y-119860000D01*
X111155000Y-119860000D02*
X109505000Y-119860000D01*
X111155000Y-130140000D02*
X111155000Y-119860000D01*
X109505000Y-119860000D02*
G75*
G02*
X107505000Y-119860000I-1000000J0D01*
G01*
%TO.C,R1*%
X108540000Y-133000000D02*
X109310000Y-133000000D01*
X116620000Y-133000000D02*
X115850000Y-133000000D01*
X115850000Y-134370000D02*
X109310000Y-134370000D01*
X109310000Y-131630000D01*
X115850000Y-131630000D01*
X115850000Y-134370000D01*
%TO.C,D1*%
X116264000Y-130290000D02*
X116420000Y-130290000D01*
X118580000Y-130290000D02*
X118736000Y-130290000D01*
X116264484Y-130290000D02*
G75*
G02*
X116420000Y-127058563I1235516J1560000D01*
G01*
X116420000Y-129770961D02*
G75*
G02*
X116420000Y-127689039I1080000J1040961D01*
G01*
X118580000Y-127058563D02*
G75*
G02*
X118735516Y-130290000I-1080000J-1671437D01*
G01*
X118580000Y-127689039D02*
G75*
G02*
X118580000Y-129770961I-1080000J-1040961D01*
G01*
%TO.C,R2*%
X101000000Y-121460000D02*
X101000000Y-122230000D01*
X101000000Y-129540000D02*
X101000000Y-128770000D01*
X102370000Y-122230000D02*
X99630000Y-122230000D01*
X99630000Y-128770000D01*
X102370000Y-128770000D01*
X102370000Y-122230000D01*
%TO.C,U2*%
X92700000Y-126460000D02*
X92700000Y-126240000D01*
X92700000Y-132120000D02*
X92700000Y-131660000D01*
X92700000Y-132120000D02*
X93900000Y-132120000D01*
X96360000Y-132040000D02*
X96360000Y-128960000D01*
X92700000Y-131660000D02*
G75*
G02*
X92700000Y-126460000I1100000J2600000D01*
G01*
%TO.C,R3*%
X117500000Y-110540000D02*
X117500000Y-111310000D01*
X117500000Y-118620000D02*
X117500000Y-117850000D01*
X116130000Y-117850000D02*
X118870000Y-117850000D01*
X118870000Y-111310000D01*
X116130000Y-111310000D01*
X116130000Y-117850000D01*
%TD*%
M02*
