M48
; DRILL file {KiCad 9.0.7} date 2026-01-25T12:58:13+0100
; FORMAT={-:-/ absolute / metric / decimal}
; #@! TF.CreationDate,2026-01-25T12:58:13+01:00
; #@! TF.GenerationSoftware,Kicad,Pcbnew,9.0.7
; #@! TF.FileFunction,Plated,1,2,PTH
FMAT,2
METRIC
; #@! TA.AperFunction,Plated,PTH,ComponentDrill
T1C0.800
; #@! TA.AperFunction,Plated,PTH,ComponentDrill
T2C0.900
; #@! TA.AperFunction,Plated,PTH,ComponentDrill
T3C1.000
; #@! TA.AperFunction,Plated,PTH,ComponentDrill
T4C4.900
%
G90
G05
T1
X101.0Y-120.42
X101.0Y-130.58
X104.695Y-121.19
X104.695Y-123.73
X104.695Y-126.27
X104.695Y-128.81
X107.5Y-133.0
X112.315Y-121.19
X112.315Y-123.73
X112.315Y-126.27
X112.315Y-128.81
X117.5Y-109.5
X117.5Y-119.66
X117.66Y-133.0
T2
X95.0Y-120.42
X95.0Y-122.96
X95.0Y-126.42
X95.0Y-128.96
X95.0Y-131.5
X117.5Y-122.23
X117.5Y-124.77
X117.5Y-127.46
X117.5Y-130.0
T3
X100.4Y-136.6
X102.94Y-136.6
X104.46Y-111.96
X104.46Y-114.5
X105.48Y-136.6
X107.0Y-111.96
X107.0Y-114.5
X108.02Y-136.6
X109.54Y-111.96
X109.54Y-114.5
X110.56Y-136.6
T4
X93.5Y-103.5
X93.5Y-143.5
X101.5Y-103.5
X101.5Y-143.5
X109.5Y-103.5
X109.5Y-143.5
X117.5Y-103.5
X117.5Y-143.5
M30
